aaram-bold-italics.ufo
<glyph name="exclam" format="1">
  <advance width="212"/>
  <unicode hex="0021"/>
  <outline>
    <contour>
      <point x="90" y="58" type="curve" smooth="yes"/>
      <point x="102" y="58"/>
      <point x="111" y="48"/>
      <point x="109" y="35" type="curve"/>
      <point x="106" y="22" type="line"/>
      <point x="104" y="10"/>
      <point x="91" y="-1"/>
      <point x="79" y="-1" type="curve" smooth="yes"/>
      <point x="65" y="-1"/>
      <point x="57" y="10"/>
      <point x="59" y="22" type="curve"/>
      <point x="62" y="35" type="line"/>
      <point x="64" y="48"/>
      <point x="76" y="58"/>
    </contour>
    <contour>
      <point x="93" y="74" type="curve" smooth="yes"/>
      <point x="79" y="74"/>
      <point x="70" y="85"/>
      <point x="73" y="97" type="curve"/>
      <point x="179" y="702" type="line"/>
      <point x="182" y="715"/>
      <point x="194" y="726"/>
      <point x="208" y="726" type="curve" smooth="yes"/>
      <point x="220" y="726"/>
      <point x="229" y="715"/>
      <point x="226" y="702" type="curve"/>
      <point x="120" y="97" type="line"/>
      <point x="117" y="85"/>
      <point x="105" y="74"/>
    </contour>
    <contour>
      <point x="236" y="702" type="line"/>
      <point x="239" y="720"/>
      <point x="226" y="736"/>
      <point x="209" y="736" type="curve" smooth="yes"/>
      <point x="189" y="736"/>
      <point x="172" y="720"/>
      <point x="169" y="702" type="curve"/>
      <point x="63" y="97" type="line"/>
      <point x="60" y="83"/>
      <point x="66" y="71"/>
      <point x="79" y="66" type="curve"/>
      <point x="64" y="61"/>
      <point x="54" y="50"/>
      <point x="52" y="35" type="curve"/>
      <point x="49" y="22" type="line"/>
      <point x="46" y="5"/>
      <point x="58" y="-11"/>
      <point x="78" y="-11" type="curve" smooth="yes"/>
      <point x="84" y="-11"/>
      <point x="90" y="-9"/>
      <point x="95" y="-6" type="curve"/>
      <point x="94" y="-9"/>
      <point x="93" y="-12"/>
      <point x="93" y="-15" type="curve"/>
      <point x="91" y="-28" type="line"/>
      <point x="88" y="-45"/>
      <point x="99" y="-61"/>
      <point x="119" y="-61" type="curve" smooth="yes"/>
      <point x="136" y="-61"/>
      <point x="155" y="-45"/>
      <point x="158" y="-28" type="curve"/>
      <point x="160" y="-15" type="line"/>
      <point x="163" y="0"/>
      <point x="154" y="11"/>
      <point x="142" y="16" type="curve"/>
      <point x="156" y="20"/>
      <point x="168" y="33"/>
      <point x="171" y="47" type="curve"/>
      <point x="277" y="652" type="line"/>
      <point x="281" y="670"/>
      <point x="267" y="686"/>
      <point x="250" y="686" type="curve" smooth="yes"/>
      <point x="243" y="686"/>
      <point x="238" y="684"/>
      <point x="233" y="681" type="curve"/>
    </contour>
    <contour>
      <point x="116" y="18" type="curve" smooth="yes"/>
      <point x="116" y="17"/>
      <point x="118" y="17"/>
      <point x="120" y="16" type="curve"/>
      <point x="113" y="13" type="line"/>
      <point x="114" y="15"/>
      <point x="115" y="17"/>
    </contour>
    <contour>
      <point x="107" y="68" type="curve"/>
      <point x="107" y="63" type="line"/>
      <point x="101" y="66" type="line"/>
      <point x="103" y="66"/>
      <point x="105" y="67"/>
    </contour>
  </outline>
</glyph>
<glyph name="quotedbl" format="1">
  <advance width="270"/>
  <unicode hex="0022"/>
  <outline>
    <contour>
      <point x="294" y="684" type="line"/>
      <point x="287" y="632" type="line"/>
      <point x="284" y="617"/>
      <point x="270" y="603"/>
      <point x="254" y="603" type="curve" smooth="yes"/>
      <point x="237" y="603"/>
      <point x="227" y="616"/>
      <point x="230" y="632" type="curve"/>
      <point x="238" y="687" type="line"/>
      <point x="239" y="687" type="line"/>
      <point x="246" y="738" type="line"/>
      <point x="248" y="754"/>
      <point x="263" y="768"/>
      <point x="279" y="768" type="curve" smooth="yes"/>
      <point x="296" y="768"/>
      <point x="306" y="755"/>
      <point x="303" y="739" type="curve"/>
      <point x="295" y="684" type="line"/>
    </contour>
    <contour>
      <point x="221" y="680" type="line"/>
      <point x="215" y="630" type="line"/>
      <point x="212" y="615"/>
      <point x="196" y="601"/>
      <point x="181" y="601" type="curve" smooth="yes"/>
      <point x="164" y="601"/>
      <point x="155" y="614"/>
      <point x="158" y="630" type="curve"/>
      <point x="165" y="685" type="line"/>
      <point x="166" y="685" type="line"/>
      <point x="173" y="736" type="line"/>
      <point x="176" y="752"/>
      <point x="191" y="766"/>
      <point x="207" y="766" type="curve" smooth="yes"/>
      <point x="224" y="766"/>
      <point x="233" y="753"/>
      <point x="230" y="737" type="curve"/>
      <point x="222" y="680" type="line"/>
    </contour>
    <contour>
      <point x="345" y="624" type="line"/>
      <point x="354" y="689" type="line"/>
      <point x="358" y="711"/>
      <point x="345" y="728"/>
      <point x="322" y="728" type="curve" smooth="yes"/>
      <point x="318" y="728"/>
      <point x="315" y="727"/>
      <point x="311" y="726" type="curve"/>
      <point x="313" y="739" type="line"/>
      <point x="317" y="761"/>
      <point x="304" y="778"/>
      <point x="281" y="778" type="curve" smooth="yes"/>
      <point x="264" y="778"/>
      <point x="248" y="766"/>
      <point x="240" y="751" type="curve"/>
      <point x="238" y="766"/>
      <point x="225" y="776"/>
      <point x="208" y="776" type="curve" smooth="yes"/>
      <point x="186" y="776"/>
      <point x="167" y="757"/>
      <point x="163" y="736" type="curve"/>
      <point x="156" y="685" type="line"/>
      <point x="148" y="630" type="line"/>
      <point x="144" y="608"/>
      <point x="157" y="591"/>
      <point x="180" y="591" type="curve" smooth="yes"/>
      <point x="183" y="591"/>
      <point x="187" y="591"/>
      <point x="191" y="592" type="curve"/>
      <point x="189" y="580" type="line"/>
      <point x="185" y="558"/>
      <point x="198" y="541"/>
      <point x="221" y="541" type="curve" smooth="yes"/>
      <point x="236" y="541"/>
      <point x="253" y="553"/>
      <point x="260" y="567" type="curve"/>
      <point x="264" y="553"/>
      <point x="275" y="543"/>
      <point x="293" y="543" type="curve" smooth="yes"/>
      <point x="315" y="543"/>
      <point x="335" y="562"/>
      <point x="338" y="582" type="curve"/>
      <point x="345" y="634" type="line"/>
    </contour>
  </outline>
</glyph>
<glyph name="numbersign" format="1">
  <advance width="766"/>
  <unicode hex="0023"/>
  <outline>
    <contour>
      <point x="404" y="454" type="line"/>
      <point x="389" y="415"/>
      <point x="375" y="382"/>
      <point x="360" y="342" type="curve"/>
      <point x="396" y="334"/>
      <point x="425" y="327"/>
      <point x="464" y="319" type="curve"/>
      <point x="477" y="357"/>
      <point x="492" y="391"/>
      <point x="507" y="431" type="curve"/>
    </contour>
    <contour>
      <point x="720" y="446" type="line"/>
      <point x="735" y="440"/>
      <point x="740" y="423"/>
      <point x="731" y="408" type="curve" smooth="yes"/>
      <point x="725" y="397"/>
      <point x="713" y="388"/>
      <point x="700" y="388" type="curve" smooth="yes"/>
      <point x="698" y="388"/>
      <point x="694" y="388"/>
      <point x="693" y="389" type="curve"/>
      <point x="563" y="418" type="line"/>
      <point x="548" y="381"/>
      <point x="535" y="345"/>
      <point x="520" y="306" type="curve"/>
      <point x="570" y="296"/>
      <point x="618" y="283"/>
      <point x="668" y="273" type="curve" smooth="yes"/>
      <point x="683" y="269"/>
      <point x="689" y="251"/>
      <point x="680" y="235" type="curve"/>
      <point x="681" y="236" type="line"/>
      <point x="676" y="223"/>
      <point x="662" y="215"/>
      <point x="649" y="215" type="curve" smooth="yes"/>
      <point x="646" y="215"/>
      <point x="643" y="215"/>
      <point x="641" y="216" type="curve"/>
      <point x="497" y="248" type="line"/>
      <point x="443" y="112" type="line"/>
      <point x="436" y="98"/>
      <point x="423" y="89"/>
      <point x="410" y="89" type="curve" smooth="yes"/>
      <point x="407" y="89"/>
      <point x="403" y="89"/>
      <point x="401" y="91" type="curve"/>
      <point x="402" y="91" type="line"/>
      <point x="386" y="96"/>
      <point x="380" y="112"/>
      <point x="389" y="127" type="curve"/>
      <point x="388" y="126" type="line"/>
      <point x="406" y="173"/>
      <point x="423" y="213"/>
      <point x="440" y="260" type="curve"/>
      <point x="404" y="268"/>
      <point x="375" y="276"/>
      <point x="336" y="283" type="curve"/>
      <point x="315" y="226"/>
      <point x="290" y="167"/>
      <point x="269" y="110" type="curve" smooth="yes"/>
      <point x="264" y="98"/>
      <point x="250" y="89"/>
      <point x="237" y="89" type="curve" smooth="yes"/>
      <point x="233" y="89"/>
      <point x="230" y="89"/>
      <point x="227" y="91" type="curve" smooth="yes"/>
      <point x="220" y="93"/>
      <point x="215" y="98"/>
      <point x="213" y="106" type="curve"/>
      <point x="213" y="105" type="line"/>
      <point x="210" y="113"/>
      <point x="210" y="119"/>
      <point x="215" y="126" type="curve"/>
      <point x="282" y="296" type="line"/>
      <point x="261" y="300"/>
      <point x="245" y="304"/>
      <point x="226" y="308" type="curve"/>
      <point x="214" y="312"/>
      <point x="199" y="317"/>
      <point x="188" y="317" type="curve" smooth="yes"/>
      <point x="178" y="317"/>
      <point x="171" y="312"/>
      <point x="166" y="301" type="curve"/>
      <point x="159" y="290"/>
      <point x="147" y="281"/>
      <point x="134" y="281" type="curve" smooth="yes"/>
      <point x="131" y="281"/>
      <point x="127" y="281"/>
      <point x="123" y="283" type="curve" smooth="yes"/>
      <point x="118" y="286"/>
      <point x="113" y="291"/>
      <point x="110" y="299" type="curve" smooth="yes"/>
      <point x="108" y="305"/>
      <point x="108" y="311"/>
      <point x="113" y="321" type="curve" smooth="yes"/>
      <point x="132" y="357"/>
      <point x="162" y="376"/>
      <point x="200" y="376" type="curve" smooth="yes"/>
      <point x="215" y="376"/>
      <point x="231" y="373"/>
      <point x="249" y="366" type="curve"/>
      <point x="248" y="367" type="line"/>
      <point x="304" y="355" type="line"/>
      <point x="320" y="392"/>
      <point x="331" y="427"/>
      <point x="347" y="466" type="curve"/>
      <point x="323" y="471"/>
      <point x="304" y="477"/>
      <point x="278" y="482" type="curve"/>
      <point x="265" y="486"/>
      <point x="252" y="490"/>
      <point x="240" y="490" type="curve" smooth="yes"/>
      <point x="230" y="490"/>
      <point x="221" y="486"/>
      <point x="216" y="474" type="curve"/>
      <point x="209" y="463"/>
      <point x="198" y="455"/>
      <point x="185" y="455" type="curve" smooth="yes"/>
      <point x="182" y="455"/>
      <point x="179" y="455"/>
      <point x="176" y="457" type="curve"/>
      <point x="177" y="457" type="line"/>
      <point x="169" y="460"/>
      <point x="163" y="464"/>
      <point x="162" y="472" type="curve"/>
      <point x="162" y="471" type="line"/>
      <point x="158" y="479"/>
      <point x="159" y="485"/>
      <point x="161" y="490" type="curve"/>
      <point x="183" y="529"/>
      <point x="212" y="549"/>
      <point x="251" y="549" type="curve" smooth="yes"/>
      <point x="266" y="549"/>
      <point x="283" y="546"/>
      <point x="301" y="540" type="curve"/>
      <point x="300" y="540" type="line"/>
      <point x="370" y="525" type="line"/>
      <point x="375" y="537"/>
      <point x="379" y="545"/>
      <point x="383" y="558" type="curve"/>
      <point x="390" y="572"/>
      <point x="400" y="590"/>
      <point x="399" y="600" type="curve" smooth="yes"/>
      <point x="400" y="609"/>
      <point x="396" y="614"/>
      <point x="386" y="618" type="curve" smooth="yes"/>
      <point x="379" y="620"/>
      <point x="375" y="624"/>
      <point x="372" y="629" type="curve"/>
      <point x="371" y="638"/>
      <point x="371" y="647"/>
      <point x="375" y="655" type="curve"/>
      <point x="375" y="654" type="line"/>
      <point x="381" y="667"/>
      <point x="394" y="675"/>
      <point x="410" y="675" type="curve" smooth="yes"/>
      <point x="411" y="675"/>
      <point x="411" y="674"/>
      <point x="413" y="674" type="curve" smooth="yes"/>
      <point x="450" y="662"/>
      <point x="465" y="636"/>
      <point x="458" y="596" type="curve" smooth="yes"/>
      <point x="455" y="580"/>
      <point x="449" y="563"/>
      <point x="439" y="544" type="curve"/>
      <point x="440" y="545" type="line"/>
      <point x="426" y="513" type="line"/>
      <point x="464" y="505"/>
      <point x="492" y="496"/>
      <point x="530" y="488" type="curve"/>
      <point x="557" y="557" type="line"/>
      <point x="564" y="571"/>
      <point x="572" y="589"/>
      <point x="572" y="600" type="curve" smooth="yes"/>
      <point x="574" y="608"/>
      <point x="569" y="614"/>
      <point x="559" y="618" type="curve" smooth="yes"/>
      <point x="552" y="620"/>
      <point x="549" y="624"/>
      <point x="546" y="629" type="curve" smooth="yes"/>
      <point x="544" y="638"/>
      <point x="544" y="645"/>
      <point x="546" y="648" type="curve" smooth="yes"/>
      <point x="554" y="665"/>
      <point x="568" y="675"/>
      <point x="581" y="675" type="curve" smooth="yes"/>
      <point x="582" y="675"/>
      <point x="582" y="674"/>
      <point x="583" y="674" type="curve"/>
      <point x="586" y="674" type="line"/>
      <point x="623" y="662"/>
      <point x="638" y="636"/>
      <point x="631" y="596" type="curve" smooth="yes"/>
      <point x="628" y="580"/>
      <point x="622" y="563"/>
      <point x="613" y="544" type="curve"/>
      <point x="604" y="519"/>
      <point x="596" y="503"/>
      <point x="587" y="477" type="curve"/>
      <point x="718" y="447" type="line"/>
      <point x="717" y="447" type="line"/>
    </contour>
    <contour>
      <point x="756" y="408" type="line"/>
      <point x="743" y="411" type="line"/>
      <point x="749" y="430"/>
      <point x="742" y="449"/>
      <point x="723" y="456" type="curve"/>
      <point x="715" y="458" type="line"/>
      <point x="656" y="472" type="line"/>
      <point x="664" y="491" type="line"/>
      <point x="672" y="510"/>
      <point x="679" y="528"/>
      <point x="682" y="546" type="curve" smooth="yes"/>
      <point x="689" y="587"/>
      <point x="676" y="616"/>
      <point x="642" y="631" type="curve"/>
      <point x="637" y="657"/>
      <point x="620" y="674"/>
      <point x="591" y="684" type="curve"/>
      <point x="584" y="684" type="line"/>
      <point x="565" y="685"/>
      <point x="546" y="672"/>
      <point x="536" y="651" type="curve"/>
      <point x="537" y="651" type="line"/>
      <point x="534" y="646"/>
      <point x="534" y="635"/>
      <point x="538" y="621" type="curve" smooth="yes"/>
      <point x="540" y="616"/>
      <point x="547" y="611"/>
      <point x="556" y="608" type="curve"/>
      <point x="560" y="605"/>
      <point x="563" y="603"/>
      <point x="562" y="598" type="curve"/>
      <point x="562" y="589"/>
      <point x="553" y="570"/>
      <point x="545" y="554" type="curve"/>
      <point x="524" y="500" type="line"/>
      <point x="496" y="506" type="line"/>
      <point x="502" y="521"/>
      <point x="507" y="534"/>
      <point x="509" y="546" type="curve" smooth="yes"/>
      <point x="516" y="587"/>
      <point x="503" y="616"/>
      <point x="469" y="631" type="curve"/>
      <point x="464" y="657"/>
      <point x="447" y="674"/>
      <point x="418" y="684" type="curve"/>
      <point x="417" y="684"/>
      <point x="413" y="685"/>
      <point x="412" y="685" type="curve" smooth="yes"/>
      <point x="390" y="685"/>
      <point x="374" y="674"/>
      <point x="365" y="657" type="curve"/>
      <point x="367" y="658" type="line"/>
      <point x="361" y="649"/>
      <point x="361" y="635"/>
      <point x="364" y="621" type="curve"/>
      <point x="366" y="616"/>
      <point x="374" y="611"/>
      <point x="383" y="608" type="curve" smooth="yes"/>
      <point x="386" y="606"/>
      <point x="389" y="603"/>
      <point x="389" y="599" type="curve"/>
      <point x="389" y="598" type="line"/>
      <point x="389" y="589"/>
      <point x="380" y="571"/>
      <point x="373" y="557" type="curve" smooth="yes"/>
      <point x="371" y="553"/>
      <point x="370" y="547"/>
      <point x="365" y="537" type="curve"/>
      <point x="303" y="550" type="line"/>
      <point x="304" y="549" type="line"/>
      <point x="286" y="556"/>
      <point x="268" y="559"/>
      <point x="253" y="559" type="curve" smooth="yes"/>
      <point x="209" y="559"/>
      <point x="176" y="536"/>
      <point x="151" y="491" type="curve"/>
      <point x="149" y="485"/>
      <point x="148" y="477"/>
      <point x="153" y="466" type="curve"/>
      <point x="152" y="467" type="line"/>
      <point x="154" y="460"/>
      <point x="163" y="452"/>
      <point x="170" y="449" type="curve"/>
      <point x="174" y="445"/>
      <point x="178" y="445"/>
      <point x="183" y="445" type="curve" smooth="yes"/>
      <point x="187" y="445"/>
      <point x="191" y="446"/>
      <point x="195" y="447" type="curve"/>
      <point x="192" y="441" type="line"/>
      <point x="190" y="435"/>
      <point x="189" y="427"/>
      <point x="194" y="416" type="curve"/>
      <point x="193" y="417" type="line"/>
      <point x="195" y="410"/>
      <point x="204" y="402"/>
      <point x="211" y="399" type="curve"/>
      <point x="215" y="395"/>
      <point x="219" y="395"/>
      <point x="224" y="395" type="curve" smooth="yes"/>
      <point x="242" y="395"/>
      <point x="257" y="406"/>
      <point x="267" y="422" type="curve"/>
      <point x="269" y="428"/>
      <point x="274" y="430"/>
      <point x="279" y="430" type="curve" smooth="yes"/>
      <point x="287" y="430"/>
      <point x="301" y="426"/>
      <point x="314" y="422" type="curve"/>
      <point x="319" y="421" type="line"/>
      <point x="318" y="419"/>
      <point x="317" y="417"/>
      <point x="317" y="415" type="curve" smooth="yes"/>
      <point x="311" y="399"/>
      <point x="306" y="384"/>
      <point x="299" y="367" type="curve"/>
      <point x="252" y="377" type="line"/>
      <point x="253" y="376" type="line"/>
      <point x="234" y="383"/>
      <point x="217" y="386"/>
      <point x="202" y="386" type="curve" smooth="yes"/>
      <point x="159" y="386"/>
      <point x="125" y="365"/>
      <point x="104" y="324" type="curve" smooth="yes"/>
      <point x="98" y="312"/>
      <point x="97" y="303"/>
      <point x="101" y="295" type="curve" smooth="yes"/>
      <point x="104" y="285"/>
      <point x="111" y="278"/>
      <point x="118" y="274" type="curve" smooth="yes"/>
      <point x="123" y="271"/>
      <point x="128" y="271"/>
      <point x="132" y="271" type="curve" smooth="yes"/>
      <point x="136" y="271"/>
      <point x="140" y="271"/>
      <point x="144" y="273" type="curve"/>
      <point x="139" y="261"/>
      <point x="138" y="253"/>
      <point x="142" y="245" type="curve" smooth="yes"/>
      <point x="145" y="235"/>
      <point x="152" y="228"/>
      <point x="159" y="224" type="curve" smooth="yes"/>
      <point x="164" y="221"/>
      <point x="169" y="221"/>
      <point x="173" y="221" type="curve" smooth="yes"/>
      <point x="190" y="221"/>
      <point x="207" y="234"/>
      <point x="218" y="251" type="curve"/>
      <point x="219" y="255"/>
      <point x="224" y="257"/>
      <point x="228" y="257" type="curve" smooth="yes"/>
      <point x="236" y="257"/>
      <point x="245" y="254"/>
      <point x="254" y="251" type="curve"/>
      <point x="238" y="210"/>
      <point x="220" y="168"/>
      <point x="205" y="128" type="curve"/>
      <point x="200" y="119"/>
      <point x="201" y="111"/>
      <point x="203" y="101" type="curve" smooth="yes"/>
      <point x="206" y="91"/>
      <point x="212" y="84"/>
      <point x="222" y="81" type="curve"/>
      <point x="221" y="82" type="line"/>
      <point x="226" y="79"/>
      <point x="230" y="79"/>
      <point x="235" y="79" type="curve" smooth="yes"/>
      <point x="239" y="79"/>
      <point x="243" y="79"/>
      <point x="247" y="80" type="curve"/>
      <point x="246" y="78" type="line"/>
      <point x="242" y="69"/>
      <point x="242" y="61"/>
      <point x="244" y="51" type="curve" smooth="yes"/>
      <point x="247" y="41"/>
      <point x="253" y="34"/>
      <point x="263" y="31" type="curve"/>
      <point x="262" y="32" type="line"/>
      <point x="268" y="29"/>
      <point x="272" y="29"/>
      <point x="277" y="29" type="curve" smooth="yes"/>
      <point x="295" y="29"/>
      <point x="313" y="41"/>
      <point x="320" y="58" type="curve"/>
      <point x="330" y="86"/>
      <point x="341" y="115"/>
      <point x="353" y="144" type="curve"/>
      <point x="362" y="170"/>
      <point x="374" y="196"/>
      <point x="384" y="222" type="curve"/>
      <point x="413" y="216" type="line"/>
      <point x="398" y="179" type="line"/>
      <point x="392" y="162"/>
      <point x="384" y="145"/>
      <point x="378" y="128" type="curve"/>
      <point x="379" y="129" type="line"/>
      <point x="369" y="111"/>
      <point x="376" y="90"/>
      <point x="395" y="82" type="curve"/>
      <point x="399" y="78"/>
      <point x="403" y="79"/>
      <point x="408" y="79" type="curve" smooth="yes"/>
      <point x="412" y="79"/>
      <point x="416" y="79"/>
      <point x="420" y="81" type="curve"/>
      <point x="419" y="78" type="line"/>
      <point x="420" y="79" type="line"/>
      <point x="410" y="61"/>
      <point x="418" y="40"/>
      <point x="436" y="32" type="curve"/>
      <point x="440" y="28"/>
      <point x="445" y="29"/>
      <point x="450" y="29" type="curve" smooth="yes"/>
      <point x="467" y="29"/>
      <point x="484" y="43"/>
      <point x="496" y="65" type="curve"/>
      <point x="544" y="186" type="line"/>
      <point x="592" y="176"/>
      <point x="631" y="166"/>
      <point x="678" y="156" type="curve"/>
      <point x="677" y="157" type="line"/>
      <point x="683" y="155"/>
      <point x="686" y="155"/>
      <point x="689" y="155" type="curve" smooth="yes"/>
      <point x="707" y="155"/>
      <point x="725" y="166"/>
      <point x="732" y="184" type="curve"/>
      <point x="731" y="183" type="line"/>
      <point x="740" y="203"/>
      <point x="733" y="228"/>
      <point x="713" y="233" type="curve"/>
      <point x="705" y="234"/>
      <point x="698" y="235"/>
      <point x="691" y="237" type="curve"/>
      <point x="698" y="256"/>
      <point x="690" y="278"/>
      <point x="671" y="283" type="curve"/>
      <point x="646" y="288"/>
      <point x="621" y="293"/>
      <point x="597" y="299" type="curve"/>
      <point x="589" y="301" type="line"/>
      <point x="596" y="320"/>
      <point x="601" y="339"/>
      <point x="609" y="357" type="curve"/>
      <point x="652" y="348"/>
      <point x="688" y="338"/>
      <point x="730" y="329" type="curve"/>
      <point x="733" y="325"/>
      <point x="736" y="328"/>
      <point x="739" y="328" type="curve" smooth="yes"/>
      <point x="756" y="328"/>
      <point x="771" y="340"/>
      <point x="781" y="354" type="curve"/>
      <point x="793" y="375"/>
      <point x="786" y="398"/>
      <point x="764" y="406" type="curve"/>
    </contour>
    <contour>
      <point x="458" y="331" type="curve"/>
      <point x="429" y="337" type="line"/>
      <point x="434" y="351" type="line"/>
      <point x="439" y="365"/>
      <point x="445" y="378"/>
      <point x="451" y="392" type="curve"/>
      <point x="479" y="385" type="line"/>
      <point x="478" y="382" type="line"/>
      <point x="471" y="365"/>
      <point x="464" y="348"/>
    </contour>
  </outline>
</glyph>
<glyph name="dollar" format="1">
  <advance width="375"/>
  <unicode hex="0024"/>
  <outline>
    <contour>
      <point x="292" y="679" type="line"/>
      <point x="289" y="679"/>
      <point x="288" y="680"/>
      <point x="286" y="680" type="curve"/>
      <point x="287" y="686" type="line"/>
    </contour>
    <contour>
      <point x="236" y="392" type="line"/>
      <point x="286" y="680" type="line"/>
      <point x="280" y="680" type="line"/>
      <point x="274" y="680" type="line"/>
      <point x="224" y="392" type="line"/>
    </contour>
    <contour>
      <point x="290" y="304" type="line"/>
      <point x="289" y="305"/>
      <point x="289" y="305"/>
      <point x="289" y="306" type="curve"/>
      <point x="290" y="307" type="line"/>
    </contour>
    <contour>
      <point x="230" y="78" type="line"/>
      <point x="244" y="92"/>
      <point x="255" y="110"/>
      <point x="258" y="129" type="curve"/>
      <point x="289" y="306" type="line"/>
      <point x="286" y="317"/>
      <point x="282" y="326"/>
      <point x="275" y="332" type="curve"/>
    </contour>
    <contour>
      <point x="227" y="341" type="line"/>
      <point x="215" y="341" type="line"/>
      <point x="164" y="54" type="line"/>
      <point x="176" y="54" type="line"/>
    </contour>
    <contour>
      <point x="160" y="428" type="line"/>
      <point x="160" y="427"/>
      <point x="160" y="426"/>
      <point x="160" y="425" type="curve"/>
    </contour>
    <contour>
      <point x="160" y="425" type="line"/>
      <point x="164" y="415"/>
      <point x="167" y="407"/>
      <point x="175" y="401" type="curve"/>
      <point x="220" y="655" type="line"/>
      <point x="207" y="642"/>
      <point x="195" y="622"/>
      <point x="192" y="605" type="curve"/>
    </contour>
    <contour>
      <point x="331" y="542" type="line"/>
      <point x="342" y="605" type="line"/>
      <point x="345" y="623"/>
      <point x="341" y="642"/>
      <point x="332" y="655" type="curve"/>
      <point x="285" y="388" type="line"/>
      <point x="294" y="384"/>
      <point x="305" y="377"/>
      <point x="312" y="368" type="curve"/>
      <point x="326" y="352" type="line"/>
      <point x="336" y="331"/>
      <point x="340" y="306"/>
      <point x="335" y="276" type="curve"/>
      <point x="309" y="129" type="line"/>
      <point x="301" y="81"/>
      <point x="264" y="37"/>
      <point x="219" y="17" type="curve"/>
      <point x="208" y="-49" type="line"/>
      <point x="205" y="-63"/>
      <point x="192" y="-74"/>
      <point x="177" y="-74" type="curve" smooth="yes"/>
      <point x="164" y="-74"/>
      <point x="155" y="-63"/>
      <point x="158" y="-49" type="curve"/>
      <point x="167" y="3" type="line"/>
      <point x="161" y="3" type="line"/>
      <point x="157" y="3"/>
      <point x="159" y="2"/>
      <point x="155" y="3" type="curve"/>
      <point x="146" y="-49" type="line"/>
      <point x="143" y="-63"/>
      <point x="131" y="-74"/>
      <point x="116" y="-74" type="curve" smooth="yes"/>
      <point x="102" y="-74"/>
      <point x="93" y="-63"/>
      <point x="96" y="-49" type="curve"/>
      <point x="107" y="17" type="line"/>
      <point x="71" y="37"/>
      <point x="50" y="81"/>
      <point x="58" y="129" type="curve"/>
      <point x="65" y="170" type="line"/>
      <point x="115" y="170" type="line"/>
      <point x="108" y="129" type="line"/>
      <point x="105" y="109"/>
      <point x="110" y="92"/>
      <point x="118" y="79" type="curve"/>
      <point x="165" y="345" type="line"/>
      <point x="159" y="348"/>
      <point x="144" y="357"/>
      <point x="140" y="361" type="curve"/>
      <point x="127" y="380" type="line"/>
      <point x="115" y="398"/>
      <point x="112" y="422"/>
      <point x="114" y="448" type="curve"/>
      <point x="142" y="605" type="line"/>
      <point x="151" y="653"/>
      <point x="187" y="696"/>
      <point x="231" y="717" type="curve"/>
      <point x="242" y="782" type="line"/>
      <point x="245" y="797"/>
      <point x="258" y="808"/>
      <point x="272" y="808" type="curve" smooth="yes"/>
      <point x="287" y="808"/>
      <point x="295" y="797"/>
      <point x="292" y="782" type="curve"/>
      <point x="283" y="731" type="line"/>
      <point x="289" y="731" type="line"/>
      <point x="293" y="731"/>
      <point x="291" y="732"/>
      <point x="295" y="731" type="curve"/>
      <point x="304" y="782" type="line"/>
      <point x="307" y="797"/>
      <point x="320" y="808"/>
      <point x="333" y="808" type="curve" smooth="yes"/>
      <point x="348" y="808"/>
      <point x="357" y="797"/>
      <point x="354" y="782" type="curve"/>
      <point x="343" y="717" type="line"/>
      <point x="380" y="696"/>
      <point x="402" y="653"/>
      <point x="393" y="605" type="curve"/>
      <point x="382" y="542" type="line"/>
    </contour>
    <contour>
      <point x="431" y="482" type="line"/>
      <point x="444" y="555" type="line"/>
      <point x="453" y="604"/>
      <point x="434" y="649"/>
      <point x="397" y="673" type="curve" smooth="yes"/>
      <point x="396" y="674"/>
      <point x="396" y="675"/>
      <point x="396" y="676" type="curve"/>
      <point x="406" y="732" type="line"/>
      <point x="409" y="753"/>
      <point x="397" y="768"/>
      <point x="376" y="768" type="curve" smooth="yes"/>
      <point x="371" y="768"/>
      <point x="366" y="767"/>
      <point x="361" y="765" type="curve"/>
      <point x="364" y="782" type="line"/>
      <point x="368" y="803"/>
      <point x="356" y="818"/>
      <point x="335" y="818" type="curve" smooth="yes"/>
      <point x="322" y="818"/>
      <point x="310" y="811"/>
      <point x="302" y="800" type="curve"/>
      <point x="298" y="811"/>
      <point x="288" y="818"/>
      <point x="274" y="818" type="curve" smooth="yes"/>
      <point x="254" y="818"/>
      <point x="236" y="803"/>
      <point x="232" y="782" type="curve"/>
      <point x="222" y="723" type="line"/>
      <point x="177" y="699"/>
      <point x="141" y="656"/>
      <point x="132" y="605" type="curve"/>
      <point x="104" y="447" type="line"/>
      <point x="101" y="419"/>
      <point x="105" y="393"/>
      <point x="117" y="374" type="curve"/>
      <point x="132" y="354" type="line"/>
      <point x="135" y="350"/>
      <point x="143" y="344"/>
      <point x="150" y="340" type="curve"/>
      <point x="151" y="337"/>
      <point x="152" y="335"/>
      <point x="153" y="333" type="curve"/>
      <point x="126" y="180" type="line"/>
      <point x="57" y="180" type="line"/>
      <point x="48" y="129" type="line"/>
      <point x="39" y="78"/>
      <point x="58" y="35"/>
      <point x="95" y="12" type="curve"/>
      <point x="96" y="9" type="line"/>
      <point x="86" y="-49" type="line"/>
      <point x="82" y="-69"/>
      <point x="95" y="-84"/>
      <point x="115" y="-84" type="curve" smooth="yes"/>
      <point x="120" y="-84"/>
      <point x="125" y="-83"/>
      <point x="130" y="-81" type="curve"/>
      <point x="127" y="-99" type="line"/>
      <point x="124" y="-119"/>
      <point x="136" y="-134"/>
      <point x="156" y="-134" type="curve" smooth="yes"/>
      <point x="170" y="-134"/>
      <point x="182" y="-127"/>
      <point x="190" y="-116" type="curve"/>
      <point x="194" y="-127"/>
      <point x="204" y="-134"/>
      <point x="217" y="-134" type="curve" smooth="yes"/>
      <point x="238" y="-134"/>
      <point x="256" y="-119"/>
      <point x="259" y="-99" type="curve"/>
      <point x="270" y="-39" type="line"/>
      <point x="317" y="-16"/>
      <point x="351" y="28"/>
      <point x="360" y="79" type="curve"/>
      <point x="386" y="226" type="line"/>
      <point x="392" y="258"/>
      <point x="387" y="285"/>
      <point x="376" y="308" type="curve"/>
      <point x="362" y="325" type="line"/>
      <point x="356" y="332"/>
      <point x="348" y="338"/>
      <point x="341" y="343" type="curve"/>
      <point x="340" y="345"/>
      <point x="339" y="347"/>
      <point x="338" y="350" type="curve"/>
      <point x="361" y="482" type="line"/>
    </contour>
  </outline>
</glyph>
<glyph name="percent" format="1">
  <advance width="577"/>
  <unicode hex="0025"/>
  <outline>
    <contour>
      <point x="473" y="725" type="curve" smooth="yes"/>
      <point x="507" y="705"/>
      <point x="517" y="678"/>
      <point x="511" y="644" type="curve" smooth="yes"/>
      <point x="507" y="620"/>
      <point x="493" y="593"/>
      <point x="475" y="566" type="curve"/>
      <point x="476" y="567" type="line"/>
      <point x="176" y="16" type="line"/>
      <point x="168" y="2"/>
      <point x="152" y="-3"/>
      <point x="140" y="4" type="curve" smooth="yes"/>
      <point x="129" y="11"/>
      <point x="128" y="25"/>
      <point x="134" y="38" type="curve"/>
      <point x="133" y="37" type="line"/>
      <point x="430" y="583" type="line"/>
      <point x="446" y="606"/>
      <point x="458" y="626"/>
      <point x="461" y="644" type="curve" smooth="yes"/>
      <point x="464" y="659"/>
      <point x="459" y="670"/>
      <point x="442" y="679" type="curve" smooth="yes"/>
      <point x="431" y="686"/>
      <point x="428" y="700"/>
      <point x="437" y="713" type="curve" smooth="yes"/>
      <point x="446" y="727"/>
      <point x="463" y="732"/>
    </contour>
    <contour>
      <point x="402" y="69" type="curve" smooth="yes"/>
      <point x="430" y="69"/>
      <point x="456" y="92"/>
      <point x="460" y="119" type="curve"/>
      <point x="482" y="243" type="line"/>
      <point x="487" y="270"/>
      <point x="469" y="292"/>
      <point x="441" y="292" type="curve" smooth="yes"/>
      <point x="414" y="292"/>
      <point x="388" y="270"/>
      <point x="383" y="243" type="curve"/>
      <point x="361" y="119" type="line"/>
      <point x="357" y="92"/>
      <point x="375" y="69"/>
    </contour>
    <contour>
      <point x="451" y="346" type="curve" smooth="yes"/>
      <point x="509" y="346"/>
      <point x="546" y="299"/>
      <point x="536" y="243" type="curve"/>
      <point x="514" y="119" type="line"/>
      <point x="504" y="61"/>
      <point x="450" y="16"/>
      <point x="392" y="16" type="curve" smooth="yes"/>
      <point x="336" y="16"/>
      <point x="298" y="61"/>
      <point x="308" y="119" type="curve"/>
      <point x="330" y="243" type="line"/>
      <point x="340" y="299"/>
      <point x="395" y="346"/>
    </contour>
    <contour>
      <point x="201" y="396" type="curve" smooth="yes"/>
      <point x="229" y="396"/>
      <point x="255" y="419"/>
      <point x="260" y="446" type="curve"/>
      <point x="282" y="570" type="line"/>
      <point x="287" y="597"/>
      <point x="269" y="620"/>
      <point x="241" y="620" type="curve" smooth="yes"/>
      <point x="214" y="620"/>
      <point x="188" y="597"/>
      <point x="183" y="570" type="curve"/>
      <point x="161" y="446" type="line"/>
      <point x="156" y="419"/>
      <point x="174" y="396"/>
    </contour>
    <contour>
      <point x="314" y="446" type="line"/>
      <point x="304" y="389"/>
      <point x="250" y="343"/>
      <point x="192" y="343" type="curve" smooth="yes"/>
      <point x="136" y="343"/>
      <point x="98" y="389"/>
      <point x="108" y="446" type="curve"/>
      <point x="130" y="570" type="line"/>
      <point x="140" y="626"/>
      <point x="194" y="672"/>
      <point x="250" y="672" type="curve" smooth="yes"/>
      <point x="308" y="672"/>
      <point x="346" y="626"/>
      <point x="336" y="570" type="curve"/>
    </contour>
    <contour>
      <point x="452" y="356" type="curve" smooth="yes"/>
      <point x="448" y="356"/>
      <point x="443" y="355"/>
      <point x="439" y="355" type="curve"/>
      <point x="526" y="514" type="line"/>
      <point x="526" y="513" type="line"/>
      <point x="544" y="541"/>
      <point x="558" y="569"/>
      <point x="562" y="594" type="curve" smooth="yes"/>
      <point x="569" y="632"/>
      <point x="558" y="662"/>
      <point x="521" y="684" type="curve"/>
      <point x="520" y="684" type="line"/>
      <point x="515" y="703"/>
      <point x="502" y="720"/>
      <point x="480" y="734" type="curve" smooth="yes"/>
      <point x="465" y="744"/>
      <point x="440" y="737"/>
      <point x="429" y="717" type="curve"/>
      <point x="429" y="718" type="line"/>
      <point x="416" y="699"/>
      <point x="420" y="680"/>
      <point x="436" y="670" type="curve" smooth="yes"/>
      <point x="448" y="663"/>
      <point x="453" y="655"/>
      <point x="451" y="644" type="curve" smooth="yes"/>
      <point x="448" y="628"/>
      <point x="439" y="612"/>
      <point x="426" y="593" type="curve"/>
      <point x="388" y="522" type="line"/>
      <point x="394" y="564"/>
      <point x="375" y="601"/>
      <point x="343" y="620" type="curve"/>
      <point x="330" y="656"/>
      <point x="297" y="682"/>
      <point x="252" y="682" type="curve" smooth="yes"/>
      <point x="191" y="682"/>
      <point x="131" y="631"/>
      <point x="120" y="570" type="curve"/>
      <point x="98" y="446" type="line"/>
      <point x="90" y="401"/>
      <point x="109" y="363"/>
      <point x="142" y="345" type="curve"/>
      <point x="154" y="308"/>
      <point x="188" y="283"/>
      <point x="231" y="283" type="curve" smooth="yes"/>
      <point x="240" y="283"/>
      <point x="250" y="284"/>
      <point x="259" y="286" type="curve"/>
      <point x="121" y="34" type="line"/>
      <point x="116" y="21"/>
      <point x="119" y="4"/>
      <point x="134" y="-5" type="curve" smooth="yes"/>
      <point x="145" y="-11"/>
      <point x="158" y="-11"/>
      <point x="169" y="-4" type="curve"/>
      <point x="163" y="-16" type="line"/>
      <point x="157" y="-29"/>
      <point x="160" y="-46"/>
      <point x="175" y="-55" type="curve" smooth="yes"/>
      <point x="191" y="-65"/>
      <point x="214" y="-58"/>
      <point x="226" y="-38" type="curve"/>
      <point x="297" y="93" type="line"/>
      <point x="298" y="60"/>
      <point x="315" y="32"/>
      <point x="342" y="18" type="curve"/>
      <point x="354" y="-19"/>
      <point x="388" y="-44"/>
      <point x="432" y="-44" type="curve" smooth="yes"/>
      <point x="496" y="-44"/>
      <point x="554" y="5"/>
      <point x="566" y="69" type="curve"/>
      <point x="588" y="193" type="line"/>
      <point x="595" y="236"/>
      <point x="577" y="274"/>
      <point x="543" y="293" type="curve"/>
      <point x="531" y="330"/>
      <point x="497" y="356"/>
    </contour>
    <contour>
      <point x="214" y="407" type="curve"/>
      <point x="234" y="520" type="line"/>
      <point x="237" y="538"/>
      <point x="252" y="554"/>
      <point x="270" y="558" type="curve"/>
      <point x="250" y="446" type="line"/>
      <point x="247" y="428"/>
      <point x="231" y="412"/>
    </contour>
    <contour>
      <point x="415" y="80" type="curve"/>
      <point x="435" y="193" type="line"/>
      <point x="438" y="210"/>
      <point x="452" y="226"/>
      <point x="470" y="230" type="curve"/>
      <point x="450" y="119" type="line"/>
      <point x="447" y="101"/>
      <point x="431" y="85"/>
    </contour>
  </outline>
</glyph>
<glyph name="ampersand" format="1">
  <advance width="526"/>
  <unicode hex="0026"/>
  <outline>
    <contour>
      <point x="210" y="55" type="curve" smooth="yes"/>
      <point x="250" y="55"/>
      <point x="288" y="87"/>
      <point x="295" y="126" type="curve"/>
      <point x="326" y="305" type="line"/>
      <point x="183" y="305" type="line"/>
      <point x="152" y="126" type="line"/>
      <point x="145" y="87"/>
      <point x="171" y="55"/>
    </contour>
    <contour>
      <point x="496" y="423" type="curve" smooth="yes"/>
      <point x="486" y="365"/>
      <point x="439" y="316"/>
      <point x="383" y="307" type="curve"/>
      <point x="351" y="126" type="line"/>
      <point x="339" y="57"/>
      <point x="270" y="-1"/>
      <point x="200" y="-1" type="curve" smooth="yes"/>
      <point x="131" y="-1"/>
      <point x="84" y="57"/>
      <point x="96" y="126" type="curve"/>
      <point x="125" y="307" type="line"/>
      <point x="115" y="311"/>
      <point x="110" y="321"/>
      <point x="112" y="333" type="curve" smooth="yes"/>
      <point x="114" y="344"/>
      <point x="126" y="355"/>
      <point x="137" y="359" type="curve"/>
      <point x="179" y="598" type="line"/>
      <point x="191" y="668"/>
      <point x="259" y="725"/>
      <point x="328" y="725" type="curve" smooth="yes"/>
      <point x="398" y="725"/>
      <point x="446" y="668"/>
      <point x="434" y="598" type="curve"/>
      <point x="424" y="541" type="line"/>
      <point x="414" y="485"/>
      <point x="397" y="442"/>
      <point x="286" y="442" type="curve" smooth="yes"/>
      <point x="270" y="442"/>
      <point x="261" y="454"/>
      <point x="263" y="469" type="curve" smooth="yes"/>
      <point x="266" y="486"/>
      <point x="280" y="497"/>
      <point x="298" y="497" type="curve" smooth="yes"/>
      <point x="356" y="497"/>
      <point x="364" y="519"/>
      <point x="369" y="547" type="curve"/>
      <point x="378" y="598" type="line"/>
      <point x="385" y="638"/>
      <point x="359" y="670"/>
      <point x="319" y="670" type="curve" smooth="yes"/>
      <point x="280" y="670"/>
      <point x="242" y="638"/>
      <point x="235" y="598" type="curve"/>
      <point x="193" y="361" type="line"/>
      <point x="367" y="361" type="line"/>
      <point x="401" y="361"/>
      <point x="434" y="389"/>
      <point x="440" y="423" type="curve" smooth="yes"/>
      <point x="443" y="437"/>
      <point x="459" y="451"/>
      <point x="473" y="451" type="curve" smooth="yes"/>
      <point x="489" y="451"/>
      <point x="499" y="437"/>
    </contour>
    <contour>
      <point x="547" y="373" type="curve" smooth="yes"/>
      <point x="551" y="392"/>
      <point x="538" y="411"/>
      <point x="516" y="411" type="curve" smooth="yes"/>
      <point x="511" y="411"/>
      <point x="507" y="410"/>
      <point x="502" y="408" type="curve"/>
      <point x="504" y="413"/>
      <point x="505" y="418"/>
      <point x="506" y="423" type="curve" smooth="yes"/>
      <point x="509" y="442"/>
      <point x="497" y="461"/>
      <point x="475" y="461" type="curve" smooth="yes"/>
      <point x="473" y="461"/>
      <point x="470" y="461"/>
      <point x="468" y="460" type="curve"/>
      <point x="470" y="470"/>
      <point x="473" y="480"/>
      <point x="475" y="491" type="curve"/>
      <point x="485" y="548" type="line"/>
      <point x="494" y="598"/>
      <point x="474" y="641"/>
      <point x="438" y="665" type="curve"/>
      <point x="421" y="707"/>
      <point x="381" y="735"/>
      <point x="330" y="735" type="curve" smooth="yes"/>
      <point x="256" y="735"/>
      <point x="182" y="674"/>
      <point x="169" y="598" type="curve"/>
      <point x="128" y="365" type="line"/>
      <point x="115" y="359"/>
      <point x="105" y="347"/>
      <point x="102" y="333" type="curve" smooth="yes"/>
      <point x="100" y="318"/>
      <point x="103" y="307"/>
      <point x="114" y="301" type="curve"/>
      <point x="86" y="126" type="line"/>
      <point x="77" y="76"/>
      <point x="97" y="32"/>
      <point x="134" y="8" type="curve"/>
      <point x="151" y="-33"/>
      <point x="190" y="-61"/>
      <point x="240" y="-61" type="curve" smooth="yes"/>
      <point x="315" y="-61"/>
      <point x="389" y="2"/>
      <point x="402" y="76" type="curve"/>
      <point x="432" y="249" type="line"/>
      <point x="493" y="261"/>
      <point x="537" y="312"/>
    </contour>
    <contour>
      <point x="212" y="65" type="curve"/>
      <point x="201" y="65" type="line"/>
      <point x="203" y="76" type="line"/>
      <point x="233" y="245" type="line"/>
      <point x="306" y="245" type="line"/>
      <point x="285" y="126" type="line"/>
      <point x="279" y="92"/>
      <point x="246" y="65"/>
    </contour>
    <contour>
      <point x="368" y="598" type="curve"/>
      <point x="359" y="547" type="line"/>
      <point x="355" y="525"/>
      <point x="349" y="507"/>
      <point x="300" y="507" type="curve" smooth="yes"/>
      <point x="292" y="507"/>
      <point x="285" y="505"/>
      <point x="278" y="502" type="curve"/>
      <point x="286" y="548" type="line"/>
      <point x="292" y="582"/>
      <point x="324" y="610"/>
      <point x="358" y="610" type="curve" smooth="yes"/>
      <point x="361" y="610"/>
      <point x="365" y="609"/>
      <point x="369" y="609" type="curve"/>
      <point x="368" y="605"/>
      <point x="368" y="601"/>
    </contour>
    <contour>
      <point x="369" y="371" type="curve"/>
      <point x="255" y="371" type="line"/>
      <point x="266" y="436" type="line"/>
      <point x="271" y="433"/>
      <point x="278" y="432"/>
      <point x="285" y="432" type="curve"/>
      <point x="299" y="432" type="line"/>
      <point x="296" y="428"/>
      <point x="295" y="424"/>
      <point x="294" y="419" type="curve" smooth="yes"/>
      <point x="291" y="398"/>
      <point x="304" y="382"/>
      <point x="326" y="382" type="curve" smooth="yes"/>
      <point x="368" y="382"/>
      <point x="398" y="388"/>
      <point x="420" y="398" type="curve"/>
      <point x="408" y="382"/>
      <point x="389" y="371"/>
    </contour>
  </outline>
</glyph>
<glyph name="quotesingle" format="1">
  <advance width="223"/>
  <unicode hex="0027"/>
  <outline>
    <contour>
      <point x="193" y="594" type="curve" smooth="yes"/>
      <point x="174" y="594"/>
      <point x="164" y="608"/>
      <point x="167" y="626" type="curve"/>
      <point x="174" y="680" type="line"/>
      <point x="175" y="680" type="line"/>
      <point x="182" y="731" type="line"/>
      <point x="185" y="748"/>
      <point x="202" y="763"/>
      <point x="219" y="763" type="curve" smooth="yes"/>
      <point x="237" y="763"/>
      <point x="248" y="749"/>
      <point x="245" y="732" type="curve"/>
      <point x="237" y="677" type="line"/>
      <point x="236" y="677" type="line"/>
      <point x="229" y="626" type="line"/>
      <point x="226" y="610"/>
      <point x="209" y="594"/>
    </contour>
    <contour>
      <point x="233" y="534" type="curve" smooth="yes"/>
      <point x="254" y="534"/>
      <point x="276" y="555"/>
      <point x="280" y="576" type="curve"/>
      <point x="287" y="627" type="line"/>
      <point x="296" y="682" type="line"/>
      <point x="300" y="704"/>
      <point x="286" y="723"/>
      <point x="262" y="723" type="curve" smooth="yes"/>
      <point x="259" y="723"/>
      <point x="256" y="722"/>
      <point x="253" y="722" type="curve"/>
      <point x="255" y="732" type="line"/>
      <point x="258" y="754"/>
      <point x="245" y="773"/>
      <point x="221" y="773" type="curve" smooth="yes"/>
      <point x="199" y="773"/>
      <point x="176" y="753"/>
      <point x="172" y="731" type="curve"/>
      <point x="165" y="680" type="line"/>
      <point x="157" y="626" type="line"/>
      <point x="153" y="602"/>
      <point x="166" y="584"/>
      <point x="191" y="584" type="curve" smooth="yes"/>
      <point x="193" y="584"/>
      <point x="196" y="584"/>
      <point x="200" y="585" type="curve"/>
      <point x="198" y="576" type="line"/>
      <point x="194" y="552"/>
      <point x="208" y="534"/>
    </contour>
  </outline>
</glyph>
<glyph name="parenleft" format="1">
  <advance width="339"/>
  <unicode hex="0028"/>
  <outline>
    <contour>
      <point x="127" y="0" type="line"/>
      <point x="115" y="0"/>
      <point x="104" y="10"/>
      <point x="102" y="22" type="curve" smooth="yes"/>
      <point x="101" y="39"/>
      <point x="93" y="222"/>
      <point x="117" y="362" type="curve" smooth="yes"/>
      <point x="145" y="521"/>
      <point x="219" y="697"/>
      <point x="222" y="703" type="curve"/>
      <point x="222" y="702" type="line"/>
      <point x="228" y="716"/>
      <point x="241" y="725"/>
      <point x="254" y="725" type="curve"/>
      <point x="334" y="725" type="line"/>
      <point x="349" y="725"/>
      <point x="360" y="711"/>
      <point x="357" y="697" type="curve" smooth="yes"/>
      <point x="354" y="680"/>
      <point x="339" y="668"/>
      <point x="324" y="668" type="curve"/>
      <point x="266" y="668" type="line"/>
      <point x="246" y="617"/>
      <point x="195" y="481"/>
      <point x="174" y="362" type="curve" smooth="yes"/>
      <point x="155" y="250"/>
      <point x="157" y="107"/>
      <point x="159" y="57" type="curve"/>
      <point x="217" y="57" type="line"/>
      <point x="232" y="57"/>
      <point x="242" y="43"/>
      <point x="239" y="28" type="curve" smooth="yes"/>
      <point x="237" y="13"/>
      <point x="222" y="0"/>
      <point x="207" y="0" type="curve"/>
    </contour>
    <contour>
      <point x="125" y="-10" type="curve"/>
      <point x="132" y="-10" type="line"/>
      <point x="132" y="-16"/>
      <point x="132" y="-21"/>
      <point x="132" y="-23" type="curve" smooth="yes"/>
      <point x="136" y="-43"/>
      <point x="150" y="-60"/>
      <point x="166" y="-60" type="curve"/>
      <point x="246" y="-60" type="line"/>
      <point x="266" y="-60"/>
      <point x="287" y="-42"/>
      <point x="291" y="-22" type="curve" smooth="yes"/>
      <point x="294" y="-2"/>
      <point x="279" y="17"/>
      <point x="259" y="17" type="curve"/>
      <point x="245" y="17" type="line"/>
      <point x="247" y="20"/>
      <point x="249" y="24"/>
      <point x="249" y="28" type="curve" smooth="yes"/>
      <point x="253" y="48"/>
      <point x="238" y="67"/>
      <point x="218" y="67" type="curve"/>
      <point x="208" y="67" type="line"/>
      <point x="208" y="132"/>
      <point x="211" y="230"/>
      <point x="226" y="312" type="curve" smooth="yes"/>
      <point x="243" y="411"/>
      <point x="290" y="545"/>
      <point x="314" y="608" type="curve"/>
      <point x="364" y="608" type="line"/>
      <point x="384" y="608"/>
      <point x="405" y="624"/>
      <point x="409" y="647" type="curve" smooth="yes"/>
      <point x="412" y="666"/>
      <point x="397" y="685"/>
      <point x="377" y="685" type="curve"/>
      <point x="363" y="685" type="line"/>
      <point x="365" y="688"/>
      <point x="367" y="693"/>
      <point x="367" y="697" type="curve" smooth="yes"/>
      <point x="371" y="716"/>
      <point x="356" y="735"/>
      <point x="336" y="735" type="curve"/>
      <point x="256" y="735" type="line"/>
      <point x="239" y="735"/>
      <point x="221" y="722"/>
      <point x="213" y="704" type="curve" smooth="yes"/>
      <point x="206" y="691"/>
      <point x="135" y="518"/>
      <point x="107" y="362" type="curve" smooth="yes"/>
      <point x="82" y="219"/>
      <point x="90" y="43"/>
      <point x="91" y="27" type="curve"/>
      <point x="95" y="7"/>
      <point x="109" y="-10"/>
    </contour>
  </outline>
</glyph>
<glyph name="parenright" format="1">
  <advance width="308"/>
  <unicode hex="0029"/>
  <outline>
    <contour>
      <point x="103" y="-60" type="line"/>
      <point x="84" y="-60"/>
      <point x="70" y="-43"/>
      <point x="73" y="-25" type="curve" smooth="yes"/>
      <point x="74" y="-19"/>
      <point x="76" y="-14"/>
      <point x="79" y="-10" type="curve"/>
      <point x="62" y="-10" type="line"/>
      <point x="43" y="-10"/>
      <point x="29" y="7"/>
      <point x="32" y="25" type="curve" smooth="yes"/>
      <point x="36" y="46"/>
      <point x="55" y="62"/>
      <point x="74" y="62" type="curve"/>
      <point x="126" y="62" type="line"/>
      <point x="151" y="127"/>
      <point x="201" y="267"/>
      <point x="218" y="363" type="curve" smooth="yes"/>
      <point x="233" y="451"/>
      <point x="235" y="549"/>
      <point x="235" y="615" type="curve"/>
      <point x="222" y="615" type="line"/>
      <point x="203" y="615"/>
      <point x="189" y="632"/>
      <point x="192" y="651" type="curve" smooth="yes"/>
      <point x="193" y="656"/>
      <point x="195" y="660"/>
      <point x="198" y="665" type="curve"/>
      <point x="181" y="665" type="line"/>
      <point x="162" y="665"/>
      <point x="148" y="682"/>
      <point x="151" y="701" type="curve" smooth="yes"/>
      <point x="154" y="720"/>
      <point x="174" y="737"/>
      <point x="193" y="737" type="curve"/>
      <point x="273" y="737" type="line"/>
      <point x="289" y="737"/>
      <point x="302" y="724"/>
      <point x="305" y="710" type="curve"/>
      <point x="307" y="687" type="line"/>
      <point x="315" y="687" type="line"/>
      <point x="331" y="687"/>
      <point x="343" y="674"/>
      <point x="346" y="660" type="curve" smooth="yes"/>
      <point x="348" y="639"/>
      <point x="358" y="468"/>
      <point x="331" y="313" type="curve" smooth="yes"/>
      <point x="305" y="168"/>
      <point x="231" y="-17"/>
      <point x="224" y="-34" type="curve" smooth="yes"/>
      <point x="217" y="-48"/>
      <point x="200" y="-60"/>
      <point x="183" y="-60" type="curve"/>
    </contour>
    <contour>
      <point x="144" y="0" type="line"/>
      <point x="156" y="0"/>
      <point x="168" y="9"/>
      <point x="173" y="19" type="curve" smooth="yes"/>
      <point x="180" y="36"/>
      <point x="254" y="221"/>
      <point x="280" y="363" type="curve" smooth="yes"/>
      <point x="307" y="519"/>
      <point x="296" y="693"/>
      <point x="294" y="707" type="curve" smooth="yes"/>
      <point x="293" y="718"/>
      <point x="284" y="727"/>
      <point x="272" y="727" type="curve"/>
      <point x="192" y="727" type="line"/>
      <point x="178" y="727"/>
      <point x="164" y="715"/>
      <point x="161" y="701" type="curve" smooth="yes"/>
      <point x="159" y="687"/>
      <point x="169" y="675"/>
      <point x="183" y="675" type="curve"/>
      <point x="243" y="675" type="line"/>
      <point x="246" y="627"/>
      <point x="249" y="487"/>
      <point x="228" y="363" type="curve" smooth="yes"/>
      <point x="208" y="250"/>
      <point x="153" y="103"/>
      <point x="133" y="52" type="curve"/>
      <point x="73" y="52" type="line"/>
      <point x="59" y="52"/>
      <point x="45" y="40"/>
      <point x="42" y="25" type="curve" smooth="yes"/>
      <point x="40" y="12"/>
      <point x="50" y="0"/>
      <point x="64" y="0" type="curve"/>
    </contour>
  </outline>
</glyph>
<glyph name="asterisk" format="1">
  <advance width="657"/>
  <unicode hex="002A"/>
  <outline>
    <contour>
      <point x="646" y="508" type="line"/>
      <point x="660" y="508"/>
      <point x="670" y="496"/>
      <point x="667" y="482" type="curve" smooth="yes"/>
      <point x="665" y="468"/>
      <point x="651" y="456"/>
      <point x="637" y="456" type="curve"/>
      <point x="445" y="456" type="line"/>
      <point x="557" y="320" type="line"/>
      <point x="564" y="310"/>
      <point x="561" y="293"/>
      <point x="551" y="284" type="curve" smooth="yes"/>
      <point x="545" y="280"/>
      <point x="537" y="277"/>
      <point x="531" y="277" type="curve" smooth="yes"/>
      <point x="524" y="277"/>
      <point x="518" y="280"/>
      <point x="514" y="284" type="curve"/>
      <point x="403" y="420" type="line"/>
      <point x="369" y="228" type="line"/>
      <point x="366" y="214"/>
      <point x="353" y="203"/>
      <point x="338" y="203" type="curve" smooth="yes"/>
      <point x="324" y="203"/>
      <point x="315" y="214"/>
      <point x="318" y="228" type="curve"/>
      <point x="352" y="420" type="line"/>
      <point x="193" y="285" type="line"/>
      <point x="188" y="281"/>
      <point x="179" y="277"/>
      <point x="172" y="277" type="curve" smooth="yes"/>
      <point x="165" y="277"/>
      <point x="159" y="280"/>
      <point x="156" y="284" type="curve" smooth="yes"/>
      <point x="152" y="288"/>
      <point x="151" y="295"/>
      <point x="152" y="302" type="curve" smooth="yes"/>
      <point x="153" y="311"/>
      <point x="157" y="315"/>
      <point x="161" y="320" type="curve"/>
      <point x="322" y="456" type="line"/>
      <point x="130" y="456" type="line"/>
      <point x="115" y="456"/>
      <point x="106" y="468"/>
      <point x="108" y="482" type="curve" smooth="yes"/>
      <point x="111" y="496"/>
      <point x="124" y="508"/>
      <point x="139" y="508" type="curve"/>
      <point x="331" y="508" type="line"/>
      <point x="218" y="644" type="line"/>
      <point x="216" y="649"/>
      <point x="214" y="653"/>
      <point x="215" y="661" type="curve" smooth="yes"/>
      <point x="216" y="668"/>
      <point x="221" y="675"/>
      <point x="225" y="679" type="curve" smooth="yes"/>
      <point x="230" y="684"/>
      <point x="238" y="687"/>
      <point x="245" y="687" type="curve" smooth="yes"/>
      <point x="252" y="687"/>
      <point x="259" y="683"/>
      <point x="262" y="678" type="curve"/>
      <point x="373" y="544" type="line"/>
      <point x="407" y="735" type="line"/>
      <point x="410" y="749"/>
      <point x="423" y="761"/>
      <point x="437" y="761" type="curve" smooth="yes"/>
      <point x="452" y="761"/>
      <point x="461" y="749"/>
      <point x="458" y="735" type="curve"/>
      <point x="424" y="544" type="line"/>
      <point x="583" y="679" type="line"/>
      <point x="589" y="684"/>
      <point x="597" y="687"/>
      <point x="604" y="687" type="curve" smooth="yes"/>
      <point x="610" y="687"/>
      <point x="616" y="684"/>
      <point x="620" y="679" type="curve" smooth="yes"/>
      <point x="624" y="675"/>
      <point x="625" y="668"/>
      <point x="624" y="661" type="curve" smooth="yes"/>
      <point x="623" y="653"/>
      <point x="619" y="649"/>
      <point x="615" y="644" type="curve"/>
      <point x="454" y="508" type="line"/>
    </contour>
    <contour>
      <point x="689" y="468" type="curve"/>
      <point x="672" y="468" type="line"/>
      <point x="675" y="472"/>
      <point x="677" y="477"/>
      <point x="677" y="482" type="curve" smooth="yes"/>
      <point x="681" y="501"/>
      <point x="667" y="518"/>
      <point x="648" y="518" type="curve"/>
      <point x="580" y="518" type="line"/>
      <point x="663" y="588" type="line"/>
      <point x="669" y="594"/>
      <point x="673" y="601"/>
      <point x="675" y="611" type="curve" smooth="yes"/>
      <point x="677" y="621"/>
      <point x="675" y="630"/>
      <point x="670" y="636" type="curve" smooth="yes"/>
      <point x="664" y="643"/>
      <point x="655" y="647"/>
      <point x="647" y="647" type="curve" smooth="yes"/>
      <point x="639" y="647"/>
      <point x="631" y="645"/>
      <point x="624" y="640" type="curve"/>
      <point x="629" y="646"/>
      <point x="632" y="652"/>
      <point x="634" y="661" type="curve" smooth="yes"/>
      <point x="636" y="671"/>
      <point x="633" y="680"/>
      <point x="628" y="686" type="curve" smooth="yes"/>
      <point x="623" y="693"/>
      <point x="613" y="697"/>
      <point x="605" y="697" type="curve" smooth="yes"/>
      <point x="595" y="697"/>
      <point x="586" y="693"/>
      <point x="577" y="686" type="curve"/>
      <point x="497" y="618" type="line"/>
      <point x="509" y="685" type="line"/>
      <point x="513" y="704"/>
      <point x="501" y="721"/>
      <point x="480" y="721" type="curve" smooth="yes"/>
      <point x="475" y="721"/>
      <point x="469" y="720"/>
      <point x="465" y="718" type="curve"/>
      <point x="468" y="735" type="line"/>
      <point x="471" y="754"/>
      <point x="459" y="771"/>
      <point x="438" y="771" type="curve" smooth="yes"/>
      <point x="418" y="771"/>
      <point x="400" y="754"/>
      <point x="397" y="735" type="curve"/>
      <point x="367" y="567" type="line"/>
      <point x="364" y="570" type="line"/>
      <point x="313" y="633" type="line"/>
      <point x="299" y="649"/>
      <point x="286" y="666"/>
      <point x="270" y="685" type="curve" smooth="yes"/>
      <point x="265" y="691"/>
      <point x="255" y="697"/>
      <point x="246" y="697" type="curve" smooth="yes"/>
      <point x="237" y="697"/>
      <point x="226" y="692"/>
      <point x="218" y="685" type="curve" smooth="yes"/>
      <point x="212" y="679"/>
      <point x="207" y="670"/>
      <point x="205" y="661" type="curve" smooth="yes"/>
      <point x="203" y="651"/>
      <point x="205" y="644"/>
      <point x="208" y="639" type="curve"/>
      <point x="284" y="546" type="line"/>
      <point x="307" y="518" type="line"/>
      <point x="141" y="518" type="line"/>
      <point x="120" y="518"/>
      <point x="102" y="501"/>
      <point x="98" y="482" type="curve" smooth="yes"/>
      <point x="95" y="463"/>
      <point x="107" y="446"/>
      <point x="128" y="446" type="curve"/>
      <point x="144" y="446" type="line"/>
      <point x="141" y="441"/>
      <point x="141" y="437"/>
      <point x="140" y="432" type="curve" smooth="yes"/>
      <point x="136" y="413"/>
      <point x="148" y="396"/>
      <point x="169" y="396" type="curve"/>
      <point x="236" y="396" type="line"/>
      <point x="154" y="326" type="line"/>
      <point x="148" y="320"/>
      <point x="144" y="313"/>
      <point x="142" y="302" type="curve" smooth="yes"/>
      <point x="140" y="292"/>
      <point x="142" y="283"/>
      <point x="147" y="277" type="curve" smooth="yes"/>
      <point x="152" y="271"/>
      <point x="161" y="267"/>
      <point x="171" y="267" type="curve" smooth="yes"/>
      <point x="178" y="267"/>
      <point x="186" y="269"/>
      <point x="193" y="273" type="curve"/>
      <point x="188" y="268"/>
      <point x="185" y="261"/>
      <point x="183" y="252" type="curve" smooth="yes"/>
      <point x="181" y="242"/>
      <point x="184" y="233"/>
      <point x="189" y="227" type="curve" smooth="yes"/>
      <point x="193" y="221"/>
      <point x="202" y="217"/>
      <point x="212" y="217" type="curve" smooth="yes"/>
      <point x="222" y="217"/>
      <point x="233" y="222"/>
      <point x="240" y="228" type="curve"/>
      <point x="320" y="296" type="line"/>
      <point x="308" y="228" type="line"/>
      <point x="304" y="208"/>
      <point x="317" y="193"/>
      <point x="337" y="193" type="curve" smooth="yes"/>
      <point x="342" y="193"/>
      <point x="347" y="193"/>
      <point x="352" y="195" type="curve"/>
      <point x="349" y="178" type="line"/>
      <point x="345" y="158"/>
      <point x="358" y="143"/>
      <point x="378" y="143" type="curve" smooth="yes"/>
      <point x="399" y="143"/>
      <point x="416" y="158"/>
      <point x="420" y="178" type="curve"/>
      <point x="449" y="345" type="line"/>
      <point x="506" y="276" type="line"/>
      <point x="509" y="273" type="line"/>
      <point x="547" y="226" type="line"/>
      <point x="552" y="221"/>
      <point x="561" y="217"/>
      <point x="571" y="217" type="curve" smooth="yes"/>
      <point x="580" y="217"/>
      <point x="589" y="221"/>
      <point x="596" y="226" type="curve" smooth="yes"/>
      <point x="612" y="239"/>
      <point x="617" y="263"/>
      <point x="606" y="277" type="curve"/>
      <point x="567" y="325" type="line"/>
      <point x="566" y="325"/>
      <point x="565" y="326"/>
      <point x="565" y="327" type="curve"/>
      <point x="508" y="396" type="line"/>
      <point x="676" y="396" type="line"/>
      <point x="695" y="396"/>
      <point x="715" y="413"/>
      <point x="719" y="432" type="curve" smooth="yes"/>
      <point x="722" y="451"/>
      <point x="708" y="468"/>
    </contour>
  </outline>
</glyph>
<glyph name="plus" format="1">
  <advance width="542"/>
  <unicode hex="002B"/>
  <outline>
    <contour>
      <point x="525" y="407" type="line"/>
      <point x="539" y="407"/>
      <point x="549" y="396"/>
      <point x="547" y="383" type="curve" smooth="yes"/>
      <point x="545" y="369"/>
      <point x="531" y="358"/>
      <point x="517" y="358" type="curve"/>
      <point x="333" y="358" type="line"/>
      <point x="300" y="173" type="line"/>
      <point x="298" y="160"/>
      <point x="286" y="149"/>
      <point x="272" y="149" type="curve" smooth="yes"/>
      <point x="258" y="149"/>
      <point x="250" y="160"/>
      <point x="252" y="173" type="curve"/>
      <point x="285" y="358" type="line"/>
      <point x="100" y="358" type="line"/>
      <point x="86" y="358"/>
      <point x="77" y="369"/>
      <point x="79" y="383" type="curve" smooth="yes"/>
      <point x="81" y="396"/>
      <point x="94" y="407"/>
      <point x="108" y="407" type="curve"/>
      <point x="293" y="407" type="line"/>
      <point x="326" y="591" type="line"/>
      <point x="328" y="605"/>
      <point x="340" y="617"/>
      <point x="354" y="617" type="curve" smooth="yes"/>
      <point x="368" y="617"/>
      <point x="376" y="605"/>
      <point x="374" y="591" type="curve"/>
      <point x="341" y="407" type="line"/>
    </contour>
    <contour>
      <point x="568" y="367" type="curve"/>
      <point x="550" y="367" type="line"/>
      <point x="553" y="371"/>
      <point x="556" y="377"/>
      <point x="557" y="383" type="curve" smooth="yes"/>
      <point x="560" y="401"/>
      <point x="546" y="417"/>
      <point x="527" y="417" type="curve"/>
      <point x="403" y="417" type="line"/>
      <point x="425" y="541" type="line"/>
      <point x="428" y="560"/>
      <point x="417" y="577"/>
      <point x="397" y="577" type="curve" smooth="yes"/>
      <point x="391" y="577"/>
      <point x="385" y="575"/>
      <point x="381" y="573" type="curve"/>
      <point x="384" y="591" type="line"/>
      <point x="387" y="610"/>
      <point x="376" y="627"/>
      <point x="356" y="627" type="curve" smooth="yes"/>
      <point x="336" y="627"/>
      <point x="319" y="610"/>
      <point x="316" y="591" type="curve"/>
      <point x="285" y="417" type="line"/>
      <point x="110" y="417" type="line"/>
      <point x="90" y="417"/>
      <point x="72" y="401"/>
      <point x="69" y="383" type="curve" smooth="yes"/>
      <point x="66" y="363"/>
      <point x="78" y="348"/>
      <point x="98" y="348" type="curve"/>
      <point x="116" y="348" type="line"/>
      <point x="113" y="343"/>
      <point x="111" y="338"/>
      <point x="110" y="333" type="curve" smooth="yes"/>
      <point x="107" y="313"/>
      <point x="119" y="298"/>
      <point x="139" y="298" type="curve"/>
      <point x="264" y="298" type="line"/>
      <point x="242" y="173" type="line"/>
      <point x="239" y="155"/>
      <point x="250" y="139"/>
      <point x="270" y="139" type="curve" smooth="yes"/>
      <point x="276" y="139"/>
      <point x="281" y="140"/>
      <point x="287" y="143" type="curve"/>
      <point x="283" y="123" type="line"/>
      <point x="280" y="105"/>
      <point x="291" y="89"/>
      <point x="311" y="89" type="curve" smooth="yes"/>
      <point x="331" y="89"/>
      <point x="348" y="105"/>
      <point x="351" y="123" type="curve"/>
      <point x="382" y="298" type="line"/>
      <point x="556" y="298" type="line"/>
      <point x="575" y="298"/>
      <point x="595" y="313"/>
      <point x="598" y="333" type="curve" smooth="yes"/>
      <point x="601" y="351"/>
      <point x="587" y="367"/>
    </contour>
  </outline>
</glyph>
<glyph name="comma" format="1">
  <advance width="185"/>
  <unicode hex="002C"/>
  <outline>
    <contour>
      <point x="87" y="85" type="curve"/>
      <point x="105" y="85"/>
      <point x="119" y="70"/>
      <point x="115" y="51" type="curve" smooth="yes"/>
      <point x="112" y="32" type="line"/>
      <point x="110" y="22"/>
      <point x="100" y="10"/>
      <point x="89" y="3" type="curve" smooth="yes"/>
      <point x="68" y="-26" type="line"/>
      <point x="62" y="-31"/>
      <point x="55" y="-34"/>
      <point x="49" y="-34" type="curve" smooth="yes"/>
      <point x="48" y="-34"/>
      <point x="42" y="-33"/>
      <point x="40" y="-33" type="curve"/>
      <point x="30" y="-26"/>
      <point x="29" y="-12"/>
      <point x="36" y="-4" type="curve" smooth="yes"/>
      <point x="48" y="8" type="line"/>
      <point x="41" y="15"/>
      <point x="40" y="22"/>
      <point x="42" y="32" type="curve" smooth="yes"/>
      <point x="45" y="51" type="line"/>
      <point x="49" y="70"/>
      <point x="66" y="85"/>
    </contour>
    <contour>
      <point x="130" y="45" type="curve" smooth="yes"/>
      <point x="128" y="45"/>
      <point x="126" y="44"/>
      <point x="124" y="44" type="curve"/>
      <point x="125" y="51" type="line"/>
      <point x="130" y="76"/>
      <point x="112" y="95"/>
      <point x="89" y="95" type="curve" smooth="yes"/>
      <point x="62" y="95"/>
      <point x="40" y="76"/>
      <point x="35" y="51" type="curve"/>
      <point x="32" y="32" type="line"/>
      <point x="30" y="21"/>
      <point x="30" y="14"/>
      <point x="34" y="7" type="curve"/>
      <point x="31" y="4" type="line"/>
      <point x="21" y="-9"/>
      <point x="21" y="-32"/>
      <point x="36" y="-43" type="curve"/>
      <point x="37" y="-43"/>
      <point x="42" y="-44"/>
      <point x="44" y="-44" type="curve" smooth="yes"/>
      <point x="54" y="-44"/>
      <point x="63" y="-40"/>
      <point x="72" y="-34" type="curve"/>
      <point x="72" y="-37"/>
      <point x="73" y="-40"/>
      <point x="75" y="-43" type="curve"/>
      <point x="72" y="-46" type="line"/>
      <point x="62" y="-59"/>
      <point x="62" y="-82"/>
      <point x="77" y="-93" type="curve"/>
      <point x="78" y="-93"/>
      <point x="83" y="-94"/>
      <point x="85" y="-94" type="curve" smooth="yes"/>
      <point x="97" y="-94"/>
      <point x="108" y="-89"/>
      <point x="117" y="-81" type="curve"/>
      <point x="137" y="-54" type="line"/>
      <point x="150" y="-46"/>
      <point x="161" y="-32"/>
      <point x="163" y="-18" type="curve"/>
      <point x="167" y="1" type="line"/>
      <point x="171" y="26"/>
      <point x="153" y="45"/>
    </contour>
  </outline>
</glyph>
<glyph name="hyphen" format="1">
  <advance width="414"/>
  <unicode hex="002D"/>
  <outline>
    <contour>
      <point x="354" y="408" type="line"/>
      <point x="369" y="408"/>
      <point x="380" y="397"/>
      <point x="377" y="382" type="curve" smooth="yes"/>
      <point x="374" y="366"/>
      <point x="360" y="355"/>
      <point x="345" y="355" type="curve"/>
      <point x="143" y="355" type="line"/>
      <point x="128" y="355"/>
      <point x="118" y="366"/>
      <point x="121" y="382" type="curve" smooth="yes"/>
      <point x="124" y="397"/>
      <point x="137" y="408"/>
      <point x="152" y="408" type="curve"/>
    </contour>
    <contour>
      <point x="397" y="368" type="curve"/>
      <point x="381" y="368" type="line"/>
      <point x="384" y="372"/>
      <point x="386" y="377"/>
      <point x="387" y="382" type="curve" smooth="yes"/>
      <point x="391" y="403"/>
      <point x="377" y="418"/>
      <point x="356" y="418" type="curve"/>
      <point x="154" y="418" type="line"/>
      <point x="133" y="418"/>
      <point x="115" y="403"/>
      <point x="111" y="382" type="curve" smooth="yes"/>
      <point x="107" y="360"/>
      <point x="120" y="345"/>
      <point x="141" y="345" type="curve"/>
      <point x="156" y="345" type="line"/>
      <point x="155" y="341"/>
      <point x="153" y="336"/>
      <point x="152" y="332" type="curve" smooth="yes"/>
      <point x="148" y="310"/>
      <point x="162" y="295"/>
      <point x="183" y="295" type="curve"/>
      <point x="385" y="295" type="line"/>
      <point x="406" y="295"/>
      <point x="424" y="310"/>
      <point x="428" y="332" type="curve" smooth="yes"/>
      <point x="432" y="353"/>
      <point x="418" y="368"/>
    </contour>
  </outline>
</glyph>
<glyph name="period" format="1">
  <advance width="179"/>
  <unicode hex="002E"/>
  <outline>
    <contour>
      <point x="80" y="87" type="curve"/>
      <point x="98" y="87"/>
      <point x="110" y="73"/>
      <point x="107" y="53" type="curve" smooth="yes"/>
      <point x="103" y="33" type="line"/>
      <point x="100" y="15"/>
      <point x="83" y="0"/>
      <point x="65" y="0" type="curve" smooth="yes"/>
      <point x="45" y="0"/>
      <point x="31" y="15"/>
      <point x="34" y="33" type="curve" smooth="yes"/>
      <point x="38" y="53" type="line"/>
      <point x="41" y="73"/>
      <point x="60" y="87"/>
    </contour>
    <contour>
      <point x="123" y="47" type="curve" smooth="yes"/>
      <point x="120" y="47"/>
      <point x="118" y="47"/>
      <point x="116" y="46" type="curve"/>
      <point x="117" y="53" type="line"/>
      <point x="121" y="79"/>
      <point x="105" y="97"/>
      <point x="82" y="97" type="curve" smooth="yes"/>
      <point x="56" y="97"/>
      <point x="32" y="79"/>
      <point x="28" y="53" type="curve"/>
      <point x="24" y="33" type="line"/>
      <point x="20" y="10"/>
      <point x="37" y="-10"/>
      <point x="63" y="-10" type="curve"/>
      <point x="67" y="-10" type="line"/>
      <point x="66" y="-17" type="line"/>
      <point x="61" y="-40"/>
      <point x="78" y="-60"/>
      <point x="104" y="-60" type="curve" smooth="yes"/>
      <point x="127" y="-60"/>
      <point x="150" y="-40"/>
      <point x="155" y="-17" type="curve"/>
      <point x="158" y="3" type="line"/>
      <point x="163" y="29"/>
      <point x="146" y="47"/>
    </contour>
  </outline>
</glyph>
<glyph name="slash" format="1">
  <advance width="400"/>
  <unicode hex="002F"/>
  <outline>
    <contour>
      <point x="455" y="574" type="line"/>
      <point x="362" y="395"/>
      <point x="261" y="201"/>
      <point x="170" y="23" type="curve"/>
      <point x="116" y="-79" type="line"/>
      <point x="104" y="-101"/>
      <point x="80" y="-110"/>
      <point x="64" y="-101" type="curve"/>
      <point x="45" y="-93"/>
      <point x="40" y="-71"/>
      <point x="48" y="-54" type="curve"/>
      <point x="49" y="-52" type="line"/>
      <point x="40" y="-55"/>
      <point x="30" y="-55"/>
      <point x="23" y="-51" type="curve" smooth="yes"/>
      <point x="4" y="-43"/>
      <point x="0" y="-21"/>
      <point x="7" y="-4" type="curve"/>
      <point x="63" y="97" type="line"/>
      <point x="155" y="276"/>
      <point x="256" y="470"/>
      <point x="348" y="648" type="curve"/>
      <point x="403" y="749" type="line"/>
      <point x="415" y="766"/>
      <point x="439" y="778"/>
      <point x="454" y="771" type="curve"/>
      <point x="453" y="771" type="line"/>
      <point x="471" y="764"/>
      <point x="478" y="742"/>
      <point x="468" y="724" type="curve"/>
      <point x="468" y="725" type="line"/>
      <point x="464" y="717" type="line"/>
      <point x="474" y="723"/>
      <point x="486" y="725"/>
      <point x="496" y="721" type="curve"/>
      <point x="495" y="721" type="line"/>
      <point x="512" y="714"/>
      <point x="520" y="692"/>
      <point x="509" y="674" type="curve"/>
      <point x="510" y="675" type="line"/>
    </contour>
    <contour>
      <point x="460" y="728" type="line"/>
      <point x="467" y="741"/>
      <point x="462" y="757"/>
      <point x="449" y="762" type="curve" smooth="yes"/>
      <point x="436" y="768"/>
      <point x="419" y="761"/>
      <point x="411" y="746" type="curve"/>
      <point x="356" y="645" type="line"/>
      <point x="71" y="94" type="line"/>
      <point x="16" y="-7" type="line"/>
      <point x="10" y="-20"/>
      <point x="14" y="-36"/>
      <point x="28" y="-42" type="curve" smooth="yes"/>
      <point x="40" y="-48"/>
      <point x="57" y="-41"/>
      <point x="66" y="-25" type="curve"/>
      <point x="120" y="76" type="line"/>
      <point x="405" y="627" type="line"/>
    </contour>
  </outline>
</glyph>
<glyph name="zero" format="1">
  <advance width="409"/>
  <unicode hex="0030"/>
  <outline>
    <contour>
      <point x="188" y="51" type="curve" smooth="yes"/>
      <point x="226" y="51"/>
      <point x="264" y="83"/>
      <point x="271" y="122" type="curve"/>
      <point x="291" y="237" type="line"/>
      <point x="285" y="236"/>
      <point x="280" y="236"/>
      <point x="274" y="236" type="curve" smooth="yes"/>
      <point x="231" y="236"/>
      <point x="195" y="259"/>
      <point x="182" y="300" type="curve"/>
      <point x="168" y="338" type="line"/>
      <point x="130" y="122" type="line"/>
      <point x="123" y="83"/>
      <point x="149" y="51"/>
    </contour>
    <contour>
      <point x="296" y="658" type="curve" smooth="yes"/>
      <point x="257" y="658"/>
      <point x="219" y="626"/>
      <point x="212" y="588" type="curve"/>
      <point x="189" y="459" type="line"/>
      <point x="190" y="459" type="line"/>
      <point x="237" y="325" type="line"/>
      <point x="244" y="303"/>
      <point x="263" y="292"/>
      <point x="284" y="292" type="curve" smooth="yes"/>
      <point x="289" y="292"/>
      <point x="295" y="293"/>
      <point x="301" y="294" type="curve"/>
      <point x="353" y="588" type="line"/>
      <point x="360" y="626"/>
      <point x="334" y="658"/>
    </contour>
    <contour>
      <point x="305" y="713" type="curve" smooth="yes"/>
      <point x="373" y="713"/>
      <point x="420" y="656"/>
      <point x="408" y="588" type="curve"/>
      <point x="326" y="122" type="line"/>
      <point x="314" y="52"/>
      <point x="247" y="-4"/>
      <point x="179" y="-4" type="curve" smooth="yes"/>
      <point x="109" y="-4"/>
      <point x="63" y="52"/>
      <point x="75" y="122" type="curve"/>
      <point x="157" y="588" type="line"/>
      <point x="169" y="656"/>
      <point x="235" y="713"/>
    </contour>
    <contour>
      <point x="307" y="723" type="curve" smooth="yes"/>
      <point x="231" y="723"/>
      <point x="160" y="661"/>
      <point x="147" y="588" type="curve"/>
      <point x="65" y="122" type="line"/>
      <point x="56" y="71"/>
      <point x="75" y="27"/>
      <point x="112" y="4" type="curve"/>
      <point x="128" y="-37"/>
      <point x="167" y="-64"/>
      <point x="218" y="-64" type="curve" smooth="yes"/>
      <point x="291" y="-64"/>
      <point x="364" y="-4"/>
      <point x="377" y="72" type="curve"/>
      <point x="459" y="538" type="line"/>
      <point x="468" y="587"/>
      <point x="448" y="631"/>
      <point x="411" y="654" type="curve"/>
      <point x="395" y="695"/>
      <point x="356" y="723"/>
    </contour>
    <contour>
      <point x="335" y="598" type="curve" smooth="yes"/>
      <point x="338" y="598"/>
      <point x="341" y="598"/>
      <point x="344" y="597" type="curve"/>
      <point x="344" y="594"/>
      <point x="344" y="591"/>
      <point x="343" y="588" type="curve"/>
      <point x="293" y="302" type="line"/>
      <point x="287" y="301"/>
      <point x="291" y="302"/>
      <point x="286" y="302" type="curve"/>
      <point x="279" y="302" type="line"/>
      <point x="266" y="338"/>
      <point x="255" y="376"/>
      <point x="242" y="412" type="curve"/>
      <point x="263" y="538" type="line"/>
      <point x="269" y="571"/>
      <point x="301" y="598"/>
    </contour>
    <contour>
      <point x="190" y="61" type="curve"/>
      <point x="179" y="61" type="line"/>
      <point x="181" y="72" type="line"/>
      <point x="211" y="243" type="line"/>
      <point x="215" y="240" type="line"/>
      <point x="225" y="212"/>
      <point x="246" y="193"/>
      <point x="272" y="183" type="curve"/>
      <point x="261" y="122" type="line"/>
      <point x="255" y="88"/>
      <point x="223" y="61"/>
    </contour>
  </outline>
</glyph>
<glyph name="one" format="1">
  <advance width="243"/>
  <unicode hex="0031"/>
  <outline>
    <contour>
      <point x="137" y="23" type="line"/>
      <point x="134" y="10"/>
      <point x="121" y="-2"/>
      <point x="106" y="-2" type="curve" smooth="yes"/>
      <point x="93" y="-2"/>
      <point x="84" y="10"/>
      <point x="87" y="23" type="curve"/>
      <point x="200" y="665" type="line"/>
      <point x="197" y="666"/>
      <point x="194" y="666"/>
      <point x="192" y="666" type="curve" smooth="yes"/>
      <point x="185" y="668"/>
      <point x="185" y="668"/>
      <point x="182" y="649" type="curve" smooth="yes"/>
      <point x="179" y="635"/>
      <point x="166" y="623"/>
      <point x="151" y="623" type="curve" smooth="yes"/>
      <point x="138" y="623"/>
      <point x="129" y="635"/>
      <point x="132" y="649" type="curve" smooth="yes"/>
      <point x="143" y="714"/>
      <point x="163" y="714"/>
      <point x="227" y="714" type="curve"/>
      <point x="232" y="714" type="line"/>
      <point x="246" y="714"/>
      <point x="254" y="705"/>
      <point x="255" y="694" type="curve"/>
    </contour>
    <contour>
      <point x="307" y="647" type="line"/>
      <point x="305" y="662"/>
      <point x="294" y="674"/>
      <point x="275" y="674" type="curve"/>
      <point x="270" y="674" type="line"/>
      <point x="261" y="674" type="line"/>
      <point x="265" y="697" type="line"/>
      <point x="264" y="712"/>
      <point x="253" y="724"/>
      <point x="234" y="724" type="curve"/>
      <point x="229" y="724" type="line"/>
      <point x="157" y="724"/>
      <point x="135" y="724"/>
      <point x="122" y="649" type="curve" smooth="yes"/>
      <point x="119" y="630"/>
      <point x="132" y="613"/>
      <point x="150" y="613" type="curve" smooth="yes"/>
      <point x="156" y="613"/>
      <point x="161" y="614"/>
      <point x="166" y="616" type="curve"/>
      <point x="163" y="599" type="line"/>
      <point x="161" y="587"/>
      <point x="165" y="576"/>
      <point x="173" y="569" type="curve"/>
      <point x="77" y="23" type="line"/>
      <point x="73" y="5"/>
      <point x="86" y="-12"/>
      <point x="104" y="-12" type="curve" smooth="yes"/>
      <point x="110" y="-12"/>
      <point x="116" y="-10"/>
      <point x="121" y="-8" type="curve"/>
      <point x="118" y="-27" type="line"/>
      <point x="115" y="-45"/>
      <point x="128" y="-62"/>
      <point x="146" y="-62" type="curve" smooth="yes"/>
      <point x="167" y="-62"/>
      <point x="185" y="-45"/>
      <point x="188" y="-27" type="curve"/>
    </contour>
  </outline>
</glyph>
<glyph name="two" format="1">
  <advance width="391"/>
  <unicode hex="0032"/>
  <outline>
    <contour>
      <point x="295" y="714" type="curve" smooth="yes"/>
      <point x="363" y="714"/>
      <point x="410" y="659"/>
      <point x="398" y="590" type="curve"/>
      <point x="352" y="331" type="line"/>
      <point x="154" y="331" type="line"/>
      <point x="117" y="123" type="line"/>
      <point x="110" y="82"/>
      <point x="137" y="49"/>
      <point x="178" y="49" type="curve" smooth="yes"/>
      <point x="218" y="49"/>
      <point x="257" y="82"/>
      <point x="264" y="123" type="curve"/>
      <point x="271" y="162" type="line"/>
      <point x="322" y="162" type="line"/>
      <point x="315" y="123" type="line"/>
      <point x="303" y="55"/>
      <point x="237" y="-1"/>
      <point x="169" y="-1" type="curve" smooth="yes"/>
      <point x="101" y="-1"/>
      <point x="56" y="55"/>
      <point x="68" y="123" type="curve"/>
      <point x="114" y="381" type="line"/>
      <point x="310" y="381" type="line"/>
      <point x="347" y="590" type="line"/>
      <point x="354" y="631"/>
      <point x="327" y="664"/>
      <point x="287" y="664" type="curve" smooth="yes"/>
      <point x="246" y="664"/>
      <point x="207" y="631"/>
      <point x="200" y="590" type="curve"/>
      <point x="188" y="526" type="line"/>
      <point x="139" y="526" type="line"/>
      <point x="151" y="590" type="line"/>
      <point x="163" y="659"/>
      <point x="227" y="714"/>
    </contour>
    <contour>
      <point x="297" y="724" type="curve" smooth="yes"/>
      <point x="223" y="724"/>
      <point x="154" y="665"/>
      <point x="141" y="590" type="curve"/>
      <point x="127" y="516" type="line"/>
      <point x="177" y="516" type="line"/>
      <point x="169" y="466" type="line"/>
      <point x="238" y="466" type="line"/>
      <point x="251" y="540" type="line"/>
      <point x="257" y="575"/>
      <point x="291" y="604"/>
      <point x="326" y="604" type="curve" smooth="yes"/>
      <point x="330" y="604"/>
      <point x="334" y="603"/>
      <point x="337" y="603" type="curve"/>
      <point x="337" y="599"/>
      <point x="337" y="594"/>
      <point x="337" y="590" type="curve"/>
      <point x="301" y="391" type="line"/>
      <point x="105" y="391" type="line"/>
      <point x="58" y="123" type="line"/>
      <point x="49" y="73"/>
      <point x="69" y="29"/>
      <point x="106" y="6" type="curve"/>
      <point x="122" y="-33"/>
      <point x="159" y="-61"/>
      <point x="209" y="-61" type="curve" smooth="yes"/>
      <point x="282" y="-61"/>
      <point x="354" y="0"/>
      <point x="366" y="73" type="curve"/>
      <point x="375" y="122" type="line"/>
      <point x="325" y="122" type="line"/>
      <point x="325" y="123" type="line"/>
      <point x="334" y="172" type="line"/>
      <point x="263" y="172" type="line"/>
      <point x="254" y="123" type="line"/>
      <point x="248" y="88"/>
      <point x="215" y="59"/>
      <point x="180" y="59" type="curve" smooth="yes"/>
      <point x="176" y="59"/>
      <point x="171" y="59"/>
      <point x="167" y="60" type="curve"/>
      <point x="167" y="64"/>
      <point x="168" y="69"/>
      <point x="168" y="73" type="curve"/>
      <point x="203" y="271" type="line"/>
      <point x="401" y="271" type="line"/>
      <point x="449" y="540" type="line"/>
      <point x="458" y="590"/>
      <point x="437" y="633"/>
      <point x="401" y="656" type="curve"/>
      <point x="385" y="697"/>
      <point x="346" y="724"/>
    </contour>
    <contour>
      <point x="277" y="35" type="line"/>
      <point x="270" y="28"/>
      <point x="262" y="22"/>
      <point x="254" y="17" type="curve"/>
    </contour>
    <contour>
      <point x="245" y="641" type="curve" smooth="yes"/>
      <point x="238" y="636"/>
      <point x="231" y="630"/>
      <point x="224" y="623" type="curve" smooth="yes"/>
      <point x="231" y="630"/>
      <point x="238" y="636"/>
    </contour>
  </outline>
</glyph>
<glyph name="three" format="1">
  <advance width="382"/>
  <unicode hex="0033"/>
  <outline>
    <contour>
      <point x="307" y="361" type="curve" smooth="yes"/>
      <point x="305" y="359"/>
      <point x="305" y="361"/>
      <point x="302" y="358" type="curve"/>
      <point x="306" y="354" type="line"/>
      <point x="325" y="333"/>
      <point x="336" y="303"/>
      <point x="330" y="269" type="curve"/>
      <point x="304" y="122" type="line"/>
      <point x="292" y="54"/>
      <point x="226" y="-2"/>
      <point x="158" y="-2" type="curve" smooth="yes"/>
      <point x="125" y="-2"/>
      <point x="98" y="12"/>
      <point x="79" y="34" type="curve" smooth="yes"/>
      <point x="60" y="56"/>
      <point x="51" y="88"/>
      <point x="57" y="123" type="curve"/>
      <point x="65" y="165" type="line"/>
      <point x="114" y="165" type="line"/>
      <point x="106" y="122" type="line"/>
      <point x="99" y="82"/>
      <point x="126" y="49"/>
      <point x="167" y="49" type="curve" smooth="yes"/>
      <point x="207" y="49"/>
      <point x="246" y="82"/>
      <point x="253" y="122" type="curve"/>
      <point x="279" y="269" type="line"/>
      <point x="285" y="303"/>
      <point x="264" y="330"/>
      <point x="231" y="333" type="curve"/>
      <point x="151" y="333" type="line"/>
      <point x="160" y="383" type="line"/>
      <point x="241" y="383" type="line"/>
      <point x="273" y="385"/>
      <point x="304" y="412"/>
      <point x="310" y="447" type="curve"/>
      <point x="336" y="590" type="line"/>
      <point x="343" y="631"/>
      <point x="316" y="664"/>
      <point x="276" y="664" type="curve" smooth="yes"/>
      <point x="235" y="664"/>
      <point x="195" y="628"/>
      <point x="188" y="585" type="curve"/>
      <point x="139" y="585" type="line"/>
      <point x="152" y="657"/>
      <point x="216" y="714"/>
      <point x="284" y="714" type="curve" smooth="yes"/>
      <point x="352" y="714"/>
      <point x="398" y="659"/>
      <point x="386" y="590" type="curve"/>
      <point x="359" y="441" type="line"/>
      <point x="357" y="431"/>
      <point x="354" y="422"/>
      <point x="350" y="413" type="curve" smooth="yes"/>
      <point x="341" y="394"/>
      <point x="324" y="375"/>
    </contour>
    <contour>
      <point x="286" y="724" type="curve" smooth="yes"/>
      <point x="212" y="724"/>
      <point x="143" y="658"/>
      <point x="127" y="575" type="curve"/>
      <point x="185" y="575" type="line"/>
      <point x="177" y="559"/>
      <point x="171" y="542"/>
      <point x="168" y="525" type="curve"/>
      <point x="237" y="525" type="line"/>
      <point x="245" y="568"/>
      <point x="280" y="604"/>
      <point x="315" y="604" type="curve" smooth="yes"/>
      <point x="319" y="604"/>
      <point x="323" y="603"/>
      <point x="326" y="603" type="curve"/>
      <point x="326" y="599"/>
      <point x="326" y="594"/>
      <point x="326" y="590" type="curve"/>
      <point x="300" y="447" type="line"/>
      <point x="295" y="417"/>
      <point x="269" y="395"/>
      <point x="243" y="393" type="curve"/>
      <point x="152" y="393" type="line"/>
      <point x="139" y="323" type="line"/>
      <point x="189" y="323" type="line"/>
      <point x="181" y="273" type="line"/>
      <point x="270" y="273" type="line"/>
      <point x="269" y="269" type="line"/>
      <point x="243" y="122" type="line"/>
      <point x="237" y="87"/>
      <point x="204" y="59"/>
      <point x="169" y="59" type="curve" smooth="yes"/>
      <point x="164" y="59"/>
      <point x="160" y="59"/>
      <point x="156" y="60" type="curve"/>
      <point x="156" y="64"/>
      <point x="156" y="68"/>
      <point x="157" y="72" type="curve"/>
      <point x="167" y="125" type="line"/>
      <point x="117" y="125" type="line"/>
      <point x="125" y="175" type="line"/>
      <point x="56" y="175" type="line"/>
      <point x="47" y="123" type="line"/>
      <point x="40" y="85"/>
      <point x="50" y="51"/>
      <point x="71" y="27" type="curve"/>
      <point x="78" y="18"/>
      <point x="85" y="11"/>
      <point x="94" y="5" type="curve"/>
      <point x="99" y="-5"/>
      <point x="105" y="-14"/>
      <point x="112" y="-23" type="curve" smooth="yes"/>
      <point x="132" y="-47"/>
      <point x="162" y="-62"/>
      <point x="198" y="-62" type="curve" smooth="yes"/>
      <point x="271" y="-62"/>
      <point x="342" y="-1"/>
      <point x="355" y="72" type="curve"/>
      <point x="381" y="219" type="line"/>
      <point x="387" y="253"/>
      <point x="376" y="285"/>
      <point x="358" y="307" type="curve"/>
      <point x="374" y="322"/>
      <point x="390" y="340"/>
      <point x="400" y="358" type="curve"/>
      <point x="404" y="369"/>
      <point x="409" y="380"/>
      <point x="410" y="391" type="curve"/>
      <point x="437" y="540" type="line"/>
      <point x="446" y="591"/>
      <point x="426" y="634"/>
      <point x="389" y="657" type="curve"/>
      <point x="373" y="697"/>
      <point x="335" y="724"/>
    </contour>
    <contour>
      <point x="244" y="646" type="curve"/>
      <point x="235" y="639"/>
      <point x="226" y="631"/>
      <point x="217" y="623" type="curve"/>
      <point x="225" y="632"/>
      <point x="234" y="640"/>
    </contour>
    <contour>
      <point x="328" y="368" type="line"/>
      <point x="325" y="364"/>
      <point x="322" y="360"/>
      <point x="317" y="357" type="curve"/>
      <point x="316" y="357" type="line"/>
    </contour>
    <contour>
      <point x="265" y="34" type="curve" smooth="yes"/>
      <point x="261" y="29"/>
      <point x="255" y="24"/>
      <point x="249" y="21" type="curve" smooth="yes"/>
      <point x="255" y="25"/>
      <point x="261" y="29"/>
    </contour>
    <contour>
      <point x="344" y="300" type="curve"/>
      <point x="349" y="302" type="line"/>
      <point x="349" y="301" type="line"/>
      <point x="347" y="300"/>
      <point x="347" y="300"/>
    </contour>
    <contour>
      <point x="303" y="350" type="curve"/>
      <point x="308" y="352" type="line"/>
      <point x="307" y="351" type="line"/>
      <point x="306" y="350"/>
      <point x="306" y="350"/>
    </contour>
  </outline>
</glyph>
<glyph name="four" format="1">
  <advance width="373"/>
  <unicode hex="0034"/>
  <outline>
    <contour>
      <point x="363" y="714" type="curve" smooth="yes"/>
      <point x="376" y="714"/>
      <point x="386" y="703"/>
      <point x="384" y="690" type="curve"/>
      <point x="267" y="23" type="line"/>
      <point x="264" y="10"/>
      <point x="250" y="-1"/>
      <point x="237" y="-1" type="curve" smooth="yes"/>
      <point x="223" y="-1"/>
      <point x="213" y="10"/>
      <point x="216" y="23" type="curve"/>
      <point x="274" y="355" type="line"/>
      <point x="252" y="340"/>
      <point x="225" y="331"/>
      <point x="197" y="331" type="curve" smooth="yes"/>
      <point x="129" y="331"/>
      <point x="84" y="387"/>
      <point x="96" y="455" type="curve"/>
      <point x="137" y="690" type="line"/>
      <point x="139" y="703"/>
      <point x="152" y="714"/>
      <point x="166" y="714" type="curve" smooth="yes"/>
      <point x="180" y="714"/>
      <point x="188" y="703"/>
      <point x="186" y="690" type="curve"/>
      <point x="145" y="455" type="line"/>
      <point x="137" y="414"/>
      <point x="165" y="381"/>
      <point x="206" y="381" type="curve" smooth="yes"/>
      <point x="246" y="381"/>
      <point x="284" y="414"/>
      <point x="292" y="455" type="curve"/>
      <point x="333" y="690" type="line"/>
      <point x="335" y="703"/>
      <point x="349" y="714"/>
    </contour>
    <contour>
      <point x="406" y="674" type="curve" smooth="yes"/>
      <point x="401" y="674"/>
      <point x="395" y="672"/>
      <point x="391" y="670" type="curve"/>
      <point x="394" y="690" type="line"/>
      <point x="397" y="708"/>
      <point x="383" y="724"/>
      <point x="365" y="724" type="curve" smooth="yes"/>
      <point x="346" y="724"/>
      <point x="326" y="708"/>
      <point x="323" y="690" type="curve"/>
      <point x="282" y="455" type="line"/>
      <point x="276" y="420"/>
      <point x="242" y="391"/>
      <point x="207" y="391" type="curve" smooth="yes"/>
      <point x="203" y="391"/>
      <point x="198" y="391"/>
      <point x="195" y="392" type="curve"/>
      <point x="194" y="396"/>
      <point x="195" y="401"/>
      <point x="196" y="405" type="curve"/>
      <point x="237" y="640" type="line"/>
      <point x="241" y="658"/>
      <point x="229" y="674"/>
      <point x="209" y="674" type="curve" smooth="yes"/>
      <point x="203" y="674"/>
      <point x="197" y="672"/>
      <point x="193" y="670" type="curve"/>
      <point x="196" y="690" type="line"/>
      <point x="199" y="708"/>
      <point x="188" y="724"/>
      <point x="168" y="724" type="curve" smooth="yes"/>
      <point x="148" y="724"/>
      <point x="130" y="708"/>
      <point x="127" y="690" type="curve"/>
      <point x="86" y="455" type="line"/>
      <point x="77" y="405"/>
      <point x="96" y="361"/>
      <point x="133" y="338" type="curve"/>
      <point x="149" y="298"/>
      <point x="186" y="271"/>
      <point x="236" y="271" type="curve"/>
      <point x="249" y="271" type="line"/>
      <point x="206" y="23" type="line"/>
      <point x="202" y="5"/>
      <point x="217" y="-11"/>
      <point x="236" y="-11" type="curve" smooth="yes"/>
      <point x="241" y="-11"/>
      <point x="245" y="-9"/>
      <point x="250" y="-7" type="curve"/>
      <point x="247" y="-27" type="line"/>
      <point x="244" y="-45"/>
      <point x="258" y="-61"/>
      <point x="277" y="-61" type="curve" smooth="yes"/>
      <point x="295" y="-61"/>
      <point x="315" y="-45"/>
      <point x="318" y="-27" type="curve"/>
      <point x="435" y="640" type="line"/>
      <point x="439" y="658"/>
      <point x="424" y="674"/>
    </contour>
  </outline>
</glyph>
<glyph name="five" format="1">
  <advance width="406"/>
  <unicode hex="0035"/>
  <outline>
    <contour>
      <point x="342" y="543" type="line"/>
      <point x="350" y="585" type="line"/>
      <point x="356" y="623"/>
      <point x="331" y="655"/>
      <point x="293" y="655" type="curve" smooth="yes"/>
      <point x="254" y="655"/>
      <point x="218" y="623"/>
      <point x="212" y="585" type="curve"/>
      <point x="176" y="382" type="line"/>
      <point x="369" y="382" type="line"/>
      <point x="323" y="123" type="line"/>
      <point x="311" y="54"/>
      <point x="246" y="-1"/>
      <point x="177" y="-1" type="curve" smooth="yes"/>
      <point x="108" y="-1"/>
      <point x="63" y="54"/>
      <point x="75" y="123" type="curve"/>
      <point x="87" y="190" type="line"/>
      <point x="142" y="190" type="line"/>
      <point x="130" y="123" type="line"/>
      <point x="123" y="85"/>
      <point x="148" y="54"/>
      <point x="187" y="54" type="curve" smooth="yes"/>
      <point x="225" y="54"/>
      <point x="261" y="85"/>
      <point x="268" y="123" type="curve"/>
      <point x="304" y="327" type="line"/>
      <point x="111" y="327" type="line"/>
      <point x="157" y="585" type="line"/>
      <point x="169" y="653"/>
      <point x="234" y="710"/>
      <point x="303" y="710" type="curve" smooth="yes"/>
      <point x="372" y="710"/>
      <point x="417" y="653"/>
      <point x="405" y="585" type="curve"/>
      <point x="397" y="543" type="line"/>
    </contour>
    <contour>
      <point x="447" y="483" type="line"/>
      <point x="456" y="535" type="line"/>
      <point x="464" y="584"/>
      <point x="445" y="628"/>
      <point x="408" y="652" type="curve"/>
      <point x="393" y="692"/>
      <point x="354" y="720"/>
      <point x="304" y="720" type="curve" smooth="yes"/>
      <point x="229" y="720"/>
      <point x="160" y="658"/>
      <point x="147" y="585" type="curve"/>
      <point x="99" y="317" type="line"/>
      <point x="149" y="317" type="line"/>
      <point x="141" y="267" type="line"/>
      <point x="284" y="267" type="line"/>
      <point x="258" y="123" type="line"/>
      <point x="253" y="91"/>
      <point x="221" y="64"/>
      <point x="189" y="64" type="curve"/>
      <point x="180" y="64" type="line"/>
      <point x="181" y="73" type="line"/>
      <point x="195" y="150" type="line"/>
      <point x="145" y="150" type="line"/>
      <point x="154" y="200" type="line"/>
      <point x="79" y="200" type="line"/>
      <point x="65" y="123" type="line"/>
      <point x="56" y="72"/>
      <point x="75" y="29"/>
      <point x="112" y="6" type="curve"/>
      <point x="128" y="-34"/>
      <point x="166" y="-61"/>
      <point x="217" y="-61" type="curve" smooth="yes"/>
      <point x="292" y="-61"/>
      <point x="361" y="-2"/>
      <point x="374" y="73" type="curve"/>
      <point x="422" y="342" type="line"/>
      <point x="372" y="342" type="line"/>
      <point x="381" y="392" type="line"/>
      <point x="238" y="392" type="line"/>
      <point x="263" y="535" type="line"/>
      <point x="269" y="568"/>
      <point x="299" y="595"/>
      <point x="332" y="595" type="curve" smooth="yes"/>
      <point x="335" y="595"/>
      <point x="337" y="595"/>
      <point x="340" y="594" type="curve"/>
      <point x="341" y="591"/>
      <point x="340" y="588"/>
      <point x="340" y="585" type="curve"/>
      <point x="330" y="533" type="line"/>
      <point x="380" y="533" type="line"/>
      <point x="372" y="483" type="line"/>
    </contour>
  </outline>
</glyph>
<glyph name="six" format="1">
  <advance width="394"/>
  <unicode hex="0036"/>
  <outline>
    <contour>
      <point x="197" y="331" type="line"/>
      <point x="184" y="333"/>
      <point x="173" y="337"/>
      <point x="161" y="345" type="curve"/>
      <point x="122" y="123" type="line"/>
      <point x="115" y="82"/>
      <point x="143" y="49"/>
      <point x="183" y="49" type="curve" smooth="yes"/>
      <point x="224" y="49"/>
      <point x="263" y="82"/>
      <point x="270" y="123" type="curve"/>
      <point x="301" y="297" type="line"/>
      <point x="296" y="316"/>
      <point x="283" y="328"/>
      <point x="265" y="331" type="curve"/>
    </contour>
    <contour>
      <point x="342" y="528" type="line"/>
      <point x="353" y="590" type="line"/>
      <point x="360" y="631"/>
      <point x="333" y="664"/>
      <point x="292" y="664" type="curve" smooth="yes"/>
      <point x="252" y="664"/>
      <point x="212" y="631"/>
      <point x="205" y="590" type="curve"/>
      <point x="174" y="415" type="line"/>
      <point x="178" y="396"/>
      <point x="192" y="384"/>
      <point x="210" y="381" type="curve"/>
      <point x="278" y="381" type="line"/>
      <point x="295" y="379"/>
      <point x="311" y="370"/>
      <point x="324" y="358" type="curve"/>
      <point x="323" y="358" type="line"/>
      <point x="338" y="334" type="line"/>
      <point x="348" y="319"/>
      <point x="351" y="295"/>
      <point x="346" y="268" type="curve"/>
      <point x="320" y="123" type="line"/>
      <point x="308" y="55"/>
      <point x="242" y="-1"/>
      <point x="174" y="-1" type="curve" smooth="yes"/>
      <point x="106" y="-1"/>
      <point x="60" y="55"/>
      <point x="72" y="123" type="curve"/>
      <point x="155" y="590" type="line"/>
      <point x="167" y="659"/>
      <point x="232" y="714"/>
      <point x="300" y="714" type="curve" smooth="yes"/>
      <point x="368" y="714"/>
      <point x="415" y="659"/>
      <point x="403" y="590" type="curve"/>
      <point x="392" y="528" type="line"/>
    </contour>
    <contour>
      <point x="441" y="468" type="line"/>
      <point x="454" y="540" type="line"/>
      <point x="463" y="590"/>
      <point x="442" y="633"/>
      <point x="406" y="656" type="curve"/>
      <point x="390" y="697"/>
      <point x="351" y="724"/>
      <point x="302" y="724" type="curve" smooth="yes"/>
      <point x="229" y="724"/>
      <point x="158" y="665"/>
      <point x="145" y="590" type="curve"/>
      <point x="62" y="123" type="line"/>
      <point x="54" y="74"/>
      <point x="74" y="30"/>
      <point x="110" y="7" type="curve"/>
      <point x="126" y="-33"/>
      <point x="165" y="-61"/>
      <point x="214" y="-61" type="curve" smooth="yes"/>
      <point x="287" y="-61"/>
      <point x="359" y="0"/>
      <point x="371" y="73" type="curve"/>
      <point x="397" y="218" type="line"/>
      <point x="402" y="248"/>
      <point x="399" y="274"/>
      <point x="389" y="290" type="curve"/>
      <point x="371" y="317" type="line"/>
      <point x="365" y="322"/>
      <point x="359" y="328"/>
      <point x="351" y="332" type="curve"/>
      <point x="351" y="335"/>
      <point x="349" y="337"/>
      <point x="347" y="340" type="curve"/>
      <point x="330" y="367" type="line"/>
      <point x="318" y="379"/>
      <point x="302" y="389"/>
      <point x="280" y="391" type="curve"/>
      <point x="229" y="391" type="line"/>
      <point x="256" y="540" type="line"/>
      <point x="262" y="575"/>
      <point x="296" y="604"/>
      <point x="331" y="604" type="curve" smooth="yes"/>
      <point x="335" y="604"/>
      <point x="339" y="603"/>
      <point x="343" y="602" type="curve"/>
      <point x="343" y="598"/>
      <point x="343" y="594"/>
      <point x="343" y="590" type="curve"/>
      <point x="330" y="518" type="line"/>
      <point x="380" y="518" type="line"/>
      <point x="371" y="468" type="line"/>
    </contour>
    <contour>
      <point x="234" y="271" type="curve"/>
      <point x="286" y="271" type="line"/>
      <point x="260" y="123" type="line"/>
      <point x="254" y="88"/>
      <point x="220" y="59"/>
      <point x="185" y="59" type="curve" smooth="yes"/>
      <point x="181" y="59"/>
      <point x="176" y="59"/>
      <point x="172" y="60" type="curve"/>
      <point x="172" y="64"/>
      <point x="173" y="69"/>
      <point x="173" y="73" type="curve"/>
      <point x="210" y="278" type="line"/>
      <point x="218" y="274"/>
      <point x="225" y="272"/>
    </contour>
    <contour>
      <point x="288" y="42" type="curve"/>
      <point x="280" y="31"/>
      <point x="270" y="23"/>
      <point x="258" y="17" type="curve"/>
      <point x="269" y="24"/>
      <point x="279" y="32"/>
    </contour>
    <contour>
      <point x="250" y="641" type="curve" smooth="yes"/>
      <point x="244" y="637"/>
      <point x="239" y="632"/>
      <point x="233" y="627" type="curve"/>
      <point x="238" y="633"/>
      <point x="244" y="637"/>
    </contour>
  </outline>
</glyph>
<glyph name="seven" format="1">
  <advance width="410"/>
  <unicode hex="0037"/>
  <outline>
    <contour>
      <point x="426" y="683" type="curve" smooth="yes"/>
      <point x="425" y="680"/>
      <point x="425" y="677"/>
      <point x="422" y="673" type="curve"/>
      <point x="423" y="674" type="line"/>
      <point x="107" y="13" type="line"/>
      <point x="95" y="0"/>
      <point x="73" y="-4"/>
      <point x="64" y="7" type="curve" smooth="yes"/>
      <point x="55" y="18"/>
      <point x="60" y="26"/>
      <point x="63" y="35" type="curve" smooth="yes"/>
      <point x="63" y="37"/>
      <point x="65" y="40"/>
      <point x="65" y="41" type="curve"/>
      <point x="359" y="655" type="line"/>
      <point x="265" y="655" type="line"/>
      <point x="234" y="655"/>
      <point x="226" y="648"/>
      <point x="220" y="617" type="curve" smooth="yes"/>
      <point x="217" y="601"/>
      <point x="204" y="590"/>
      <point x="188" y="590" type="curve" smooth="yes"/>
      <point x="172" y="590"/>
      <point x="162" y="601"/>
      <point x="165" y="617" type="curve" smooth="yes"/>
      <point x="177" y="682"/>
      <point x="210" y="711"/>
      <point x="275" y="711" type="curve"/>
      <point x="403" y="711" type="line"/>
      <point x="420" y="711"/>
      <point x="429" y="699"/>
    </contour>
    <contour>
      <point x="477" y="633" type="curve" smooth="yes"/>
      <point x="481" y="655"/>
      <point x="469" y="671"/>
      <point x="446" y="671" type="curve"/>
      <point x="432" y="671" type="line"/>
      <point x="435" y="677"/>
      <point x="435" y="680"/>
      <point x="436" y="683" type="curve" smooth="yes"/>
      <point x="440" y="705"/>
      <point x="428" y="721"/>
      <point x="405" y="721" type="curve"/>
      <point x="277" y="721" type="line"/>
      <point x="205" y="721"/>
      <point x="168" y="689"/>
      <point x="155" y="617" type="curve" smooth="yes"/>
      <point x="151" y="595"/>
      <point x="164" y="580"/>
      <point x="186" y="580" type="curve" smooth="yes"/>
      <point x="191" y="580"/>
      <point x="195" y="580"/>
      <point x="199" y="582" type="curve"/>
      <point x="196" y="567" type="line"/>
      <point x="193" y="545"/>
      <point x="205" y="530"/>
      <point x="227" y="530" type="curve" smooth="yes"/>
      <point x="249" y="530"/>
      <point x="268" y="545"/>
      <point x="271" y="567" type="curve" smooth="yes"/>
      <point x="276" y="590"/>
      <point x="281" y="595"/>
      <point x="304" y="595" type="curve"/>
      <point x="319" y="595" type="line"/>
      <point x="55" y="44" type="line"/>
      <point x="55" y="41"/>
      <point x="53" y="36"/>
      <point x="53" y="35" type="curve" smooth="yes"/>
      <point x="52" y="33"/>
      <point x="51" y="31"/>
      <point x="51" y="30" type="curve"/>
      <point x="51" y="31" type="line"/>
      <point x="47" y="22"/>
      <point x="45" y="13"/>
      <point x="56" y="0" type="curve" smooth="yes"/>
      <point x="64" y="-10"/>
      <point x="82" y="-10"/>
      <point x="97" y="-4" type="curve"/>
      <point x="96" y="-6" type="line"/>
      <point x="96" y="-9"/>
      <point x="94" y="-14"/>
      <point x="94" y="-15" type="curve" smooth="yes"/>
      <point x="94" y="-16"/>
      <point x="92" y="-18"/>
      <point x="92" y="-19" type="curve" smooth="yes"/>
      <point x="89" y="-28"/>
      <point x="86" y="-37"/>
      <point x="97" y="-50" type="curve" smooth="yes"/>
      <point x="109" y="-65"/>
      <point x="140" y="-59"/>
      <point x="157" y="-41" type="curve"/>
      <point x="474" y="621" type="line"/>
      <point x="473" y="621" type="line"/>
      <point x="476" y="627"/>
      <point x="477" y="630"/>
    </contour>
  </outline>
</glyph>
<glyph name="eight" format="1">
  <advance width="396"/>
  <unicode hex="0038"/>
  <outline>
    <contour>
      <point x="203" y="596" type="line"/>
      <point x="202" y="593" type="line"/>
      <point x="189" y="593" type="line"/>
      <point x="191" y="606" type="line"/>
      <point x="204" y="606" type="line"/>
    </contour>
    <contour>
      <point x="350" y="593" type="line"/>
      <point x="357" y="634"/>
      <point x="330" y="667"/>
      <point x="289" y="667" type="curve" smooth="yes"/>
      <point x="249" y="667"/>
      <point x="210" y="635"/>
      <point x="203" y="596" type="curve"/>
      <point x="195" y="552" type="line"/>
      <point x="188" y="511"/>
      <point x="215" y="478"/>
      <point x="256" y="478" type="curve" smooth="yes"/>
      <point x="297" y="478"/>
      <point x="336" y="511"/>
      <point x="343" y="552" type="curve"/>
    </contour>
    <contour>
      <point x="307" y="351" type="line"/>
      <point x="315" y="392"/>
      <point x="287" y="425"/>
      <point x="246" y="425" type="curve" smooth="yes"/>
      <point x="205" y="425"/>
      <point x="167" y="392"/>
      <point x="159" y="351" type="curve"/>
      <point x="119" y="123" type="line"/>
      <point x="112" y="83"/>
      <point x="139" y="49"/>
      <point x="180" y="49" type="curve" smooth="yes"/>
      <point x="221" y="49"/>
      <point x="260" y="83"/>
      <point x="267" y="123" type="curve"/>
    </contour>
    <contour>
      <point x="393" y="552" type="line"/>
      <point x="385" y="510"/>
      <point x="359" y="474"/>
      <point x="324" y="452" type="curve"/>
      <point x="351" y="430"/>
      <point x="365" y="393"/>
      <point x="357" y="351" type="curve"/>
      <point x="317" y="123" type="line"/>
      <point x="305" y="55"/>
      <point x="239" y="-1"/>
      <point x="171" y="-1" type="curve" smooth="yes"/>
      <point x="103" y="-1"/>
      <point x="58" y="55"/>
      <point x="70" y="123" type="curve"/>
      <point x="110" y="351" type="line"/>
      <point x="118" y="393"/>
      <point x="142" y="430"/>
      <point x="177" y="452" type="curve"/>
      <point x="150" y="474"/>
      <point x="138" y="510"/>
      <point x="146" y="552" type="curve"/>
      <point x="153" y="593" type="line"/>
      <point x="165" y="662"/>
      <point x="230" y="718"/>
      <point x="298" y="718" type="curve" smooth="yes"/>
      <point x="366" y="718"/>
      <point x="412" y="662"/>
      <point x="400" y="593" type="curve"/>
    </contour>
    <contour>
      <point x="444" y="502" type="curve"/>
      <point x="451" y="543" type="line"/>
      <point x="460" y="593"/>
      <point x="440" y="636"/>
      <point x="404" y="660" type="curve"/>
      <point x="388" y="701"/>
      <point x="349" y="728"/>
      <point x="300" y="728" type="curve" smooth="yes"/>
      <point x="226" y="728"/>
      <point x="156" y="668"/>
      <point x="143" y="593" type="curve"/>
      <point x="136" y="552" type="line"/>
      <point x="129" y="514"/>
      <point x="141" y="476"/>
      <point x="161" y="452" type="curve"/>
      <point x="127" y="428"/>
      <point x="108" y="394"/>
      <point x="100" y="351" type="curve"/>
      <point x="60" y="123" type="line"/>
      <point x="51" y="73"/>
      <point x="71" y="29"/>
      <point x="108" y="6" type="curve"/>
      <point x="124" y="-33"/>
      <point x="161" y="-61"/>
      <point x="211" y="-61" type="curve" smooth="yes"/>
      <point x="284" y="-61"/>
      <point x="356" y="0"/>
      <point x="368" y="73" type="curve"/>
      <point x="409" y="301" type="line"/>
      <point x="415" y="338"/>
      <point x="401" y="378"/>
      <point x="381" y="402" type="curve"/>
      <point x="416" y="426"/>
      <point x="436" y="459"/>
    </contour>
    <contour>
      <point x="257" y="123" type="line"/>
      <point x="251" y="88"/>
      <point x="217" y="59"/>
      <point x="182" y="59" type="curve" smooth="yes"/>
      <point x="178" y="59"/>
      <point x="173" y="59"/>
      <point x="169" y="60" type="curve"/>
      <point x="169" y="64"/>
      <point x="170" y="69"/>
      <point x="170" y="73" type="curve"/>
      <point x="211" y="301" type="line"/>
      <point x="217" y="336"/>
      <point x="251" y="365"/>
      <point x="286" y="365" type="curve" smooth="yes"/>
      <point x="290" y="365"/>
      <point x="294" y="364"/>
      <point x="298" y="363" type="curve"/>
      <point x="298" y="359"/>
      <point x="298" y="355"/>
      <point x="297" y="351" type="curve"/>
    </contour>
    <contour>
      <point x="333" y="552" type="line"/>
      <point x="327" y="517"/>
      <point x="293" y="488"/>
      <point x="258" y="488" type="curve" smooth="yes"/>
      <point x="254" y="488"/>
      <point x="249" y="488"/>
      <point x="245" y="489" type="curve"/>
      <point x="244" y="493"/>
      <point x="245" y="498"/>
      <point x="246" y="502" type="curve"/>
      <point x="254" y="546" type="line"/>
      <point x="261" y="580"/>
      <point x="295" y="607"/>
      <point x="329" y="607" type="curve" smooth="yes"/>
      <point x="333" y="607"/>
      <point x="336" y="606"/>
      <point x="340" y="605" type="curve"/>
      <point x="340" y="601"/>
      <point x="341" y="597"/>
      <point x="340" y="593" type="curve"/>
    </contour>
    <contour>
      <point x="285" y="42" type="curve"/>
      <point x="277" y="31"/>
      <point x="267" y="23"/>
      <point x="255" y="17" type="curve"/>
      <point x="266" y="24"/>
      <point x="276" y="32"/>
    </contour>
    <contour>
      <point x="248" y="645" type="curve" smooth="yes"/>
      <point x="240" y="640"/>
      <point x="234" y="634"/>
      <point x="228" y="627" type="curve" smooth="yes"/>
      <point x="233" y="634"/>
      <point x="240" y="640"/>
    </contour>
    <contour>
      <point x="351" y="460" type="line"/>
      <point x="340" y="452" type="line"/>
    </contour>
  </outline>
</glyph>
<glyph name="nine" format="1">
  <advance width="408"/>
  <unicode hex="0039"/>
  <outline>
    <contour>
      <point x="351" y="587" type="line"/>
      <point x="358" y="625"/>
      <point x="332" y="657"/>
      <point x="294" y="657" type="curve" smooth="yes"/>
      <point x="255" y="657"/>
      <point x="219" y="625"/>
      <point x="212" y="587" type="curve"/>
      <point x="182" y="415" type="line"/>
      <point x="186" y="398"/>
      <point x="198" y="386"/>
      <point x="213" y="383" type="curve"/>
      <point x="281" y="383" type="line"/>
      <point x="295" y="382"/>
      <point x="304" y="380"/>
      <point x="313" y="372" type="curve"/>
    </contour>
    <contour>
      <point x="325" y="124" type="line"/>
      <point x="313" y="55"/>
      <point x="246" y="-1"/>
      <point x="178" y="-1" type="curve" smooth="yes"/>
      <point x="109" y="-1"/>
      <point x="63" y="55"/>
      <point x="75" y="124" type="curve"/>
      <point x="87" y="189" type="line"/>
      <point x="142" y="189" type="line"/>
      <point x="130" y="124" type="line"/>
      <point x="124" y="86"/>
      <point x="149" y="54"/>
      <point x="188" y="54" type="curve" smooth="yes"/>
      <point x="226" y="54"/>
      <point x="263" y="86"/>
      <point x="269" y="124" type="curve"/>
      <point x="300" y="297" type="line"/>
      <point x="296" y="314"/>
      <point x="283" y="326"/>
      <point x="269" y="329" type="curve"/>
      <point x="201" y="329" type="line"/>
      <point x="184" y="330"/>
      <point x="167" y="340"/>
      <point x="154" y="351" type="curve" smooth="yes"/>
      <point x="152" y="354"/>
      <point x="149" y="356"/>
      <point x="148" y="359" type="curve"/>
      <point x="142" y="368" type="line"/>
      <point x="132" y="388"/>
      <point x="127" y="416"/>
      <point x="132" y="443" type="curve"/>
      <point x="157" y="587" type="line"/>
      <point x="169" y="655"/>
      <point x="235" y="712"/>
      <point x="304" y="712" type="curve" smooth="yes"/>
      <point x="372" y="712"/>
      <point x="419" y="655"/>
      <point x="407" y="587" type="curve"/>
    </contour>
    <contour>
      <point x="377" y="74" type="curve"/>
      <point x="458" y="537" type="line"/>
      <point x="467" y="586"/>
      <point x="447" y="630"/>
      <point x="410" y="653" type="curve"/>
      <point x="394" y="694"/>
      <point x="355" y="722"/>
      <point x="306" y="722" type="curve" smooth="yes"/>
      <point x="231" y="722"/>
      <point x="160" y="660"/>
      <point x="147" y="587" type="curve"/>
      <point x="122" y="443" type="line"/>
      <point x="117" y="416"/>
      <point x="123" y="384"/>
      <point x="133" y="362" type="curve" smooth="yes"/>
      <point x="134" y="360"/>
      <point x="137" y="356"/>
      <point x="138" y="355" type="curve" smooth="yes"/>
      <point x="139" y="353"/>
      <point x="142" y="349"/>
      <point x="144" y="347" type="curve"/>
      <point x="147" y="343" type="line"/>
      <point x="153" y="337"/>
      <point x="160" y="331"/>
      <point x="168" y="327" type="curve"/>
      <point x="175" y="312" type="line"/>
      <point x="175" y="310"/>
      <point x="178" y="306"/>
      <point x="179" y="305" type="curve" smooth="yes"/>
      <point x="180" y="303"/>
      <point x="183" y="299"/>
      <point x="185" y="297" type="curve"/>
      <point x="188" y="293" type="line"/>
      <point x="202" y="281"/>
      <point x="220" y="270"/>
      <point x="239" y="269" type="curve"/>
      <point x="285" y="269" type="line"/>
      <point x="259" y="124" type="line"/>
      <point x="254" y="91"/>
      <point x="222" y="64"/>
      <point x="190" y="64" type="curve"/>
      <point x="180" y="64" type="line"/>
      <point x="182" y="74" type="line"/>
      <point x="195" y="149" type="line"/>
      <point x="145" y="149" type="line"/>
      <point x="154" y="199" type="line"/>
      <point x="79" y="199" type="line"/>
      <point x="65" y="124" type="line"/>
      <point x="56" y="73"/>
      <point x="76" y="29"/>
      <point x="112" y="6" type="curve"/>
      <point x="128" y="-34"/>
      <point x="167" y="-61"/>
      <point x="218" y="-61" type="curve" smooth="yes"/>
      <point x="291" y="-61"/>
      <point x="363" y="-1"/>
    </contour>
    <contour>
      <point x="306" y="389" type="line"/>
      <point x="299" y="391"/>
      <point x="292" y="392"/>
      <point x="284" y="393" type="curve"/>
      <point x="238" y="393" type="line"/>
      <point x="263" y="537" type="line"/>
      <point x="269" y="570"/>
      <point x="301" y="597"/>
      <point x="334" y="597" type="curve" smooth="yes"/>
      <point x="337" y="597"/>
      <point x="339" y="597"/>
      <point x="342" y="596" type="curve"/>
      <point x="342" y="593"/>
      <point x="342" y="590"/>
      <point x="341" y="587" type="curve"/>
    </contour>
  </outline>
</glyph>
<glyph name="colon" format="1">
  <advance width="251"/>
  <unicode hex="003A"/>
  <outline>
    <contour>
      <point x="171" y="315" type="line"/>
      <point x="197" y="315"/>
      <point x="214" y="293"/>
      <point x="210" y="267" type="curve" smooth="yes"/>
      <point x="205" y="241"/>
      <point x="180" y="219"/>
      <point x="154" y="219" type="curve"/>
      <point x="124" y="219" type="line"/>
      <point x="97" y="219"/>
      <point x="80" y="241"/>
      <point x="85" y="267" type="curve" smooth="yes"/>
      <point x="89" y="293"/>
      <point x="114" y="315"/>
      <point x="141" y="315" type="curve"/>
    </contour>
    <contour>
      <point x="165" y="451" type="line"/>
      <point x="138" y="451"/>
      <point x="121" y="472"/>
      <point x="126" y="500" type="curve" smooth="yes"/>
      <point x="130" y="526"/>
      <point x="155" y="547"/>
      <point x="182" y="547" type="curve"/>
      <point x="212" y="547" type="line"/>
      <point x="238" y="547"/>
      <point x="255" y="526"/>
      <point x="251" y="500" type="curve" smooth="yes"/>
      <point x="246" y="472"/>
      <point x="221" y="451"/>
      <point x="195" y="451" type="curve"/>
    </contour>
    <contour>
      <point x="204" y="391" type="curve"/>
      <point x="234" y="391" type="line"/>
      <point x="266" y="391"/>
      <point x="296" y="416"/>
      <point x="302" y="450" type="curve" smooth="yes"/>
      <point x="307" y="479"/>
      <point x="289" y="503"/>
      <point x="262" y="507" type="curve"/>
      <point x="263" y="535"/>
      <point x="243" y="557"/>
      <point x="214" y="557" type="curve"/>
      <point x="184" y="557" type="line"/>
      <point x="151" y="557"/>
      <point x="121" y="532"/>
      <point x="116" y="500" type="curve" smooth="yes"/>
      <point x="110" y="468"/>
      <point x="127" y="445"/>
      <point x="155" y="441" type="curve"/>
      <point x="154" y="412"/>
      <point x="174" y="391"/>
    </contour>
    <contour>
      <point x="173" y="325" type="curve"/>
      <point x="143" y="325" type="line"/>
      <point x="110" y="325"/>
      <point x="80" y="298"/>
      <point x="75" y="267" type="curve" smooth="yes"/>
      <point x="69" y="238"/>
      <point x="86" y="213"/>
      <point x="114" y="209" type="curve"/>
      <point x="114" y="182"/>
      <point x="134" y="159"/>
      <point x="164" y="159" type="curve"/>
      <point x="194" y="159" type="line"/>
      <point x="226" y="159"/>
      <point x="255" y="186"/>
      <point x="261" y="217" type="curve" smooth="yes"/>
      <point x="266" y="246"/>
      <point x="248" y="271"/>
      <point x="220" y="274" type="curve"/>
      <point x="222" y="302"/>
      <point x="202" y="325"/>
    </contour>
  </outline>
</glyph>
<glyph name="semicolon" format="1">
  <advance width="243"/>
  <unicode hex="003B"/>
  <outline>
    <contour>
      <point x="171" y="315" type="line"/>
      <point x="197" y="315"/>
      <point x="214" y="293"/>
      <point x="210" y="267" type="curve" smooth="yes"/>
      <point x="207" y="250"/>
      <point x="197" y="236"/>
      <point x="183" y="228" type="curve"/>
      <point x="130" y="165" type="line"/>
      <point x="130" y="166" type="line"/>
      <point x="123" y="158"/>
      <point x="113" y="153"/>
      <point x="106" y="153" type="curve" smooth="yes"/>
      <point x="101" y="153"/>
      <point x="96" y="155"/>
      <point x="92" y="158" type="curve" smooth="yes"/>
      <point x="81" y="166"/>
      <point x="81" y="182"/>
      <point x="91" y="194" type="curve"/>
      <point x="112" y="220" type="line"/>
      <point x="91" y="225"/>
      <point x="81" y="245"/>
      <point x="85" y="267" type="curve" smooth="yes"/>
      <point x="89" y="293"/>
      <point x="114" y="315"/>
      <point x="141" y="315" type="curve"/>
    </contour>
    <contour>
      <point x="165" y="451" type="line"/>
      <point x="138" y="451"/>
      <point x="121" y="472"/>
      <point x="126" y="500" type="curve" smooth="yes"/>
      <point x="130" y="526"/>
      <point x="155" y="547"/>
      <point x="182" y="547" type="curve"/>
      <point x="212" y="547" type="line"/>
      <point x="238" y="547"/>
      <point x="255" y="526"/>
      <point x="251" y="500" type="curve" smooth="yes"/>
      <point x="246" y="472"/>
      <point x="221" y="451"/>
      <point x="195" y="451" type="curve"/>
    </contour>
    <contour>
      <point x="173" y="325" type="curve"/>
      <point x="143" y="325" type="line"/>
      <point x="110" y="325"/>
      <point x="80" y="298"/>
      <point x="75" y="267" type="curve" smooth="yes"/>
      <point x="70" y="243"/>
      <point x="76" y="223"/>
      <point x="96" y="214" type="curve"/>
      <point x="84" y="199" type="line"/>
      <point x="70" y="182"/>
      <point x="70" y="160"/>
      <point x="86" y="149" type="curve"/>
      <point x="85" y="150" type="line"/>
      <point x="89" y="146"/>
      <point x="97" y="143"/>
      <point x="105" y="143" type="curve" smooth="yes"/>
      <point x="111" y="143"/>
      <point x="119" y="146"/>
      <point x="126" y="151" type="curve"/>
      <point x="125" y="149" type="line"/>
      <point x="111" y="132"/>
      <point x="111" y="110"/>
      <point x="127" y="99" type="curve"/>
      <point x="126" y="100" type="line"/>
      <point x="130" y="96"/>
      <point x="138" y="93"/>
      <point x="146" y="93" type="curve" smooth="yes"/>
      <point x="156" y="93"/>
      <point x="169" y="100"/>
      <point x="178" y="111" type="curve"/>
      <point x="178" y="110" type="line"/>
      <point x="228" y="170" type="line"/>
      <point x="245" y="180"/>
      <point x="257" y="197"/>
      <point x="261" y="217" type="curve" smooth="yes"/>
      <point x="266" y="246"/>
      <point x="248" y="271"/>
      <point x="220" y="274" type="curve"/>
      <point x="222" y="302"/>
      <point x="202" y="325"/>
    </contour>
    <contour>
      <point x="204" y="391" type="curve"/>
      <point x="234" y="391" type="line"/>
      <point x="266" y="391"/>
      <point x="296" y="416"/>
      <point x="302" y="450" type="curve" smooth="yes"/>
      <point x="307" y="479"/>
      <point x="289" y="503"/>
      <point x="262" y="507" type="curve"/>
      <point x="263" y="535"/>
      <point x="243" y="557"/>
      <point x="214" y="557" type="curve"/>
      <point x="184" y="557" type="line"/>
      <point x="151" y="557"/>
      <point x="121" y="532"/>
      <point x="116" y="500" type="curve" smooth="yes"/>
      <point x="110" y="468"/>
      <point x="127" y="445"/>
      <point x="155" y="441" type="curve"/>
      <point x="154" y="412"/>
      <point x="174" y="391"/>
    </contour>
  </outline>
</glyph>
<glyph name="less" format="1">
  <advance width="467"/>
  <unicode hex="003C"/>
  <outline>
    <contour>
      <point x="343" y="1" type="curve" smooth="yes"/>
      <point x="337" y="1"/>
      <point x="329" y="5"/>
      <point x="325" y="9" type="curve"/>
      <point x="78" y="363" type="line"/>
      <point x="450" y="718" type="line"/>
      <point x="461" y="728"/>
      <point x="478" y="729"/>
      <point x="486" y="720" type="curve" smooth="yes"/>
      <point x="495" y="711"/>
      <point x="493" y="694"/>
      <point x="482" y="683" type="curve"/>
      <point x="147" y="363" type="line"/>
      <point x="369" y="44" type="line"/>
      <point x="375" y="33"/>
      <point x="371" y="16"/>
      <point x="360" y="6" type="curve" smooth="yes"/>
      <point x="354" y="2"/>
      <point x="349" y="1"/>
    </contour>
    <contour>
      <point x="382" y="-59" type="curve" smooth="yes"/>
      <point x="390" y="-59"/>
      <point x="397" y="-58"/>
      <point x="405" y="-52" type="curve" smooth="yes"/>
      <point x="422" y="-38"/>
      <point x="426" y="-12"/>
      <point x="417" y="6" type="curve"/>
      <point x="202" y="313" type="line"/>
      <point x="530" y="626" type="line"/>
      <point x="545" y="641"/>
      <point x="548" y="665"/>
      <point x="536" y="677" type="curve" smooth="yes"/>
      <point x="526" y="688"/>
      <point x="508" y="689"/>
      <point x="493" y="681" type="curve"/>
      <point x="504" y="696"/>
      <point x="505" y="716"/>
      <point x="495" y="727" type="curve" smooth="yes"/>
      <point x="483" y="740"/>
      <point x="459" y="739"/>
      <point x="443" y="725" type="curve"/>
      <point x="64" y="363" type="line"/>
      <point x="314" y="4" type="line"/>
      <point x="318" y="0"/>
      <point x="322" y="-3"/>
      <point x="327" y="-5" type="curve"/>
      <point x="355" y="-46" type="line"/>
      <point x="362" y="-53"/>
      <point x="373" y="-59"/>
    </contour>
  </outline>
</glyph>
<glyph name="equal" format="1">
  <advance width="543"/>
  <unicode hex="003D"/>
  <outline>
    <contour>
      <point x="104" y="284" type="curve" smooth="yes"/>
      <point x="105" y="294"/>
      <point x="115" y="307"/>
      <point x="126" y="307" type="curve"/>
      <point x="472" y="307" type="line"/>
      <point x="483" y="307"/>
      <point x="488" y="294"/>
      <point x="487" y="284" type="curve" smooth="yes"/>
      <point x="484" y="272"/>
      <point x="474" y="260"/>
      <point x="463" y="260" type="curve"/>
      <point x="117" y="260" type="line"/>
      <point x="106" y="260"/>
      <point x="101" y="272"/>
    </contour>
    <contour>
      <point x="124" y="387" type="curve" smooth="yes"/>
      <point x="126" y="400"/>
      <point x="135" y="411"/>
      <point x="146" y="411" type="curve"/>
      <point x="492" y="411" type="line"/>
      <point x="503" y="411"/>
      <point x="509" y="400"/>
      <point x="507" y="387" type="curve" smooth="yes"/>
      <point x="505" y="376"/>
      <point x="495" y="364"/>
      <point x="484" y="364" type="curve"/>
      <point x="138" y="364" type="line"/>
      <point x="127" y="364"/>
      <point x="122" y="376"/>
    </contour>
    <contour>
      <point x="155" y="337" type="curve" smooth="yes"/>
      <point x="154" y="330"/>
      <point x="153" y="323"/>
      <point x="156" y="317" type="curve"/>
      <point x="127" y="317" type="line"/>
      <point x="110" y="317"/>
      <point x="96" y="298"/>
      <point x="94" y="284" type="curve" smooth="yes"/>
      <point x="91" y="267"/>
      <point x="99" y="250"/>
      <point x="116" y="250" type="curve"/>
      <point x="142" y="250" type="line"/>
      <point x="138" y="245"/>
      <point x="136" y="239"/>
      <point x="135" y="234" type="curve" smooth="yes"/>
      <point x="132" y="217"/>
      <point x="140" y="200"/>
      <point x="157" y="200" type="curve"/>
      <point x="503" y="200" type="line"/>
      <point x="520" y="200"/>
      <point x="535" y="217"/>
      <point x="538" y="234" type="curve" smooth="yes"/>
      <point x="540" y="248"/>
      <point x="532" y="267"/>
      <point x="515" y="267" type="curve"/>
      <point x="490" y="267" type="line"/>
      <point x="492" y="272"/>
      <point x="496" y="278"/>
      <point x="497" y="284" type="curve" smooth="yes"/>
      <point x="498" y="290"/>
      <point x="496" y="298"/>
      <point x="493" y="304" type="curve"/>
      <point x="523" y="304" type="line"/>
      <point x="540" y="304"/>
      <point x="555" y="321"/>
      <point x="558" y="337" type="curve" smooth="yes"/>
      <point x="561" y="355"/>
      <point x="552" y="371"/>
      <point x="535" y="371" type="curve"/>
      <point x="510" y="371" type="line"/>
      <point x="513" y="376"/>
      <point x="516" y="381"/>
      <point x="517" y="387" type="curve" smooth="yes"/>
      <point x="520" y="405"/>
      <point x="511" y="421"/>
      <point x="494" y="421" type="curve"/>
      <point x="148" y="421" type="line"/>
      <point x="131" y="421"/>
      <point x="117" y="405"/>
      <point x="114" y="387" type="curve" smooth="yes"/>
      <point x="111" y="371"/>
      <point x="119" y="354"/>
      <point x="136" y="354" type="curve"/>
      <point x="161" y="354" type="line"/>
      <point x="158" y="349"/>
      <point x="156" y="343"/>
    </contour>
  </outline>
</glyph>
<glyph name="greater" format="1">
  <advance width="471"/>
  <unicode hex="003E"/>
  <outline>
    <contour>
      <point x="115" y="-61" type="curve" smooth="yes"/>
      <point x="107" y="-61"/>
      <point x="97" y="-58"/>
      <point x="92" y="-52" type="curve" smooth="yes"/>
      <point x="81" y="-39"/>
      <point x="83" y="-19"/>
      <point x="96" y="-4" type="curve"/>
      <point x="89" y="-9"/>
      <point x="81" y="-11"/>
      <point x="74" y="-11" type="curve" smooth="yes"/>
      <point x="66" y="-11"/>
      <point x="56" y="-8"/>
      <point x="51" y="-2" type="curve" smooth="yes"/>
      <point x="38" y="11"/>
      <point x="42" y="33"/>
      <point x="57" y="48" type="curve"/>
      <point x="389" y="364" type="line"/>
      <point x="281" y="518" type="line"/>
      <point x="243" y="572"/>
      <point x="205" y="627"/>
      <point x="169" y="681" type="curve" smooth="yes"/>
      <point x="159" y="695"/>
      <point x="164" y="718"/>
      <point x="180" y="731" type="curve" smooth="yes"/>
      <point x="199" y="744"/>
      <point x="221" y="743"/>
      <point x="230" y="729" type="curve"/>
      <point x="258" y="688" type="line"/>
      <point x="263" y="687"/>
      <point x="268" y="683"/>
      <point x="271" y="679" type="curve"/>
      <point x="526" y="314" type="line"/>
      <point x="143" y="-50" type="line"/>
      <point x="134" y="-57"/>
      <point x="125" y="-61"/>
    </contour>
    <contour>
      <point x="75" y="-1" type="curve" smooth="yes"/>
      <point x="82" y="-1"/>
      <point x="90" y="2"/>
      <point x="96" y="7" type="curve"/>
      <point x="471" y="364" type="line"/>
      <point x="222" y="722" type="line"/>
      <point x="215" y="732"/>
      <point x="199" y="733"/>
      <point x="186" y="724" type="curve" smooth="yes"/>
      <point x="173" y="714"/>
      <point x="170" y="697"/>
      <point x="178" y="687" type="curve" smooth="yes"/>
      <point x="252" y="580"/>
      <point x="329" y="471"/>
      <point x="403" y="364" type="curve"/>
      <point x="296" y="262"/>
      <point x="171" y="143"/>
      <point x="64" y="42" type="curve" smooth="yes"/>
      <point x="53" y="31"/>
      <point x="50" y="15"/>
      <point x="59" y="5" type="curve" smooth="yes"/>
      <point x="63" y="1"/>
      <point x="69" y="-1"/>
    </contour>
  </outline>
</glyph>
<glyph name="question" format="1">
  <advance width="369"/>
  <unicode hex="003F"/>
  <outline>
    <contour>
      <point x="88" y="65" type="curve" smooth="yes"/>
      <point x="102" y="65"/>
      <point x="111" y="54"/>
      <point x="109" y="40" type="curve"/>
      <point x="106" y="26" type="line"/>
      <point x="104" y="12"/>
      <point x="91" y="1"/>
      <point x="77" y="1" type="curve" smooth="yes"/>
      <point x="62" y="1"/>
      <point x="54" y="12"/>
      <point x="56" y="26" type="curve"/>
      <point x="59" y="40" type="line"/>
      <point x="61" y="54"/>
      <point x="73" y="65"/>
    </contour>
    <contour>
      <point x="381" y="445" type="line"/>
      <point x="375" y="421"/>
      <point x="361" y="396"/>
      <point x="345" y="378" type="curve" smooth="yes"/>
      <point x="340" y="372"/>
      <point x="333" y="366"/>
      <point x="327" y="361" type="curve" smooth="yes"/>
      <point x="310" y="349"/>
      <point x="293" y="341"/>
      <point x="274" y="339" type="curve"/>
      <point x="271" y="338"/>
      <point x="266" y="338"/>
      <point x="264" y="338" type="curve"/>
      <point x="202" y="338" type="line"/>
      <point x="185" y="335"/>
      <point x="166" y="320"/>
      <point x="155" y="304" type="curve"/>
      <point x="119" y="97" type="line"/>
      <point x="69" y="97" type="line"/>
      <point x="100" y="274" type="line"/>
      <point x="105" y="302"/>
      <point x="119" y="329"/>
      <point x="137" y="350" type="curve" smooth="yes"/>
      <point x="142" y="355"/>
      <point x="149" y="360"/>
      <point x="156" y="365" type="curve"/>
      <point x="155" y="365" type="line"/>
      <point x="171" y="378"/>
      <point x="191" y="387"/>
      <point x="209" y="389" type="curve"/>
      <point x="214" y="389" type="line"/>
      <point x="215" y="389"/>
      <point x="216" y="390"/>
      <point x="218" y="390" type="curve"/>
      <point x="279" y="390" type="line"/>
      <point x="297" y="392"/>
      <point x="315" y="406"/>
      <point x="327" y="426" type="curve"/>
      <point x="358" y="602" type="line"/>
      <point x="365" y="643"/>
      <point x="337" y="677"/>
      <point x="296" y="677" type="curve" smooth="yes"/>
      <point x="255" y="677"/>
      <point x="215" y="643"/>
      <point x="208" y="602" type="curve"/>
      <point x="197" y="539" type="line"/>
      <point x="147" y="539" type="line"/>
      <point x="158" y="602" type="line"/>
      <point x="170" y="671"/>
      <point x="236" y="728"/>
      <point x="305" y="728" type="curve" smooth="yes"/>
      <point x="374" y="728"/>
      <point x="421" y="671"/>
      <point x="409" y="602" type="curve"/>
    </contour>
    <contour>
      <point x="90" y="75" type="curve" smooth="yes"/>
      <point x="69" y="75"/>
      <point x="52" y="60"/>
      <point x="49" y="40" type="curve"/>
      <point x="46" y="26" type="line"/>
      <point x="43" y="6"/>
      <point x="54" y="-9"/>
      <point x="75" y="-9" type="curve" smooth="yes"/>
      <point x="80" y="-9"/>
      <point x="85" y="-8"/>
      <point x="90" y="-6" type="curve"/>
      <point x="90" y="-10" type="line"/>
      <point x="87" y="-24" type="line"/>
      <point x="84" y="-44"/>
      <point x="95" y="-59"/>
      <point x="116" y="-59" type="curve" smooth="yes"/>
      <point x="136" y="-59"/>
      <point x="154" y="-44"/>
      <point x="157" y="-24" type="curve"/>
      <point x="160" y="-10" type="line"/>
      <point x="163" y="10"/>
      <point x="151" y="25"/>
      <point x="131" y="25" type="curve" smooth="yes"/>
      <point x="125" y="25"/>
      <point x="120" y="24"/>
      <point x="115" y="22" type="curve"/>
      <point x="116" y="26" type="line"/>
      <point x="118" y="37" type="line"/>
      <point x="168" y="37" type="line"/>
      <point x="206" y="252" type="line"/>
      <point x="215" y="263"/>
      <point x="231" y="274"/>
      <point x="244" y="278" type="curve"/>
      <point x="304" y="278" type="line"/>
      <point x="306" y="278"/>
      <point x="311" y="278"/>
      <point x="317" y="280" type="curve"/>
      <point x="315" y="279" type="line"/>
      <point x="335" y="281"/>
      <point x="355" y="290"/>
      <point x="373" y="303" type="curve" smooth="yes"/>
      <point x="380" y="309"/>
      <point x="388" y="316"/>
      <point x="393" y="322" type="curve" smooth="yes"/>
      <point x="410" y="341"/>
      <point x="426" y="369"/>
      <point x="432" y="394" type="curve"/>
      <point x="460" y="552" type="line"/>
      <point x="468" y="601"/>
      <point x="448" y="645"/>
      <point x="411" y="669" type="curve"/>
      <point x="395" y="710"/>
      <point x="356" y="738"/>
      <point x="307" y="738" type="curve" smooth="yes"/>
      <point x="232" y="738"/>
      <point x="161" y="676"/>
      <point x="148" y="602" type="curve"/>
      <point x="135" y="529" type="line"/>
      <point x="185" y="529" type="line"/>
      <point x="176" y="479" type="line"/>
      <point x="246" y="479" type="line"/>
      <point x="259" y="552" type="line"/>
      <point x="265" y="588"/>
      <point x="299" y="617"/>
      <point x="335" y="617" type="curve" smooth="yes"/>
      <point x="339" y="617"/>
      <point x="344" y="616"/>
      <point x="348" y="615" type="curve"/>
      <point x="348" y="611"/>
      <point x="348" y="606"/>
      <point x="348" y="602" type="curve"/>
      <point x="317" y="428" type="line"/>
      <point x="307" y="413"/>
      <point x="293" y="402"/>
      <point x="280" y="400" type="curve"/>
      <point x="220" y="400" type="line"/>
      <point x="219" y="400"/>
      <point x="218" y="399"/>
      <point x="217" y="399" type="curve"/>
      <point x="210" y="399" type="line"/>
      <point x="189" y="397"/>
      <point x="167" y="387"/>
      <point x="149" y="372" type="curve"/>
      <point x="130" y="356" type="line"/>
      <point x="110" y="334"/>
      <point x="95" y="305"/>
      <point x="90" y="274" type="curve"/>
      <point x="57" y="87" type="line"/>
      <point x="107" y="87" type="line"/>
      <point x="104" y="72" type="line"/>
      <point x="100" y="74"/>
      <point x="95" y="75"/>
    </contour>
    <contour>
      <point x="165" y="302" type="line"/>
      <point x="171" y="310"/>
      <point x="182" y="318"/>
      <point x="193" y="324" type="curve"/>
      <point x="190" y="322" type="line"/>
      <point x="171" y="306" type="line"/>
      <point x="164" y="297" type="line"/>
    </contour>
    <contour>
      <point x="352" y="372" type="curve"/>
      <point x="358" y="379" type="line"/>
      <point x="358" y="378" type="line"/>
      <point x="351" y="367"/>
      <point x="342" y="358"/>
      <point x="332" y="353" type="curve"/>
      <point x="339" y="359"/>
      <point x="347" y="366"/>
    </contour>
    <contour>
      <point x="253" y="654" type="curve"/>
      <point x="246" y="648"/>
      <point x="239" y="643"/>
      <point x="233" y="636" type="curve" smooth="yes"/>
      <point x="239" y="643"/>
      <point x="245" y="649"/>
    </contour>
  </outline>
</glyph>
<glyph name="at" format="1">
  <advance width="407"/>
  <unicode hex="0040"/>
  <outline>
    <contour>
      <point x="202" y="184" type="curve" smooth="yes"/>
      <point x="220" y="184"/>
      <point x="236" y="198"/>
      <point x="239" y="215" type="curve"/>
      <point x="254" y="298" type="line"/>
      <point x="257" y="316"/>
      <point x="246" y="329"/>
      <point x="228" y="329" type="curve" smooth="yes"/>
      <point x="212" y="329"/>
      <point x="194" y="316"/>
      <point x="191" y="298" type="curve"/>
      <point x="176" y="215" type="line"/>
      <point x="173" y="198"/>
      <point x="186" y="184"/>
    </contour>
    <contour>
      <point x="156" y="314" type="line"/>
      <point x="159" y="323"/>
      <point x="166" y="332"/>
      <point x="172" y="340" type="curve"/>
      <point x="160" y="340" type="line"/>
    </contour>
    <contour>
      <point x="305" y="730" type="curve" smooth="yes"/>
      <point x="375" y="730"/>
      <point x="422" y="673"/>
      <point x="410" y="603" type="curve"/>
      <point x="325" y="124" type="line"/>
      <point x="313" y="54"/>
      <point x="246" y="-3"/>
      <point x="176" y="-3" type="curve" smooth="yes"/>
      <point x="106" y="-3"/>
      <point x="60" y="54"/>
      <point x="72" y="124" type="curve"/>
      <point x="115" y="365" type="line"/>
      <point x="118" y="380"/>
      <point x="130" y="391"/>
      <point x="144" y="391" type="curve"/>
      <point x="227" y="391" type="line"/>
      <point x="271" y="391"/>
      <point x="292" y="363"/>
      <point x="294" y="318" type="curve"/>
      <point x="294" y="319" type="line"/>
      <point x="295" y="313"/>
      <point x="295" y="308"/>
      <point x="294" y="299" type="curve"/>
      <point x="279" y="215" type="line"/>
      <point x="272" y="175"/>
      <point x="235" y="143"/>
      <point x="195" y="143" type="curve" smooth="yes"/>
      <point x="162" y="143"/>
      <point x="138" y="166"/>
      <point x="135" y="198" type="curve"/>
      <point x="122" y="124" type="line"/>
      <point x="115" y="82"/>
      <point x="143" y="48"/>
      <point x="185" y="48" type="curve" smooth="yes"/>
      <point x="227" y="48"/>
      <point x="267" y="82"/>
      <point x="274" y="124" type="curve"/>
      <point x="359" y="603" type="line"/>
      <point x="366" y="645"/>
      <point x="338" y="679"/>
      <point x="296" y="679" type="curve" smooth="yes"/>
      <point x="254" y="679"/>
      <point x="214" y="645"/>
      <point x="207" y="603" type="curve"/>
      <point x="177" y="433" type="line"/>
      <point x="174" y="419"/>
      <point x="161" y="407"/>
      <point x="147" y="407" type="curve" smooth="yes"/>
      <point x="133" y="407"/>
      <point x="124" y="419"/>
      <point x="127" y="433" type="curve"/>
      <point x="157" y="603" type="line"/>
      <point x="169" y="673"/>
      <point x="235" y="730"/>
    </contour>
    <contour>
      <point x="307" y="740" type="curve" smooth="yes"/>
      <point x="231" y="740"/>
      <point x="160" y="679"/>
      <point x="147" y="603" type="curve"/>
      <point x="117" y="433" type="line"/>
      <point x="114" y="418"/>
      <point x="121" y="404"/>
      <point x="134" y="399" type="curve"/>
      <point x="119" y="394"/>
      <point x="108" y="381"/>
      <point x="105" y="365" type="curve"/>
      <point x="62" y="124" type="line"/>
      <point x="53" y="73"/>
      <point x="72" y="28"/>
      <point x="109" y="5" type="curve"/>
      <point x="125" y="-36"/>
      <point x="164" y="-63"/>
      <point x="215" y="-63" type="curve" smooth="yes"/>
      <point x="291" y="-63"/>
      <point x="363" y="-2"/>
      <point x="377" y="74" type="curve"/>
      <point x="461" y="553" type="line"/>
      <point x="470" y="604"/>
      <point x="450" y="648"/>
      <point x="413" y="671" type="curve"/>
      <point x="397" y="712"/>
      <point x="358" y="740"/>
    </contour>
    <contour>
      <point x="349" y="603" type="curve"/>
      <point x="303" y="345" type="line"/>
      <point x="303" y="346"/>
      <point x="302" y="346"/>
      <point x="301" y="346" type="curve"/>
      <point x="293" y="380"/>
      <point x="270" y="400"/>
      <point x="231" y="401" type="curve"/>
      <point x="258" y="553" type="line"/>
      <point x="264" y="589"/>
      <point x="300" y="619"/>
      <point x="336" y="619" type="curve" smooth="yes"/>
      <point x="341" y="619"/>
      <point x="344" y="618"/>
      <point x="349" y="617" type="curve"/>
      <point x="349" y="612"/>
      <point x="350" y="608"/>
    </contour>
    <contour>
      <point x="187" y="58" type="curve" smooth="yes"/>
      <point x="182" y="58"/>
      <point x="177" y="58"/>
      <point x="172" y="59" type="curve"/>
      <point x="172" y="64"/>
      <point x="173" y="69"/>
      <point x="174" y="74" type="curve"/>
      <point x="180" y="109" type="line"/>
      <point x="192" y="92"/>
      <point x="210" y="83"/>
      <point x="234" y="83" type="curve"/>
      <point x="243" y="83" type="line"/>
      <point x="228" y="68"/>
      <point x="208" y="58"/>
    </contour>
    <contour>
      <point x="245" y="144" type="curve" smooth="yes"/>
      <point x="243" y="144"/>
      <point x="240" y="144"/>
      <point x="238" y="145" type="curve"/>
      <point x="251" y="152"/>
      <point x="263" y="162"/>
      <point x="272" y="175" type="curve"/>
      <point x="271" y="165" type="line"/>
      <point x="268" y="153"/>
      <point x="257" y="144"/>
    </contour>
  </outline>
</glyph>
<glyph name="A" format="1">
  <advance width="413"/>
  <unicode hex="0041"/>
  <outline>
    <contour>
      <point x="360" y="605" type="line"/>
      <point x="367" y="644"/>
      <point x="341" y="677"/>
      <point x="301" y="677" type="curve" smooth="yes"/>
      <point x="261" y="677"/>
      <point x="223" y="644"/>
      <point x="216" y="605" type="curve"/>
      <point x="179" y="395" type="line"/>
      <point x="260" y="395" type="line"/>
      <point x="294" y="395"/>
      <point x="328" y="423"/>
      <point x="334" y="458" type="curve"/>
    </contour>
    <contour>
      <point x="311" y="733" type="curve" smooth="yes"/>
      <point x="382" y="733"/>
      <point x="428" y="675"/>
      <point x="415" y="605" type="curve"/>
      <point x="314" y="29" type="line"/>
      <point x="311" y="13"/>
      <point x="297" y="1"/>
      <point x="281" y="1" type="curve" smooth="yes"/>
      <point x="265" y="1"/>
      <point x="256" y="13"/>
      <point x="259" y="29" type="curve"/>
      <point x="316" y="356" type="line"/>
      <point x="298" y="348"/>
      <point x="270" y="340"/>
      <point x="250" y="340" type="curve"/>
      <point x="169" y="340" type="line"/>
      <point x="115" y="29" type="line"/>
      <point x="112" y="13"/>
      <point x="98" y="1"/>
      <point x="82" y="1" type="curve" smooth="yes"/>
      <point x="66" y="1"/>
      <point x="56" y="13"/>
      <point x="59" y="29" type="curve"/>
      <point x="160" y="605" type="line"/>
      <point x="173" y="675"/>
      <point x="240" y="733"/>
    </contour>
    <contour>
      <point x="313" y="743" type="curve" smooth="yes"/>
      <point x="236" y="743"/>
      <point x="163" y="680"/>
      <point x="150" y="605" type="curve"/>
      <point x="49" y="29" type="line"/>
      <point x="45" y="7"/>
      <point x="58" y="-9"/>
      <point x="80" y="-9" type="curve" smooth="yes"/>
      <point x="84" y="-9"/>
      <point x="88" y="-8"/>
      <point x="92" y="-7" type="curve"/>
      <point x="90" y="-21" type="line"/>
      <point x="86" y="-43"/>
      <point x="99" y="-59"/>
      <point x="121" y="-59" type="curve" smooth="yes"/>
      <point x="143" y="-59"/>
      <point x="162" y="-43"/>
      <point x="166" y="-21" type="curve"/>
      <point x="219" y="280" type="line"/>
      <point x="290" y="280" type="line"/>
      <point x="293" y="280" type="line"/>
      <point x="249" y="29" type="line"/>
      <point x="245" y="7"/>
      <point x="257" y="-9"/>
      <point x="279" y="-9" type="curve" smooth="yes"/>
      <point x="283" y="-9"/>
      <point x="288" y="-8"/>
      <point x="292" y="-7" type="curve"/>
      <point x="290" y="-21" type="line"/>
      <point x="286" y="-43"/>
      <point x="298" y="-59"/>
      <point x="320" y="-59" type="curve" smooth="yes"/>
      <point x="342" y="-59"/>
      <point x="361" y="-43"/>
      <point x="365" y="-21" type="curve"/>
      <point x="466" y="555" type="line"/>
      <point x="475" y="605"/>
      <point x="455" y="651"/>
      <point x="419" y="675" type="curve"/>
      <point x="402" y="715"/>
      <point x="364" y="743"/>
    </contour>
    <contour>
      <point x="324" y="458" type="line"/>
      <point x="319" y="429"/>
      <point x="291" y="405"/>
      <point x="262" y="405" type="curve"/>
      <point x="241" y="405" type="line"/>
      <point x="267" y="555" type="line"/>
      <point x="273" y="589"/>
      <point x="306" y="617"/>
      <point x="340" y="617" type="curve" smooth="yes"/>
      <point x="343" y="617"/>
      <point x="347" y="616"/>
      <point x="351" y="616" type="curve"/>
      <point x="350" y="612"/>
      <point x="351" y="608"/>
      <point x="350" y="605" type="curve"/>
    </contour>
  </outline>
</glyph>
<glyph name="B" format="1">
  <advance width="386"/>
  <unicode hex="0042"/>
  <outline>
    <contour>
      <point x="294" y="277" type="line"/>
      <point x="300" y="311"/>
      <point x="278" y="340"/>
      <point x="244" y="342" type="curve"/>
      <point x="155" y="342" type="line"/>
      <point x="117" y="127" type="line"/>
      <point x="109" y="85"/>
      <point x="137" y="51"/>
      <point x="179" y="51" type="curve" smooth="yes"/>
      <point x="220" y="51"/>
      <point x="260" y="85"/>
      <point x="268" y="127" type="curve"/>
    </contour>
    <contour>
      <point x="291" y="681" type="curve" smooth="yes"/>
      <point x="249" y="681"/>
      <point x="209" y="648"/>
      <point x="201" y="606" type="curve"/>
      <point x="164" y="393" type="line"/>
      <point x="254" y="393" type="line"/>
      <point x="288" y="395"/>
      <point x="320" y="423"/>
      <point x="326" y="459" type="curve"/>
      <point x="352" y="606" type="line"/>
      <point x="360" y="648"/>
      <point x="332" y="681"/>
    </contour>
    <contour>
      <point x="322" y="364" type="line"/>
      <point x="342" y="342"/>
      <point x="351" y="312"/>
      <point x="344" y="277" type="curve"/>
      <point x="318" y="127" type="line"/>
      <point x="306" y="57"/>
      <point x="240" y="0"/>
      <point x="171" y="0" type="curve" smooth="yes"/>
      <point x="142" y="0"/>
      <point x="117" y="10"/>
      <point x="99" y="26" type="curve"/>
      <point x="97" y="12"/>
      <point x="84" y="0"/>
      <point x="70" y="0" type="curve" smooth="yes"/>
      <point x="56" y="0"/>
      <point x="47" y="12"/>
      <point x="49" y="26" type="curve"/>
      <point x="152" y="607" type="line"/>
      <point x="164" y="676"/>
      <point x="230" y="732"/>
      <point x="300" y="732" type="curve" smooth="yes"/>
      <point x="369" y="732"/>
      <point x="415" y="675"/>
      <point x="402" y="606" type="curve"/>
      <point x="375" y="453" type="line"/>
      <point x="373" y="442"/>
      <point x="370" y="433"/>
      <point x="365" y="424" type="curve" smooth="yes"/>
      <point x="357" y="405"/>
      <point x="340" y="385"/>
      <point x="322" y="371" type="curve"/>
      <point x="317" y="368" type="line"/>
      <point x="321" y="365" type="line"/>
    </contour>
    <contour>
      <point x="301" y="742" type="curve" smooth="yes"/>
      <point x="225" y="742"/>
      <point x="155" y="682"/>
      <point x="142" y="607" type="curve"/>
      <point x="39" y="26" type="line"/>
      <point x="36" y="7"/>
      <point x="48" y="-10"/>
      <point x="68" y="-10" type="curve" smooth="yes"/>
      <point x="73" y="-10"/>
      <point x="78" y="-8"/>
      <point x="83" y="-6" type="curve"/>
      <point x="80" y="-24" type="line"/>
      <point x="77" y="-43"/>
      <point x="89" y="-60"/>
      <point x="109" y="-60" type="curve" smooth="yes"/>
      <point x="123" y="-60"/>
      <point x="136" y="-51"/>
      <point x="143" y="-40" type="curve"/>
      <point x="162" y="-53"/>
      <point x="183" y="-60"/>
      <point x="210" y="-60" type="curve" smooth="yes"/>
      <point x="285" y="-60"/>
      <point x="356" y="1"/>
      <point x="369" y="77" type="curve"/>
      <point x="396" y="227" type="line"/>
      <point x="402" y="263"/>
      <point x="393" y="294"/>
      <point x="374" y="317" type="curve"/>
      <point x="391" y="332"/>
      <point x="407" y="352"/>
      <point x="416" y="371" type="curve"/>
      <point x="415" y="371" type="line"/>
      <point x="421" y="382"/>
      <point x="425" y="392"/>
      <point x="427" y="403" type="curve"/>
      <point x="454" y="556" type="line"/>
      <point x="462" y="606"/>
      <point x="442" y="650"/>
      <point x="405" y="674" type="curve"/>
      <point x="389" y="714"/>
      <point x="351" y="742"/>
    </contour>
    <contour>
      <point x="258" y="127" type="line"/>
      <point x="252" y="91"/>
      <point x="217" y="61"/>
      <point x="181" y="61" type="curve" smooth="yes"/>
      <point x="176" y="61"/>
      <point x="171" y="62"/>
      <point x="168" y="63" type="curve"/>
      <point x="167" y="67"/>
      <point x="167" y="72"/>
      <point x="168" y="77" type="curve"/>
      <point x="204" y="282" type="line"/>
      <point x="283" y="282" type="line"/>
      <point x="285" y="282" type="line"/>
      <point x="284" y="277" type="line"/>
    </contour>
    <contour>
      <point x="330" y="621" type="curve" smooth="yes"/>
      <point x="334" y="621"/>
      <point x="339" y="620"/>
      <point x="343" y="619" type="curve"/>
      <point x="343" y="615"/>
      <point x="343" y="610"/>
      <point x="342" y="606" type="curve"/>
      <point x="316" y="459" type="line"/>
      <point x="311" y="428"/>
      <point x="284" y="405"/>
      <point x="256" y="403" type="curve"/>
      <point x="226" y="403" type="line"/>
      <point x="253" y="556" type="line"/>
      <point x="259" y="592"/>
      <point x="294" y="621"/>
    </contour>
    <contour>
      <point x="271" y="30" type="curve" smooth="yes"/>
      <point x="273" y="32"/>
      <point x="275" y="33"/>
      <point x="277" y="35" type="curve" smooth="yes"/>
      <point x="275" y="33"/>
      <point x="273" y="32"/>
    </contour>
  </outline>
</glyph>
<glyph name="C" format="1">
  <advance width="415"/>
  <unicode hex="0043"/>
  <outline>
    <contour>
      <point x="349" y="537" type="line"/>
      <point x="361" y="605" type="line"/>
      <point x="368" y="644"/>
      <point x="342" y="677"/>
      <point x="302" y="677" type="curve" smooth="yes"/>
      <point x="262" y="677"/>
      <point x="224" y="644"/>
      <point x="217" y="605" type="curve"/>
      <point x="133" y="128" type="line"/>
      <point x="126" y="89"/>
      <point x="152" y="56"/>
      <point x="192" y="56" type="curve" smooth="yes"/>
      <point x="232" y="56"/>
      <point x="270" y="89"/>
      <point x="277" y="128" type="curve"/>
      <point x="285" y="172" type="line"/>
      <point x="341" y="172" type="line"/>
      <point x="333" y="128" type="line"/>
      <point x="321" y="58"/>
      <point x="253" y="0"/>
      <point x="183" y="0" type="curve" smooth="yes"/>
      <point x="113" y="0"/>
      <point x="64" y="58"/>
      <point x="76" y="128" type="curve"/>
      <point x="160" y="605" type="line"/>
      <point x="173" y="675"/>
      <point x="242" y="733"/>
      <point x="312" y="733" type="curve" smooth="yes"/>
      <point x="382" y="733"/>
      <point x="430" y="675"/>
      <point x="417" y="605" type="curve"/>
      <point x="405" y="537" type="line"/>
    </contour>
    <contour>
      <point x="455" y="477" type="line"/>
      <point x="468" y="555" type="line"/>
      <point x="477" y="605"/>
      <point x="457" y="650"/>
      <point x="420" y="674" type="curve"/>
      <point x="404" y="715"/>
      <point x="364" y="743"/>
      <point x="314" y="743" type="curve" smooth="yes"/>
      <point x="239" y="743"/>
      <point x="163" y="680"/>
      <point x="150" y="605" type="curve"/>
      <point x="66" y="128" type="line"/>
      <point x="57" y="78"/>
      <point x="77" y="33"/>
      <point x="114" y="9" type="curve"/>
      <point x="131" y="-32"/>
      <point x="172" y="-60"/>
      <point x="222" y="-60" type="curve" smooth="yes"/>
      <point x="297" y="-60"/>
      <point x="371" y="3"/>
      <point x="384" y="78" type="curve"/>
      <point x="394" y="132" type="line"/>
      <point x="344" y="132" type="line"/>
      <point x="353" y="182" type="line"/>
      <point x="277" y="182" type="line"/>
      <point x="267" y="128" type="line"/>
      <point x="261" y="94"/>
      <point x="228" y="66"/>
      <point x="194" y="66" type="curve" smooth="yes"/>
      <point x="190" y="66"/>
      <point x="186" y="66"/>
      <point x="183" y="67" type="curve"/>
      <point x="183" y="70"/>
      <point x="184" y="74"/>
      <point x="184" y="78" type="curve"/>
      <point x="268" y="555" type="line"/>
      <point x="274" y="589"/>
      <point x="307" y="617"/>
      <point x="341" y="617" type="curve" smooth="yes"/>
      <point x="344" y="617"/>
      <point x="348" y="616"/>
      <point x="352" y="616" type="curve"/>
      <point x="351" y="612"/>
      <point x="352" y="608"/>
      <point x="351" y="605" type="curve"/>
      <point x="337" y="527" type="line"/>
      <point x="387" y="527" type="line"/>
      <point x="379" y="477" type="line"/>
    </contour>
  </outline>
</glyph>
<glyph name="D" format="1">
  <advance width="415"/>
  <unicode hex="0044"/>
  <outline>
    <contour>
      <point x="361" y="605" type="line"/>
      <point x="368" y="644"/>
      <point x="341" y="677"/>
      <point x="302" y="677" type="curve" smooth="yes"/>
      <point x="262" y="677"/>
      <point x="223" y="644"/>
      <point x="216" y="605" type="curve"/>
      <point x="132" y="128" type="line"/>
      <point x="125" y="89"/>
      <point x="152" y="56"/>
      <point x="192" y="56" type="curve" smooth="yes"/>
      <point x="231" y="56"/>
      <point x="270" y="89"/>
      <point x="277" y="128" type="curve"/>
    </contour>
    <contour>
      <point x="312" y="733" type="curve" smooth="yes"/>
      <point x="382" y="733"/>
      <point x="430" y="675"/>
      <point x="417" y="605" type="curve"/>
      <point x="333" y="128" type="line"/>
      <point x="321" y="58"/>
      <point x="253" y="0"/>
      <point x="183" y="0" type="curve" smooth="yes"/>
      <point x="155" y="0"/>
      <point x="131" y="9"/>
      <point x="113" y="22" type="curve"/>
      <point x="108" y="10"/>
      <point x="95" y="1"/>
      <point x="82" y="1" type="curve" smooth="yes"/>
      <point x="68" y="1"/>
      <point x="56" y="13"/>
      <point x="59" y="29" type="curve"/>
      <point x="178" y="704" type="line"/>
      <point x="180" y="720"/>
      <point x="197" y="732"/>
      <point x="211" y="732" type="curve" smooth="yes"/>
      <point x="224" y="732"/>
      <point x="234" y="723"/>
      <point x="235" y="710" type="curve"/>
      <point x="257" y="724"/>
      <point x="284" y="733"/>
    </contour>
    <contour>
      <point x="314" y="743" type="curve" smooth="yes"/>
      <point x="290" y="743"/>
      <point x="263" y="735"/>
      <point x="242" y="725" type="curve"/>
      <point x="238" y="738"/>
      <point x="227" y="742"/>
      <point x="212" y="742" type="curve" smooth="yes"/>
      <point x="193" y="742"/>
      <point x="172" y="726"/>
      <point x="168" y="704" type="curve"/>
      <point x="49" y="29" type="line"/>
      <point x="45" y="7"/>
      <point x="61" y="-9"/>
      <point x="80" y="-9" type="curve" smooth="yes"/>
      <point x="84" y="-9"/>
      <point x="88" y="-8"/>
      <point x="92" y="-7" type="curve"/>
      <point x="90" y="-21" type="line"/>
      <point x="86" y="-43"/>
      <point x="102" y="-59"/>
      <point x="121" y="-59" type="curve" smooth="yes"/>
      <point x="133" y="-59"/>
      <point x="149" y="-51"/>
      <point x="157" y="-42" type="curve"/>
      <point x="175" y="-51"/>
      <point x="199" y="-60"/>
      <point x="222" y="-60" type="curve" smooth="yes"/>
      <point x="297" y="-60"/>
      <point x="371" y="3"/>
      <point x="384" y="78" type="curve"/>
      <point x="468" y="555" type="line"/>
      <point x="477" y="605"/>
      <point x="457" y="650"/>
      <point x="420" y="674" type="curve"/>
      <point x="404" y="715"/>
      <point x="364" y="743"/>
    </contour>
    <contour>
      <point x="267" y="128" type="line"/>
      <point x="261" y="94"/>
      <point x="228" y="66"/>
      <point x="194" y="66" type="curve" smooth="yes"/>
      <point x="190" y="66"/>
      <point x="186" y="67"/>
      <point x="182" y="67" type="curve"/>
      <point x="182" y="71"/>
      <point x="183" y="74"/>
      <point x="183" y="78" type="curve"/>
      <point x="267" y="555" type="line"/>
      <point x="273" y="589"/>
      <point x="306" y="617"/>
      <point x="341" y="617" type="curve" smooth="yes"/>
      <point x="344" y="617"/>
      <point x="348" y="616"/>
      <point x="352" y="616" type="curve"/>
      <point x="351" y="612"/>
      <point x="352" y="608"/>
      <point x="351" y="605" type="curve"/>
    </contour>
  </outline>
</glyph>
<glyph name="E" format="1">
  <advance width="382"/>
  <unicode hex="0045"/>
  <outline>
    <contour>
      <point x="340" y="542" type="line"/>
      <point x="351" y="606" type="line"/>
      <point x="359" y="648"/>
      <point x="331" y="682"/>
      <point x="290" y="682" type="curve" smooth="yes"/>
      <point x="248" y="682"/>
      <point x="208" y="648"/>
      <point x="200" y="606" type="curve"/>
      <point x="163" y="393" type="line"/>
      <point x="249" y="393" type="line"/>
      <point x="285" y="393"/>
      <point x="319" y="422"/>
      <point x="325" y="458" type="curve" smooth="yes"/>
      <point x="328" y="473"/>
      <point x="341" y="484"/>
      <point x="356" y="484" type="curve" smooth="yes"/>
      <point x="369" y="484"/>
      <point x="379" y="473"/>
      <point x="376" y="458" type="curve" smooth="yes"/>
      <point x="365" y="394"/>
      <point x="304" y="341"/>
      <point x="240" y="341" type="curve"/>
      <point x="154" y="341" type="line"/>
      <point x="116" y="127" type="line"/>
      <point x="108" y="85"/>
      <point x="136" y="51"/>
      <point x="178" y="51" type="curve" smooth="yes"/>
      <point x="219" y="51"/>
      <point x="259" y="85"/>
      <point x="267" y="127" type="curve"/>
      <point x="274" y="168" type="line"/>
      <point x="325" y="168" type="line"/>
      <point x="318" y="127" type="line"/>
      <point x="306" y="57"/>
      <point x="239" y="0"/>
      <point x="170" y="0" type="curve" smooth="yes"/>
      <point x="100" y="0"/>
      <point x="53" y="57"/>
      <point x="65" y="127" type="curve"/>
      <point x="149" y="606" type="line"/>
      <point x="162" y="676"/>
      <point x="229" y="733"/>
      <point x="299" y="733" type="curve" smooth="yes"/>
      <point x="368" y="733"/>
      <point x="415" y="676"/>
      <point x="402" y="606" type="curve"/>
      <point x="391" y="542" type="line"/>
    </contour>
    <contour>
      <point x="440" y="482" type="line"/>
      <point x="454" y="556" type="line"/>
      <point x="463" y="607"/>
      <point x="442" y="651"/>
      <point x="405" y="674" type="curve"/>
      <point x="390" y="715"/>
      <point x="350" y="743"/>
      <point x="301" y="743" type="curve" smooth="yes"/>
      <point x="225" y="743"/>
      <point x="153" y="682"/>
      <point x="139" y="606" type="curve"/>
      <point x="55" y="127" type="line"/>
      <point x="46" y="76"/>
      <point x="65" y="32"/>
      <point x="102" y="8" type="curve"/>
      <point x="119" y="-32"/>
      <point x="158" y="-60"/>
      <point x="209" y="-60" type="curve" smooth="yes"/>
      <point x="283" y="-60"/>
      <point x="356" y="1"/>
      <point x="369" y="77" type="curve"/>
      <point x="378" y="128" type="line"/>
      <point x="328" y="128" type="line"/>
      <point x="337" y="178" type="line"/>
      <point x="266" y="178" type="line"/>
      <point x="257" y="127" type="line"/>
      <point x="251" y="91"/>
      <point x="216" y="61"/>
      <point x="180" y="61" type="curve" smooth="yes"/>
      <point x="175" y="61"/>
      <point x="170" y="61"/>
      <point x="165" y="62" type="curve"/>
      <point x="165" y="67"/>
      <point x="166" y="72"/>
      <point x="167" y="77" type="curve"/>
      <point x="203" y="281" type="line"/>
      <point x="279" y="281" type="line"/>
      <point x="349" y="281"/>
      <point x="415" y="339"/>
      <point x="427" y="408" type="curve" smooth="yes"/>
      <point x="431" y="429"/>
      <point x="417" y="444"/>
      <point x="399" y="444" type="curve" smooth="yes"/>
      <point x="393" y="444"/>
      <point x="387" y="443"/>
      <point x="382" y="441" type="curve"/>
      <point x="383" y="446"/>
      <point x="385" y="452"/>
      <point x="386" y="458" type="curve" smooth="yes"/>
      <point x="388" y="467"/>
      <point x="385" y="476"/>
      <point x="381" y="482" type="curve"/>
    </contour>
    <contour>
      <point x="358" y="494" type="curve" smooth="yes"/>
      <point x="337" y="494"/>
      <point x="319" y="479"/>
      <point x="315" y="458" type="curve" smooth="yes"/>
      <point x="310" y="428"/>
      <point x="281" y="403"/>
      <point x="251" y="403" type="curve"/>
      <point x="225" y="403" type="line"/>
      <point x="252" y="556" type="line"/>
      <point x="258" y="592"/>
      <point x="293" y="622"/>
      <point x="329" y="622" type="curve" smooth="yes"/>
      <point x="333" y="622"/>
      <point x="338" y="621"/>
      <point x="342" y="620" type="curve"/>
      <point x="342" y="615"/>
      <point x="342" y="611"/>
      <point x="341" y="606" type="curve"/>
      <point x="328" y="532" type="line"/>
      <point x="378" y="532" type="line"/>
      <point x="371" y="491" type="line"/>
      <point x="366" y="493"/>
      <point x="363" y="494"/>
    </contour>
  </outline>
</glyph>
<glyph name="F" format="1">
  <advance width="415"/>
  <unicode hex="0046"/>
  <outline>
    <contour>
      <point x="349" y="536" type="line"/>
      <point x="361" y="604" type="line"/>
      <point x="368" y="643"/>
      <point x="341" y="676"/>
      <point x="302" y="676" type="curve" smooth="yes"/>
      <point x="262" y="676"/>
      <point x="224" y="643"/>
      <point x="217" y="604" type="curve"/>
      <point x="180" y="395" type="line"/>
      <point x="261" y="395" type="line"/>
      <point x="295" y="395"/>
      <point x="329" y="422"/>
      <point x="335" y="457" type="curve" smooth="yes"/>
      <point x="338" y="473"/>
      <point x="351" y="485"/>
      <point x="368" y="485" type="curve" smooth="yes"/>
      <point x="382" y="485"/>
      <point x="394" y="473"/>
      <point x="391" y="457" type="curve" smooth="yes"/>
      <point x="380" y="392"/>
      <point x="317" y="339"/>
      <point x="251" y="339" type="curve"/>
      <point x="170" y="339" type="line"/>
      <point x="115" y="26" type="line"/>
      <point x="113" y="12"/>
      <point x="98" y="-2"/>
      <point x="81" y="-2" type="curve" smooth="yes"/>
      <point x="67" y="-2"/>
      <point x="56" y="12"/>
      <point x="58" y="26" type="curve"/>
      <point x="160" y="605" type="line"/>
      <point x="174" y="676"/>
      <point x="241" y="732"/>
      <point x="312" y="732" type="curve" smooth="yes"/>
      <point x="382" y="732"/>
      <point x="429" y="674"/>
      <point x="417" y="604" type="curve"/>
      <point x="405" y="536" type="line"/>
    </contour>
    <contour>
      <point x="454" y="476" type="line"/>
      <point x="468" y="554" type="line"/>
      <point x="477" y="604"/>
      <point x="457" y="649"/>
      <point x="420" y="673" type="curve"/>
      <point x="403" y="714"/>
      <point x="363" y="742"/>
      <point x="313" y="742" type="curve" smooth="yes"/>
      <point x="236" y="742"/>
      <point x="165" y="682"/>
      <point x="150" y="605" type="curve"/>
      <point x="48" y="26" type="line"/>
      <point x="45" y="7"/>
      <point x="60" y="-12"/>
      <point x="79" y="-12" type="curve" smooth="yes"/>
      <point x="83" y="-12"/>
      <point x="88" y="-11"/>
      <point x="92" y="-10" type="curve"/>
      <point x="89" y="-24" type="line"/>
      <point x="86" y="-43"/>
      <point x="102" y="-62"/>
      <point x="121" y="-62" type="curve" smooth="yes"/>
      <point x="144" y="-62"/>
      <point x="163" y="-43"/>
      <point x="166" y="-24" type="curve"/>
      <point x="220" y="279" type="line"/>
      <point x="291" y="279" type="line"/>
      <point x="363" y="279"/>
      <point x="430" y="336"/>
      <point x="442" y="407" type="curve" smooth="yes"/>
      <point x="446" y="429"/>
      <point x="430" y="445"/>
      <point x="411" y="445" type="curve" smooth="yes"/>
      <point x="406" y="445"/>
      <point x="402" y="444"/>
      <point x="398" y="443" type="curve"/>
      <point x="398" y="447"/>
      <point x="400" y="452"/>
      <point x="401" y="457" type="curve" smooth="yes"/>
      <point x="402" y="464"/>
      <point x="401" y="470"/>
      <point x="399" y="476" type="curve"/>
    </contour>
    <contour>
      <point x="370" y="495" type="curve" smooth="yes"/>
      <point x="347" y="495"/>
      <point x="329" y="479"/>
      <point x="325" y="457" type="curve" smooth="yes"/>
      <point x="320" y="428"/>
      <point x="292" y="405"/>
      <point x="263" y="405" type="curve"/>
      <point x="242" y="405" type="line"/>
      <point x="268" y="554" type="line"/>
      <point x="274" y="588"/>
      <point x="307" y="616"/>
      <point x="341" y="616" type="curve" smooth="yes"/>
      <point x="344" y="616"/>
      <point x="348" y="615"/>
      <point x="352" y="615" type="curve"/>
      <point x="351" y="611"/>
      <point x="352" y="607"/>
      <point x="351" y="604" type="curve"/>
      <point x="337" y="526" type="line"/>
      <point x="387" y="526" type="line"/>
      <point x="381" y="493" type="line"/>
      <point x="378" y="494"/>
      <point x="374" y="495"/>
    </contour>
  </outline>
</glyph>
<glyph name="G" format="1">
  <advance width="385"/>
  <unicode hex="0047"/>
  <outline>
    <contour>
      <point x="340" y="544" type="line"/>
      <point x="352" y="607" type="line"/>
      <point x="359" y="649"/>
      <point x="331" y="683"/>
      <point x="290" y="683" type="curve" smooth="yes"/>
      <point x="248" y="683"/>
      <point x="208" y="649"/>
      <point x="201" y="607" type="curve"/>
      <point x="116" y="128" type="line"/>
      <point x="109" y="86"/>
      <point x="137" y="52"/>
      <point x="179" y="52" type="curve" smooth="yes"/>
      <point x="220" y="52"/>
      <point x="260" y="86"/>
      <point x="267" y="128" type="curve"/>
      <point x="305" y="343" type="line"/>
      <point x="275" y="343" type="line"/>
      <point x="240" y="343"/>
      <point x="226" y="288"/>
      <point x="220" y="251" type="curve" smooth="yes"/>
      <point x="217" y="236"/>
      <point x="204" y="226"/>
      <point x="189" y="226" type="curve" smooth="yes"/>
      <point x="175" y="226"/>
      <point x="166" y="236"/>
      <point x="169" y="251" type="curve" smooth="yes"/>
      <point x="180" y="314"/>
      <point x="218" y="394"/>
      <point x="284" y="394" type="curve"/>
      <point x="340" y="394" type="line"/>
      <point x="353" y="394"/>
      <point x="363" y="383"/>
      <point x="361" y="369" type="curve"/>
      <point x="318" y="128" type="line"/>
      <point x="306" y="58"/>
      <point x="239" y="1"/>
      <point x="170" y="1" type="curve" smooth="yes"/>
      <point x="100" y="1"/>
      <point x="53" y="58"/>
      <point x="65" y="128" type="curve"/>
      <point x="150" y="607" type="line"/>
      <point x="162" y="677"/>
      <point x="229" y="734"/>
      <point x="299" y="734" type="curve" smooth="yes"/>
      <point x="368" y="734"/>
      <point x="415" y="677"/>
      <point x="403" y="607" type="curve"/>
      <point x="391" y="544" type="line"/>
    </contour>
    <contour>
      <point x="441" y="484" type="line"/>
      <point x="454" y="557" type="line"/>
      <point x="463" y="608"/>
      <point x="442" y="652"/>
      <point x="406" y="675" type="curve"/>
      <point x="390" y="716"/>
      <point x="350" y="744"/>
      <point x="301" y="744" type="curve" smooth="yes"/>
      <point x="225" y="744"/>
      <point x="153" y="683"/>
      <point x="140" y="607" type="curve"/>
      <point x="55" y="128" type="line"/>
      <point x="46" y="77"/>
      <point x="65" y="33"/>
      <point x="102" y="9" type="curve"/>
      <point x="119" y="-31"/>
      <point x="158" y="-59"/>
      <point x="209" y="-59" type="curve" smooth="yes"/>
      <point x="283" y="-59"/>
      <point x="356" y="2"/>
      <point x="369" y="78" type="curve"/>
      <point x="412" y="319" type="line"/>
      <point x="415" y="339"/>
      <point x="401" y="354"/>
      <point x="383" y="354" type="curve"/>
      <point x="368" y="354" type="line"/>
      <point x="371" y="369" type="line"/>
      <point x="374" y="389"/>
      <point x="360" y="404"/>
      <point x="342" y="404" type="curve"/>
      <point x="286" y="404" type="line"/>
      <point x="260" y="404"/>
      <point x="238" y="393"/>
      <point x="220" y="376" type="curve"/>
      <point x="252" y="557" type="line"/>
      <point x="258" y="593"/>
      <point x="293" y="623"/>
      <point x="329" y="623" type="curve" smooth="yes"/>
      <point x="333" y="623"/>
      <point x="338" y="622"/>
      <point x="342" y="621" type="curve"/>
      <point x="342" y="616"/>
      <point x="342" y="612"/>
      <point x="342" y="607" type="curve"/>
      <point x="329" y="534" type="line"/>
      <point x="379" y="534" type="line"/>
      <point x="370" y="484" type="line"/>
    </contour>
    <contour>
      <point x="203" y="219" type="curve"/>
      <point x="200" y="201" type="line"/>
      <point x="196" y="180"/>
      <point x="209" y="166"/>
      <point x="229" y="166" type="curve" smooth="yes"/>
      <point x="246" y="166"/>
      <point x="262" y="176"/>
      <point x="268" y="191" type="curve"/>
      <point x="257" y="128" type="line"/>
      <point x="251" y="92"/>
      <point x="216" y="62"/>
      <point x="180" y="62" type="curve" smooth="yes"/>
      <point x="175" y="62"/>
      <point x="171" y="63"/>
      <point x="167" y="64" type="curve"/>
      <point x="166" y="68"/>
      <point x="166" y="73"/>
      <point x="167" y="78" type="curve"/>
      <point x="192" y="216" type="line"/>
      <point x="196" y="216"/>
      <point x="200" y="217"/>
    </contour>
    <contour>
      <point x="267" y="332" type="curve"/>
      <point x="260" y="326"/>
      <point x="253" y="320"/>
      <point x="248" y="312" type="curve"/>
      <point x="252" y="322"/>
      <point x="259" y="329"/>
    </contour>
  </outline>
</glyph>
<glyph name="H" format="1">
  <advance width="402"/>
  <unicode hex="0048"/>
  <outline>
    <contour>
      <point x="406" y="733" type="curve" smooth="yes"/>
      <point x="419" y="733"/>
      <point x="429" y="721"/>
      <point x="426" y="707" type="curve"/>
      <point x="306" y="26" type="line"/>
      <point x="304" y="13"/>
      <point x="290" y="1"/>
      <point x="277" y="1" type="curve" smooth="yes"/>
      <point x="262" y="1"/>
      <point x="253" y="13"/>
      <point x="255" y="26" type="curve"/>
      <point x="314" y="361" type="line"/>
      <point x="294" y="349"/>
      <point x="269" y="341"/>
      <point x="245" y="341" type="curve"/>
      <point x="160" y="341" type="line"/>
      <point x="104" y="26" type="line"/>
      <point x="102" y="12"/>
      <point x="88" y="0"/>
      <point x="75" y="0" type="curve" smooth="yes"/>
      <point x="61" y="0"/>
      <point x="51" y="12"/>
      <point x="53" y="26" type="curve"/>
      <point x="173" y="707" type="line"/>
      <point x="176" y="721"/>
      <point x="190" y="732"/>
      <point x="204" y="732" type="curve" smooth="yes"/>
      <point x="217" y="732"/>
      <point x="227" y="721"/>
      <point x="224" y="707" type="curve"/>
      <point x="169" y="393" type="line"/>
      <point x="254" y="393" type="line"/>
      <point x="291" y="393"/>
      <point x="325" y="422"/>
      <point x="331" y="458" type="curve"/>
      <point x="375" y="707" type="line"/>
      <point x="378" y="721"/>
      <point x="391" y="733"/>
    </contour>
    <contour>
      <point x="449" y="693" type="curve" smooth="yes"/>
      <point x="443" y="693"/>
      <point x="438" y="692"/>
      <point x="433" y="690" type="curve"/>
      <point x="436" y="707" type="line"/>
      <point x="440" y="726"/>
      <point x="426" y="743"/>
      <point x="408" y="743" type="curve" smooth="yes"/>
      <point x="387" y="743"/>
      <point x="369" y="726"/>
      <point x="365" y="707" type="curve"/>
      <point x="321" y="458" type="line"/>
      <point x="316" y="428"/>
      <point x="287" y="403"/>
      <point x="256" y="403" type="curve"/>
      <point x="231" y="403" type="line"/>
      <point x="275" y="657" type="line"/>
      <point x="279" y="677"/>
      <point x="265" y="692"/>
      <point x="247" y="692" type="curve" smooth="yes"/>
      <point x="242" y="692"/>
      <point x="235" y="691"/>
      <point x="231" y="689" type="curve"/>
      <point x="234" y="707" type="line"/>
      <point x="238" y="727"/>
      <point x="223" y="742"/>
      <point x="205" y="742" type="curve" smooth="yes"/>
      <point x="186" y="742"/>
      <point x="167" y="727"/>
      <point x="163" y="707" type="curve"/>
      <point x="43" y="26" type="line"/>
      <point x="40" y="7"/>
      <point x="54" y="-10"/>
      <point x="73" y="-10" type="curve" smooth="yes"/>
      <point x="78" y="-10"/>
      <point x="82" y="-8"/>
      <point x="87" y="-6" type="curve"/>
      <point x="84" y="-24" type="line"/>
      <point x="81" y="-43"/>
      <point x="95" y="-60"/>
      <point x="114" y="-60" type="curve" smooth="yes"/>
      <point x="132" y="-60"/>
      <point x="152" y="-43"/>
      <point x="155" y="-24" type="curve"/>
      <point x="209" y="281" type="line"/>
      <point x="284" y="281" type="line"/>
      <point x="290" y="281" type="line"/>
      <point x="245" y="26" type="line"/>
      <point x="242" y="8"/>
      <point x="254" y="-9"/>
      <point x="275" y="-9" type="curve" smooth="yes"/>
      <point x="280" y="-9"/>
      <point x="284" y="-7"/>
      <point x="290" y="-5" type="curve"/>
      <point x="286" y="-24" type="line"/>
      <point x="283" y="-42"/>
      <point x="295" y="-59"/>
      <point x="316" y="-59" type="curve" smooth="yes"/>
      <point x="334" y="-59"/>
      <point x="354" y="-42"/>
      <point x="357" y="-24" type="curve"/>
      <point x="477" y="657" type="line"/>
      <point x="481" y="676"/>
      <point x="467" y="693"/>
    </contour>
  </outline>
</glyph>
<glyph name="I" format="1">
  <advance width="306"/>
  <unicode hex="0049"/>
  <outline>
    <contour>
      <point x="214" y="69" type="curve" smooth="yes"/>
      <point x="205" y="19"/>
      <point x="179" y="5"/>
      <point x="139" y="1" type="curve"/>
      <point x="134" y="-1"/>
      <point x="129" y="-1"/>
      <point x="127" y="-1" type="curve" smooth="yes"/>
      <point x="124" y="-1"/>
      <point x="122" y="-1"/>
      <point x="120" y="0" type="curve"/>
      <point x="86" y="0" type="line"/>
      <point x="69" y="0"/>
      <point x="59" y="12"/>
      <point x="61" y="27" type="curve" smooth="yes"/>
      <point x="64" y="44"/>
      <point x="78" y="55"/>
      <point x="95" y="55" type="curve"/>
      <point x="100" y="55" type="line"/>
      <point x="107" y="55"/>
      <point x="103" y="56"/>
      <point x="109" y="55" type="curve"/>
      <point x="213" y="641" type="line"/>
      <point x="207" y="637"/>
      <point x="199" y="635"/>
      <point x="193" y="635" type="curve" smooth="yes"/>
      <point x="177" y="635"/>
      <point x="167" y="646"/>
      <point x="170" y="663" type="curve" smooth="yes"/>
      <point x="183" y="732"/>
      <point x="228" y="732"/>
      <point x="293" y="732" type="curve"/>
      <point x="300" y="732" type="line"/>
      <point x="317" y="732"/>
      <point x="325" y="720"/>
      <point x="323" y="704" type="curve" smooth="yes"/>
      <point x="320" y="689"/>
      <point x="307" y="676"/>
      <point x="290" y="676" type="curve"/>
      <point x="275" y="676" type="line"/>
      <point x="171" y="90" type="line"/>
      <point x="177" y="94"/>
      <point x="183" y="97"/>
      <point x="191" y="97" type="curve" smooth="yes"/>
      <point x="208" y="97"/>
      <point x="216" y="84"/>
    </contour>
    <contour>
      <point x="265" y="19" type="curve" smooth="yes"/>
      <point x="268" y="39"/>
      <point x="257" y="57"/>
      <point x="234" y="57" type="curve" smooth="yes"/>
      <point x="230" y="57"/>
      <point x="229" y="57"/>
      <point x="225" y="56" type="curve"/>
      <point x="324" y="616" type="line"/>
      <point x="329" y="616" type="line"/>
      <point x="352" y="616"/>
      <point x="370" y="634"/>
      <point x="374" y="654" type="curve" smooth="yes"/>
      <point x="378" y="676"/>
      <point x="366" y="692"/>
      <point x="343" y="692" type="curve"/>
      <point x="336" y="692" type="line"/>
      <point x="329" y="692" type="line"/>
      <point x="330" y="696"/>
      <point x="332" y="700"/>
      <point x="333" y="704" type="curve" smooth="yes"/>
      <point x="337" y="726"/>
      <point x="324" y="742"/>
      <point x="301" y="742" type="curve"/>
      <point x="294" y="742" type="line"/>
      <point x="223" y="742"/>
      <point x="174" y="742"/>
      <point x="160" y="663" type="curve" smooth="yes"/>
      <point x="156" y="640"/>
      <point x="170" y="625"/>
      <point x="192" y="625" type="curve" smooth="yes"/>
      <point x="194" y="625"/>
      <point x="198" y="626"/>
      <point x="200" y="626" type="curve"/>
      <point x="101" y="65" type="line"/>
      <point x="97" y="65" type="line"/>
      <point x="74" y="65"/>
      <point x="55" y="50"/>
      <point x="51" y="27" type="curve" smooth="yes"/>
      <point x="48" y="6"/>
      <point x="61" y="-10"/>
      <point x="84" y="-10" type="curve"/>
      <point x="97" y="-10" type="line"/>
      <point x="95" y="-14"/>
      <point x="93" y="-18"/>
      <point x="92" y="-23" type="curve" smooth="yes"/>
      <point x="89" y="-44"/>
      <point x="102" y="-60"/>
      <point x="125" y="-60" type="curve"/>
      <point x="159" y="-60" type="line"/>
      <point x="162" y="-61"/>
      <point x="165" y="-61"/>
      <point x="167" y="-61" type="curve" smooth="yes"/>
      <point x="169" y="-61"/>
      <point x="174" y="-60"/>
      <point x="179" y="-59" type="curve" smooth="yes"/>
      <point x="225" y="-55"/>
      <point x="255" y="-37"/>
    </contour>
  </outline>
</glyph>
<glyph name="J" format="1">
  <advance width="361"/>
  <unicode hex="004A"/>
  <outline>
    <contour>
      <point x="357" y="734" type="line"/>
      <point x="372" y="734"/>
      <point x="383" y="720"/>
      <point x="381" y="706" type="curve" smooth="yes"/>
      <point x="378" y="689"/>
      <point x="362" y="678"/>
      <point x="347" y="678" type="curve"/>
      <point x="341" y="678" type="line"/>
      <point x="334" y="678"/>
      <point x="336" y="677"/>
      <point x="330" y="678" type="curve"/>
      <point x="233" y="129" type="line"/>
      <point x="221" y="59"/>
      <point x="152" y="1"/>
      <point x="82" y="1" type="curve" smooth="yes"/>
      <point x="68" y="1"/>
      <point x="56" y="13"/>
      <point x="59" y="29" type="curve" smooth="yes"/>
      <point x="61" y="44"/>
      <point x="78" y="57"/>
      <point x="92" y="57" type="curve" smooth="yes"/>
      <point x="132" y="57"/>
      <point x="169" y="90"/>
      <point x="176" y="129" type="curve"/>
      <point x="267" y="641" type="line"/>
      <point x="261" y="638"/>
      <point x="257" y="637"/>
      <point x="251" y="637" type="curve" smooth="yes"/>
      <point x="236" y="637"/>
      <point x="225" y="648"/>
      <point x="228" y="664" type="curve" smooth="yes"/>
      <point x="240" y="734"/>
      <point x="285" y="734"/>
      <point x="351" y="734" type="curve"/>
    </contour>
    <contour>
      <point x="400" y="694" type="curve"/>
      <point x="394" y="694" type="line"/>
      <point x="387" y="694" type="line"/>
      <point x="388" y="697"/>
      <point x="390" y="702"/>
      <point x="391" y="706" type="curve" smooth="yes"/>
      <point x="394" y="725"/>
      <point x="379" y="744"/>
      <point x="359" y="744" type="curve"/>
      <point x="353" y="744" type="line"/>
      <point x="281" y="744"/>
      <point x="232" y="744"/>
      <point x="218" y="664" type="curve" smooth="yes"/>
      <point x="214" y="642"/>
      <point x="229" y="627"/>
      <point x="249" y="627" type="curve"/>
      <point x="254" y="627" type="line"/>
      <point x="166" y="129" type="line"/>
      <point x="160" y="95"/>
      <point x="127" y="67"/>
      <point x="93" y="67" type="curve" smooth="yes"/>
      <point x="74" y="67"/>
      <point x="52" y="49"/>
      <point x="49" y="29" type="curve" smooth="yes"/>
      <point x="45" y="7"/>
      <point x="61" y="-9"/>
      <point x="80" y="-9" type="curve" smooth="yes"/>
      <point x="85" y="-9"/>
      <point x="89" y="-8"/>
      <point x="94" y="-8" type="curve"/>
      <point x="92" y="-12"/>
      <point x="91" y="-16"/>
      <point x="90" y="-21" type="curve" smooth="yes"/>
      <point x="86" y="-43"/>
      <point x="102" y="-59"/>
      <point x="121" y="-59" type="curve" smooth="yes"/>
      <point x="196" y="-59"/>
      <point x="271" y="4"/>
      <point x="284" y="79" type="curve"/>
      <point x="379" y="618" type="line"/>
      <point x="386" y="618" type="line"/>
      <point x="406" y="618"/>
      <point x="428" y="633"/>
      <point x="432" y="656" type="curve" smooth="yes"/>
      <point x="436" y="675"/>
      <point x="420" y="694"/>
    </contour>
  </outline>
</glyph>
<glyph name="K" format="1">
  <advance width="469"/>
  <unicode hex="004B"/>
  <outline>
    <contour>
      <point x="473" y="722" type="line"/>
      <point x="488" y="716"/>
      <point x="491" y="700"/>
      <point x="482" y="686" type="curve" smooth="yes"/>
      <point x="474" y="671"/>
      <point x="457" y="665"/>
      <point x="444" y="671" type="curve" smooth="yes"/>
      <point x="436" y="674"/>
      <point x="429" y="675"/>
      <point x="421" y="675" type="curve" smooth="yes"/>
      <point x="391" y="675"/>
      <point x="358" y="655"/>
      <point x="342" y="625" type="curve"/>
      <point x="193" y="396" type="line"/>
      <point x="192" y="393"/>
      <point x="193" y="394"/>
      <point x="190" y="392" type="curve"/>
      <point x="192" y="387" type="line"/>
      <point x="192" y="388" type="line"/>
      <point x="261" y="102" type="line"/>
      <point x="269" y="75"/>
      <point x="280" y="56"/>
      <point x="301" y="56" type="curve" smooth="yes"/>
      <point x="308" y="56"/>
      <point x="317" y="58"/>
      <point x="325" y="61" type="curve" smooth="yes"/>
      <point x="342" y="67"/>
      <point x="356" y="61"/>
      <point x="360" y="47" type="curve" smooth="yes"/>
      <point x="363" y="32"/>
      <point x="353" y="16"/>
      <point x="338" y="10" type="curve" smooth="yes"/>
      <point x="321" y="3"/>
      <point x="307" y="0"/>
      <point x="293" y="0" type="curve" smooth="yes"/>
      <point x="249" y="0"/>
      <point x="218" y="33"/>
      <point x="207" y="81" type="curve" smooth="yes"/>
      <point x="189" y="155"/>
      <point x="177" y="199"/>
      <point x="158" y="275" type="curve"/>
      <point x="114" y="28" type="line"/>
      <point x="112" y="12"/>
      <point x="98" y="0"/>
      <point x="83" y="0" type="curve" smooth="yes"/>
      <point x="66" y="0"/>
      <point x="56" y="12"/>
      <point x="58" y="28" type="curve"/>
      <point x="160" y="603" type="line"/>
      <point x="172" y="673"/>
      <point x="200" y="731"/>
      <point x="273" y="731" type="curve" smooth="yes"/>
      <point x="289" y="731"/>
      <point x="298" y="719"/>
      <point x="295" y="703" type="curve" smooth="yes"/>
      <point x="293" y="688"/>
      <point x="280" y="675"/>
      <point x="264" y="675" type="curve" smooth="yes"/>
      <point x="228" y="675"/>
      <point x="223" y="642"/>
      <point x="216" y="603" type="curve"/>
      <point x="197" y="499" type="line"/>
      <point x="229" y="550"/>
      <point x="263" y="599"/>
      <point x="295" y="649" type="curve"/>
      <point x="324" y="698"/>
      <point x="378" y="731"/>
      <point x="429" y="731" type="curve" smooth="yes"/>
      <point x="442" y="731"/>
      <point x="458" y="728"/>
      <point x="472" y="722" type="curve"/>
    </contour>
    <contour>
      <point x="515" y="682" type="line"/>
      <point x="519" y="681" type="line"/>
      <point x="511" y="684"/>
      <point x="503" y="687"/>
      <point x="494" y="689" type="curve"/>
      <point x="501" y="706"/>
      <point x="495" y="724"/>
      <point x="478" y="731" type="curve"/>
      <point x="476" y="731" type="line"/>
      <point x="474" y="732" type="line"/>
      <point x="477" y="731" type="line"/>
      <point x="463" y="738"/>
      <point x="445" y="741"/>
      <point x="431" y="741" type="curve" smooth="yes"/>
      <point x="392" y="741"/>
      <point x="351" y="721"/>
      <point x="318" y="691" type="curve"/>
      <point x="316" y="691" type="line"/>
      <point x="310" y="691"/>
      <point x="306" y="690"/>
      <point x="301" y="690" type="curve"/>
      <point x="303" y="694"/>
      <point x="305" y="698"/>
      <point x="305" y="703" type="curve" smooth="yes"/>
      <point x="309" y="725"/>
      <point x="297" y="741"/>
      <point x="275" y="741" type="curve" smooth="yes"/>
      <point x="194" y="741"/>
      <point x="163" y="678"/>
      <point x="150" y="603" type="curve"/>
      <point x="48" y="28" type="line"/>
      <point x="45" y="6"/>
      <point x="58" y="-10"/>
      <point x="81" y="-10" type="curve" smooth="yes"/>
      <point x="85" y="-10"/>
      <point x="88" y="-9"/>
      <point x="92" y="-8" type="curve"/>
      <point x="90" y="-22" type="line"/>
      <point x="86" y="-44"/>
      <point x="99" y="-60"/>
      <point x="122" y="-60" type="curve" smooth="yes"/>
      <point x="143" y="-60"/>
      <point x="162" y="-44"/>
      <point x="166" y="-22" type="curve"/>
      <point x="189" y="110" type="line"/>
      <point x="197" y="77" type="line"/>
      <point x="204" y="45"/>
      <point x="221" y="17"/>
      <point x="246" y="2" type="curve"/>
      <point x="263" y="-34"/>
      <point x="292" y="-60"/>
      <point x="332" y="-60" type="curve" smooth="yes"/>
      <point x="347" y="-60"/>
      <point x="363" y="-57"/>
      <point x="382" y="-49" type="curve" smooth="yes"/>
      <point x="402" y="-41"/>
      <point x="415" y="-19"/>
      <point x="411" y="1" type="curve" smooth="yes"/>
      <point x="406" y="20"/>
      <point x="386" y="28"/>
      <point x="364" y="20" type="curve"/>
      <point x="363" y="20" type="line"/>
      <point x="369" y="29"/>
      <point x="372" y="40"/>
      <point x="369" y="51" type="curve" smooth="yes"/>
      <point x="365" y="70"/>
      <point x="345" y="78"/>
      <point x="323" y="70" type="curve"/>
      <point x="309" y="66" type="line"/>
      <point x="243" y="341" type="line"/>
      <point x="243" y="341"/>
      <point x="244" y="341"/>
      <point x="244" y="342" type="curve"/>
      <point x="388" y="567" type="line"/>
      <point x="405" y="596"/>
      <point x="434" y="615"/>
      <point x="460" y="615" type="curve" smooth="yes"/>
      <point x="467" y="615"/>
      <point x="474" y="614"/>
      <point x="479" y="612" type="curve" smooth="yes"/>
      <point x="497" y="604"/>
      <point x="520" y="612"/>
      <point x="532" y="632" type="curve" smooth="yes"/>
      <point x="543" y="651"/>
      <point x="539" y="673"/>
      <point x="520" y="681" type="curve"/>
      <point x="518" y="681" type="line"/>
    </contour>
  </outline>
</glyph>
<glyph name="L" format="1">
  <advance width="319"/>
  <unicode hex="004C"/>
  <outline>
    <contour>
      <point x="241" y="51" type="line"/>
      <point x="255" y="51"/>
      <point x="264" y="39"/>
      <point x="262" y="26" type="curve" smooth="yes"/>
      <point x="259" y="11"/>
      <point x="247" y="0"/>
      <point x="233" y="0" type="curve" smooth="yes"/>
      <point x="164" y="0"/>
      <point x="50" y="8"/>
      <point x="63" y="84" type="curve"/>
      <point x="173" y="707" type="line"/>
      <point x="176" y="721"/>
      <point x="190" y="733"/>
      <point x="203" y="733" type="curve" smooth="yes"/>
      <point x="218" y="733"/>
      <point x="227" y="721"/>
      <point x="224" y="707" type="curve"/>
      <point x="114" y="84" type="line"/>
      <point x="108" y="51"/>
      <point x="187" y="51"/>
      <point x="233" y="51" type="curve"/>
    </contour>
    <contour>
      <point x="284" y="11" type="curve"/>
      <point x="276" y="11" type="line"/>
      <point x="266" y="11" type="line"/>
      <point x="269" y="15"/>
      <point x="271" y="20"/>
      <point x="272" y="26" type="curve" smooth="yes"/>
      <point x="275" y="44"/>
      <point x="263" y="61"/>
      <point x="243" y="61" type="curve"/>
      <point x="235" y="61" type="line"/>
      <point x="216" y="61"/>
      <point x="191" y="61"/>
      <point x="171" y="63" type="curve"/>
      <point x="275" y="657" type="line"/>
      <point x="279" y="676"/>
      <point x="267" y="693"/>
      <point x="246" y="693" type="curve" smooth="yes"/>
      <point x="241" y="693"/>
      <point x="235" y="691"/>
      <point x="231" y="689" type="curve"/>
      <point x="234" y="707" type="line"/>
      <point x="238" y="726"/>
      <point x="226" y="743"/>
      <point x="205" y="743" type="curve" smooth="yes"/>
      <point x="187" y="743"/>
      <point x="167" y="726"/>
      <point x="163" y="707" type="curve"/>
      <point x="53" y="84" type="line"/>
      <point x="47" y="47"/>
      <point x="65" y="25"/>
      <point x="93" y="11" type="curve"/>
      <point x="102" y="-53"/>
      <point x="206" y="-60"/>
      <point x="272" y="-60" type="curve" smooth="yes"/>
      <point x="292" y="-60"/>
      <point x="310" y="-45"/>
      <point x="313" y="-24" type="curve" smooth="yes"/>
      <point x="316" y="-6"/>
      <point x="304" y="11"/>
    </contour>
  </outline>
</glyph>
